G04 #@! TF.GenerationSoftware,KiCad,Pcbnew,8.0.8*
G04 #@! TF.CreationDate,2025-04-06T11:28:41+01:00*
G04 #@! TF.ProjectId,flexbot_PCB07,666c6578-626f-4745-9f50-434230372e6b,rev?*
G04 #@! TF.SameCoordinates,Original*
G04 #@! TF.FileFunction,Copper,L1,Top*
G04 #@! TF.FilePolarity,Positive*
%FSLAX46Y46*%
G04 Gerber Fmt 4.6, Leading zero omitted, Abs format (unit mm)*
G04 Created by KiCad (PCBNEW 8.0.8) date 2025-04-06 11:28:41*
%MOMM*%
%LPD*%
G01*
G04 APERTURE LIST*
G04 #@! TA.AperFunction,ComponentPad*
%ADD10O,1.700000X1.700000*%
G04 #@! TD*
G04 #@! TA.AperFunction,ComponentPad*
%ADD11R,1.700000X1.700000*%
G04 #@! TD*
G04 #@! TA.AperFunction,ViaPad*
%ADD12C,0.800000*%
G04 #@! TD*
G04 #@! TA.AperFunction,Conductor*
%ADD13C,0.300000*%
G04 #@! TD*
G04 #@! TA.AperFunction,Conductor*
%ADD14C,0.250000*%
G04 #@! TD*
G04 #@! TA.AperFunction,Conductor*
%ADD15C,0.350000*%
G04 #@! TD*
G04 APERTURE END LIST*
D10*
X106426000Y-43180000D03*
X103886000Y-43180000D03*
D11*
X101346000Y-43180000D03*
D10*
X107442000Y-19050000D03*
X104902000Y-19050000D03*
D11*
X102362000Y-19050000D03*
X107696000Y-24384000D03*
D10*
X107696000Y-26924000D03*
X107696000Y-29464000D03*
D11*
X77216000Y-28448000D03*
D10*
X77216000Y-30988000D03*
X78486000Y-43180000D03*
D11*
X75946000Y-43180000D03*
X108966000Y-36830000D03*
D10*
X108966000Y-39370000D03*
X106426000Y-36830000D03*
X106426000Y-39370000D03*
X103886000Y-36830000D03*
X103886000Y-39370000D03*
X101346000Y-36830000D03*
X101346000Y-39370000D03*
X98806000Y-36830000D03*
X98806000Y-39370000D03*
X96266000Y-36830000D03*
X96266000Y-39370000D03*
X93726000Y-36830000D03*
X93726000Y-39370000D03*
X91186000Y-36830000D03*
X91186000Y-39370000D03*
X88646000Y-36830000D03*
X88646000Y-39370000D03*
X86106000Y-36830000D03*
X86106000Y-39370000D03*
X83566000Y-36830000D03*
X83566000Y-39370000D03*
X81026000Y-36830000D03*
X81026000Y-39370000D03*
X78486000Y-36830000D03*
X78486000Y-39370000D03*
X75946000Y-36830000D03*
X75946000Y-39370000D03*
X73406000Y-36830000D03*
X73406000Y-39370000D03*
X70866000Y-36830000D03*
X70866000Y-39370000D03*
X68326000Y-36830000D03*
X68326000Y-39370000D03*
X65786000Y-36830000D03*
X65786000Y-39370000D03*
X63246000Y-36830000D03*
X63246000Y-39370000D03*
X60706000Y-36830000D03*
X60706000Y-39370000D03*
D11*
X91694000Y-19050000D03*
D10*
X94234000Y-19050000D03*
X96774000Y-19050000D03*
X83566000Y-43180000D03*
X86106000Y-43180000D03*
X88646000Y-43180000D03*
X91186000Y-43180000D03*
X93726000Y-43180000D03*
D11*
X96266000Y-43180000D03*
D10*
X103886000Y-33528000D03*
X106426000Y-33528000D03*
X108966000Y-33528000D03*
X111506000Y-33528000D03*
D11*
X114046000Y-33528000D03*
D10*
X111506000Y-29464000D03*
X111506000Y-26924000D03*
D11*
X111506000Y-24384000D03*
D10*
X103886000Y-29464000D03*
X103886000Y-26924000D03*
D11*
X103886000Y-24384000D03*
X73406000Y-19050000D03*
D10*
X70866000Y-19050000D03*
X68326000Y-19050000D03*
X65786000Y-19050000D03*
X63246000Y-19050000D03*
X60706000Y-19050000D03*
D11*
X73406000Y-31750000D03*
D10*
X70866000Y-31750000D03*
X68326000Y-31750000D03*
X65786000Y-31750000D03*
X63246000Y-31750000D03*
X60706000Y-31750000D03*
D11*
X70866000Y-43180000D03*
D10*
X68326000Y-43180000D03*
X65786000Y-43180000D03*
X63246000Y-43180000D03*
X60706000Y-43180000D03*
X84836000Y-25908000D03*
X84836000Y-28448000D03*
D11*
X84836000Y-30988000D03*
X81026000Y-30988000D03*
D10*
X81026000Y-28448000D03*
X81026000Y-25908000D03*
D11*
X99568000Y-30988000D03*
D10*
X99568000Y-28448000D03*
X99568000Y-25908000D03*
X96266000Y-25908000D03*
X96266000Y-28448000D03*
D11*
X96266000Y-30988000D03*
X92456000Y-30988000D03*
D10*
X92456000Y-28448000D03*
X92456000Y-25908000D03*
X88646000Y-25908000D03*
X88646000Y-28448000D03*
D11*
X88646000Y-30988000D03*
X78486000Y-19050000D03*
D10*
X81026000Y-19050000D03*
X83566000Y-19050000D03*
X86106000Y-19050000D03*
D12*
X80772000Y-22352000D03*
X76708000Y-23876000D03*
X92456000Y-34036000D03*
X94234000Y-23114000D03*
X113030000Y-38608000D03*
X111252000Y-36830000D03*
X74676000Y-25400000D03*
X69088000Y-25400000D03*
D13*
X77216000Y-32190081D02*
X76962000Y-32444081D01*
X77216000Y-30988000D02*
X77216000Y-32190081D01*
X76962000Y-33274000D02*
X73406000Y-36830000D01*
X76962000Y-32444081D02*
X76962000Y-33274000D01*
D14*
X78486000Y-43180000D02*
X78486000Y-41910000D01*
X78486000Y-41910000D02*
X81026000Y-39370000D01*
D13*
X108966000Y-36830000D02*
X108966000Y-33528000D01*
X108966000Y-33528000D02*
X108966000Y-32004000D01*
X108966000Y-32004000D02*
X111760000Y-32004000D01*
X100584000Y-24892000D02*
X99568000Y-25908000D01*
X98365919Y-25908000D02*
X96266000Y-25908000D01*
X99568000Y-25908000D02*
X98365919Y-25908000D01*
X95063919Y-25908000D02*
X92456000Y-25908000D01*
X96266000Y-25908000D02*
X95063919Y-25908000D01*
X91253919Y-25908000D02*
X88646000Y-25908000D01*
X92456000Y-25908000D02*
X91253919Y-25908000D01*
X88646000Y-25908000D02*
X88646000Y-24705919D01*
X88646000Y-24705919D02*
X88646000Y-22352000D01*
X88646000Y-22352000D02*
X80772000Y-22352000D01*
X65786000Y-31750000D02*
X73660000Y-23876000D01*
X73660000Y-23876000D02*
X76708000Y-23876000D01*
X88646000Y-36830000D02*
X89495999Y-35980001D01*
X89495999Y-35980001D02*
X90170000Y-35306000D01*
X90170000Y-35306000D02*
X91186000Y-35306000D01*
X91186000Y-35306000D02*
X91440000Y-35306000D01*
X91440000Y-35306000D02*
X92456000Y-34290000D01*
X92456000Y-34290000D02*
X92456000Y-34036000D01*
X94234000Y-23114000D02*
X93218000Y-23114000D01*
X92456000Y-23876000D02*
X92456000Y-25908000D01*
X93218000Y-23114000D02*
X92456000Y-23876000D01*
D14*
X106426000Y-43180000D02*
X109728000Y-43180000D01*
X109728000Y-43180000D02*
X109728000Y-42164000D01*
X109728000Y-42164000D02*
X113030000Y-38862000D01*
X113030000Y-38862000D02*
X113030000Y-38608000D01*
X111252000Y-36830000D02*
X108966000Y-36830000D01*
D15*
X111760000Y-32004000D02*
X114046000Y-32004000D01*
X114046000Y-32004000D02*
X114046000Y-24384000D01*
X114046000Y-24384000D02*
X111506000Y-24384000D01*
X110306000Y-24384000D02*
X107696000Y-24384000D01*
X111506000Y-24384000D02*
X110306000Y-24384000D01*
X107696000Y-24384000D02*
X103886000Y-24384000D01*
X101092000Y-24384000D02*
X100584000Y-24892000D01*
X103886000Y-24384000D02*
X101092000Y-24384000D01*
X94234000Y-21590000D02*
X94234000Y-23114000D01*
X96774000Y-19050000D02*
X94234000Y-21590000D01*
D14*
X107442000Y-24130000D02*
X107696000Y-24384000D01*
X107442000Y-19050000D02*
X107442000Y-24130000D01*
D15*
X107628081Y-39370000D02*
X108966000Y-39370000D01*
X106426000Y-39370000D02*
X107628081Y-39370000D01*
X115146000Y-33528000D02*
X115824000Y-33528000D01*
X114046000Y-33528000D02*
X115146000Y-33528000D01*
X83736000Y-30988000D02*
X81026000Y-30988000D01*
X84836000Y-30988000D02*
X83736000Y-30988000D01*
X115824000Y-33782000D02*
X115824000Y-33528000D01*
X115824000Y-35306000D02*
X115824000Y-33782000D01*
X115824000Y-35560000D02*
X115824000Y-35306000D01*
X114046000Y-35560000D02*
X115824000Y-35560000D01*
X108966000Y-39370000D02*
X110236000Y-39370000D01*
X110236000Y-39370000D02*
X114046000Y-35560000D01*
X77470000Y-20828000D02*
X86106000Y-20828000D01*
X76962000Y-20320000D02*
X77470000Y-20828000D01*
D13*
X65786000Y-17526000D02*
X66294000Y-17018000D01*
D15*
X65786000Y-19050000D02*
X65786000Y-17526000D01*
X86106000Y-20828000D02*
X86106000Y-19050000D01*
D13*
X66294000Y-17018000D02*
X75692000Y-17018000D01*
X75692000Y-17018000D02*
X75692000Y-18796000D01*
D15*
X75692000Y-18796000D02*
X76962000Y-20066000D01*
X76962000Y-20066000D02*
X76962000Y-20320000D01*
X81026000Y-30988000D02*
X79926000Y-30988000D01*
X79926000Y-30988000D02*
X78994000Y-30988000D01*
X78994000Y-30988000D02*
X78994000Y-26162000D01*
X78994000Y-26162000D02*
X78232000Y-25400000D01*
X78232000Y-25400000D02*
X74676000Y-25400000D01*
X65786000Y-22098000D02*
X65786000Y-19050000D01*
X69088000Y-25400000D02*
X65786000Y-22098000D01*
X115824000Y-31242000D02*
X115824000Y-30988000D01*
X115824000Y-33782000D02*
X115824000Y-31242000D01*
X109982000Y-16256000D02*
X102362000Y-16256000D01*
X102362000Y-16256000D02*
X102362000Y-19050000D01*
X93388000Y-16256000D02*
X102362000Y-16256000D01*
X91694000Y-17950000D02*
X93388000Y-16256000D01*
X91694000Y-19050000D02*
X91694000Y-17950000D01*
D14*
X106426000Y-40640000D02*
X106426000Y-39370000D01*
X105664000Y-41402000D02*
X106426000Y-40640000D01*
X101346000Y-43180000D02*
X101346000Y-41402000D01*
X101346000Y-41402000D02*
X105664000Y-41402000D01*
D15*
X115570000Y-16256000D02*
X109982000Y-16256000D01*
X116078000Y-16764000D02*
X115570000Y-16256000D01*
X116078000Y-20828000D02*
X116078000Y-16764000D01*
X115824000Y-31242000D02*
X115824000Y-21082000D01*
X115824000Y-21082000D02*
X116078000Y-20828000D01*
X86106000Y-19050000D02*
X91694000Y-19050000D01*
D13*
X106426000Y-33528000D02*
X106426000Y-36830000D01*
X103886000Y-33528000D02*
X103886000Y-36830000D01*
X102195999Y-35980001D02*
X102195999Y-35393999D01*
X101346000Y-36830000D02*
X102195999Y-35980001D01*
X102195999Y-35393999D02*
X102108000Y-35306000D01*
X102108000Y-35306000D02*
X102108000Y-32004000D01*
D15*
X107696000Y-32004000D02*
X108440990Y-32004000D01*
D13*
X107696000Y-32004000D02*
X108458000Y-32004000D01*
X102108000Y-32004000D02*
X107696000Y-32004000D01*
D15*
X108440990Y-32004000D02*
X108440990Y-31259010D01*
X108440990Y-31259010D02*
X108458000Y-31242000D01*
X108458000Y-31242000D02*
X109220000Y-31242000D01*
X109220000Y-31242000D02*
X109728000Y-30734000D01*
X109728000Y-30734000D02*
X109728000Y-26924000D01*
X109728000Y-26924000D02*
X111506000Y-26924000D01*
D14*
X97536000Y-43180000D02*
X101346000Y-39370000D01*
X96266000Y-43180000D02*
X97536000Y-43180000D01*
X94575999Y-42330001D02*
X94575999Y-42076001D01*
X93726000Y-43180000D02*
X94575999Y-42330001D01*
X94575999Y-42076001D02*
X95250000Y-41402000D01*
X96774000Y-41402000D02*
X98806000Y-39370000D01*
X95250000Y-41402000D02*
X96774000Y-41402000D01*
D13*
X98806000Y-34290000D02*
X96266000Y-36830000D01*
X100076000Y-34290000D02*
X98806000Y-34290000D01*
D14*
X101854000Y-31496000D02*
X101346000Y-32004000D01*
X101346000Y-32004000D02*
X101346000Y-33020000D01*
D13*
X101346000Y-33020000D02*
X100076000Y-34290000D01*
D15*
X101873524Y-31496000D02*
X102127524Y-31242000D01*
X101854000Y-31496000D02*
X101873524Y-31496000D01*
X102127524Y-31242000D02*
X105664000Y-31242000D01*
X105664000Y-31242000D02*
X105664000Y-26924000D01*
X105664000Y-26924000D02*
X107696000Y-26924000D01*
D14*
X91186000Y-41977919D02*
X91761919Y-41402000D01*
X91186000Y-43180000D02*
X91186000Y-41977919D01*
X91761919Y-41402000D02*
X94234000Y-41402000D01*
X94234000Y-41402000D02*
X96266000Y-39370000D01*
D13*
X101353990Y-30726010D02*
X101600000Y-30480000D01*
X101353990Y-31324246D02*
X101353990Y-30726010D01*
X100838000Y-31840235D02*
X101353990Y-31324246D01*
X93726000Y-36830000D02*
X97790000Y-32766000D01*
X97790000Y-32766000D02*
X100330000Y-32766000D01*
X100330000Y-32766000D02*
X100838000Y-32258000D01*
X100838000Y-32258000D02*
X100838000Y-31840235D01*
D15*
X101600000Y-30480000D02*
X101600000Y-26924000D01*
X101600000Y-26924000D02*
X103886000Y-26924000D01*
D13*
X94996000Y-33020000D02*
X91186000Y-36830000D01*
X96774000Y-33020000D02*
X94996000Y-33020000D01*
X97790000Y-32004000D02*
X96774000Y-33020000D01*
X99568000Y-28448000D02*
X97790000Y-28448000D01*
X97790000Y-28448000D02*
X97790000Y-32004000D01*
D14*
X91186000Y-40640000D02*
X91186000Y-39370000D01*
X88646000Y-43180000D02*
X91186000Y-40640000D01*
X88646000Y-40640000D02*
X88646000Y-39370000D01*
X86106000Y-43180000D02*
X88646000Y-40640000D01*
D13*
X96266000Y-28448000D02*
X94488000Y-28448000D01*
X94488000Y-28448000D02*
X94488000Y-32004000D01*
X94488000Y-32004000D02*
X93726000Y-32766000D01*
X93726000Y-32766000D02*
X91948000Y-32766000D01*
X91948000Y-32766000D02*
X89916000Y-34798000D01*
X89916000Y-34798000D02*
X88138000Y-34798000D01*
X88138000Y-34798000D02*
X86106000Y-36830000D01*
X87376000Y-33020000D02*
X83566000Y-36830000D01*
X90170000Y-33020000D02*
X87376000Y-33020000D01*
X90678000Y-32512000D02*
X90170000Y-33020000D01*
X92456000Y-28448000D02*
X90678000Y-28448000D01*
X90678000Y-28448000D02*
X90678000Y-32512000D01*
D14*
X83566000Y-43180000D02*
X83566000Y-39370000D01*
D13*
X86868000Y-28448000D02*
X88646000Y-28448000D01*
X84328000Y-33528000D02*
X85344000Y-33528000D01*
X81026000Y-36830000D02*
X84328000Y-33528000D01*
X85344000Y-33528000D02*
X86106000Y-32766000D01*
X86106000Y-32766000D02*
X86614000Y-32766000D01*
X86614000Y-32766000D02*
X86614000Y-28702000D01*
X86614000Y-28702000D02*
X86868000Y-28448000D01*
D14*
X76708000Y-41148000D02*
X78486000Y-39370000D01*
X70866000Y-43180000D02*
X70866000Y-41148000D01*
X70866000Y-41148000D02*
X76708000Y-41148000D01*
D13*
X73406000Y-34290000D02*
X70866000Y-36830000D01*
X73406000Y-31750000D02*
X73406000Y-34290000D01*
X68326000Y-41910000D02*
X68326000Y-43180000D01*
X70866000Y-39370000D02*
X68326000Y-41910000D01*
X64936001Y-35980001D02*
X60706000Y-31750000D01*
X65786000Y-36830000D02*
X64936001Y-35980001D01*
X65786000Y-41977919D02*
X65786000Y-39370000D01*
X65786000Y-43180000D02*
X65786000Y-41977919D01*
X61722000Y-35306000D02*
X63246000Y-36830000D01*
X83566000Y-15748000D02*
X58674000Y-15748000D01*
X83566000Y-19050000D02*
X83566000Y-15748000D01*
X58674000Y-15748000D02*
X58166000Y-16256000D01*
X58166000Y-16256000D02*
X58166000Y-34290000D01*
X58166000Y-34290000D02*
X61722000Y-34290000D01*
X61722000Y-34290000D02*
X61722000Y-35306000D01*
X63246000Y-40572081D02*
X63246000Y-43180000D01*
X63246000Y-39370000D02*
X63246000Y-40572081D01*
X60706000Y-41977919D02*
X60706000Y-39370000D01*
X60706000Y-43180000D02*
X60706000Y-41977919D01*
X74506000Y-19050000D02*
X73406000Y-19050000D01*
X76538000Y-21082000D02*
X74506000Y-19050000D01*
X76582410Y-21082000D02*
X77344410Y-21844000D01*
X76538000Y-21082000D02*
X76582410Y-21082000D01*
X77344410Y-21844000D02*
X78486000Y-21844000D01*
X78486000Y-21844000D02*
X80518000Y-23876000D01*
X80518000Y-23876000D02*
X83566000Y-23876000D01*
X83566000Y-24638000D02*
X84836000Y-25908000D01*
X83566000Y-23876000D02*
X83566000Y-24638000D01*
X80176001Y-25058001D02*
X79922001Y-25058001D01*
X81026000Y-25908000D02*
X80176001Y-25058001D01*
X79922001Y-25058001D02*
X77216000Y-22352000D01*
X77216000Y-22352000D02*
X72390000Y-22352000D01*
X70866000Y-20828000D02*
X70866000Y-19050000D01*
X72390000Y-22352000D02*
X70866000Y-20828000D01*
X81026000Y-16764000D02*
X81026000Y-19050000D01*
X80772000Y-16510000D02*
X81026000Y-16764000D01*
X60706000Y-19050000D02*
X60706000Y-16510000D01*
X60706000Y-16510000D02*
X80772000Y-16510000D01*
X70866000Y-31750000D02*
X70866000Y-34290000D01*
X70866000Y-34290000D02*
X68326000Y-36830000D01*
M02*
