G04 #@! TF.GenerationSoftware,KiCad,Pcbnew,8.0.8*
G04 #@! TF.CreationDate,2025-04-06T11:28:41+01:00*
G04 #@! TF.ProjectId,flexbot_PCB07,666c6578-626f-4745-9f50-434230372e6b,rev?*
G04 #@! TF.SameCoordinates,Original*
G04 #@! TF.FileFunction,Legend,Bot*
G04 #@! TF.FilePolarity,Positive*
%FSLAX46Y46*%
G04 Gerber Fmt 4.6, Leading zero omitted, Abs format (unit mm)*
G04 Created by KiCad (PCBNEW 8.0.8) date 2025-04-06 11:28:41*
%MOMM*%
%LPD*%
G01*
G04 APERTURE LIST*
%ADD10C,0.180000*%
%ADD11C,0.170000*%
%ADD12C,0.190000*%
%ADD13C,0.160000*%
%ADD14C,0.120000*%
G04 APERTURE END LIST*
D10*
X75120285Y-28955782D02*
X74834571Y-29755782D01*
X74834571Y-29755782D02*
X74548856Y-28955782D01*
X74205999Y-28555782D02*
X73405999Y-28555782D01*
X73405999Y-28555782D02*
X73920285Y-29755782D01*
X72948856Y-29641497D02*
X72891713Y-29698640D01*
X72891713Y-29698640D02*
X72948856Y-29755782D01*
X72948856Y-29755782D02*
X73005999Y-29698640D01*
X73005999Y-29698640D02*
X72948856Y-29641497D01*
X72948856Y-29641497D02*
X72948856Y-29755782D01*
X72148856Y-28555782D02*
X72034570Y-28555782D01*
X72034570Y-28555782D02*
X71920284Y-28612925D01*
X71920284Y-28612925D02*
X71863142Y-28670068D01*
X71863142Y-28670068D02*
X71805999Y-28784354D01*
X71805999Y-28784354D02*
X71748856Y-29012925D01*
X71748856Y-29012925D02*
X71748856Y-29298640D01*
X71748856Y-29298640D02*
X71805999Y-29527211D01*
X71805999Y-29527211D02*
X71863142Y-29641497D01*
X71863142Y-29641497D02*
X71920284Y-29698640D01*
X71920284Y-29698640D02*
X72034570Y-29755782D01*
X72034570Y-29755782D02*
X72148856Y-29755782D01*
X72148856Y-29755782D02*
X72263142Y-29698640D01*
X72263142Y-29698640D02*
X72320284Y-29641497D01*
X72320284Y-29641497D02*
X72377427Y-29527211D01*
X72377427Y-29527211D02*
X72434570Y-29298640D01*
X72434570Y-29298640D02*
X72434570Y-29012925D01*
X72434570Y-29012925D02*
X72377427Y-28784354D01*
X72377427Y-28784354D02*
X72320284Y-28670068D01*
X72320284Y-28670068D02*
X72263142Y-28612925D01*
X72263142Y-28612925D02*
X72148856Y-28555782D01*
D11*
X76135712Y-22489160D02*
X76259521Y-22546302D01*
X76259521Y-22546302D02*
X76507140Y-22546302D01*
X76507140Y-22546302D02*
X76630950Y-22489160D01*
X76630950Y-22489160D02*
X76692855Y-22432017D01*
X76692855Y-22432017D02*
X76754759Y-22317731D01*
X76754759Y-22317731D02*
X76754759Y-21974874D01*
X76754759Y-21974874D02*
X76692855Y-21860588D01*
X76692855Y-21860588D02*
X76630950Y-21803445D01*
X76630950Y-21803445D02*
X76507140Y-21746302D01*
X76507140Y-21746302D02*
X76259521Y-21746302D01*
X76259521Y-21746302D02*
X76135712Y-21803445D01*
X75392854Y-22546302D02*
X75516664Y-22489160D01*
X75516664Y-22489160D02*
X75578569Y-22432017D01*
X75578569Y-22432017D02*
X75640473Y-22317731D01*
X75640473Y-22317731D02*
X75640473Y-21974874D01*
X75640473Y-21974874D02*
X75578569Y-21860588D01*
X75578569Y-21860588D02*
X75516664Y-21803445D01*
X75516664Y-21803445D02*
X75392854Y-21746302D01*
X75392854Y-21746302D02*
X75207140Y-21746302D01*
X75207140Y-21746302D02*
X75083331Y-21803445D01*
X75083331Y-21803445D02*
X75021426Y-21860588D01*
X75021426Y-21860588D02*
X74959521Y-21974874D01*
X74959521Y-21974874D02*
X74959521Y-22317731D01*
X74959521Y-22317731D02*
X75021426Y-22432017D01*
X75021426Y-22432017D02*
X75083331Y-22489160D01*
X75083331Y-22489160D02*
X75207140Y-22546302D01*
X75207140Y-22546302D02*
X75392854Y-22546302D01*
X74402379Y-21746302D02*
X74402379Y-22946302D01*
X74402379Y-21803445D02*
X74278569Y-21746302D01*
X74278569Y-21746302D02*
X74030950Y-21746302D01*
X74030950Y-21746302D02*
X73907141Y-21803445D01*
X73907141Y-21803445D02*
X73845236Y-21860588D01*
X73845236Y-21860588D02*
X73783331Y-21974874D01*
X73783331Y-21974874D02*
X73783331Y-22317731D01*
X73783331Y-22317731D02*
X73845236Y-22432017D01*
X73845236Y-22432017D02*
X73907141Y-22489160D01*
X73907141Y-22489160D02*
X74030950Y-22546302D01*
X74030950Y-22546302D02*
X74278569Y-22546302D01*
X74278569Y-22546302D02*
X74402379Y-22489160D01*
X73349998Y-21746302D02*
X73040474Y-22546302D01*
X72730951Y-21746302D02*
X73040474Y-22546302D01*
X73040474Y-22546302D02*
X73164284Y-22832017D01*
X73164284Y-22832017D02*
X73226189Y-22889160D01*
X73226189Y-22889160D02*
X73349998Y-22946302D01*
X72235713Y-22546302D02*
X72235713Y-21746302D01*
X72235713Y-21974874D02*
X72173808Y-21860588D01*
X72173808Y-21860588D02*
X72111903Y-21803445D01*
X72111903Y-21803445D02*
X71988094Y-21746302D01*
X71988094Y-21746302D02*
X71864284Y-21746302D01*
X71430951Y-22546302D02*
X71430951Y-21746302D01*
X71430951Y-21346302D02*
X71492855Y-21403445D01*
X71492855Y-21403445D02*
X71430951Y-21460588D01*
X71430951Y-21460588D02*
X71369046Y-21403445D01*
X71369046Y-21403445D02*
X71430951Y-21346302D01*
X71430951Y-21346302D02*
X71430951Y-21460588D01*
X70254760Y-21746302D02*
X70254760Y-22717731D01*
X70254760Y-22717731D02*
X70316665Y-22832017D01*
X70316665Y-22832017D02*
X70378569Y-22889160D01*
X70378569Y-22889160D02*
X70502379Y-22946302D01*
X70502379Y-22946302D02*
X70688093Y-22946302D01*
X70688093Y-22946302D02*
X70811903Y-22889160D01*
X70254760Y-22489160D02*
X70378569Y-22546302D01*
X70378569Y-22546302D02*
X70626188Y-22546302D01*
X70626188Y-22546302D02*
X70749998Y-22489160D01*
X70749998Y-22489160D02*
X70811903Y-22432017D01*
X70811903Y-22432017D02*
X70873807Y-22317731D01*
X70873807Y-22317731D02*
X70873807Y-21974874D01*
X70873807Y-21974874D02*
X70811903Y-21860588D01*
X70811903Y-21860588D02*
X70749998Y-21803445D01*
X70749998Y-21803445D02*
X70626188Y-21746302D01*
X70626188Y-21746302D02*
X70378569Y-21746302D01*
X70378569Y-21746302D02*
X70254760Y-21803445D01*
X69635713Y-22546302D02*
X69635713Y-21346302D01*
X69078570Y-22546302D02*
X69078570Y-21917731D01*
X69078570Y-21917731D02*
X69140475Y-21803445D01*
X69140475Y-21803445D02*
X69264284Y-21746302D01*
X69264284Y-21746302D02*
X69449998Y-21746302D01*
X69449998Y-21746302D02*
X69573808Y-21803445D01*
X69573808Y-21803445D02*
X69635713Y-21860588D01*
X68645237Y-21746302D02*
X68149999Y-21746302D01*
X68459523Y-21346302D02*
X68459523Y-22374874D01*
X68459523Y-22374874D02*
X68397618Y-22489160D01*
X68397618Y-22489160D02*
X68273808Y-22546302D01*
X68273808Y-22546302D02*
X68149999Y-22546302D01*
X66788094Y-21460588D02*
X66726190Y-21403445D01*
X66726190Y-21403445D02*
X66602380Y-21346302D01*
X66602380Y-21346302D02*
X66292856Y-21346302D01*
X66292856Y-21346302D02*
X66169047Y-21403445D01*
X66169047Y-21403445D02*
X66107142Y-21460588D01*
X66107142Y-21460588D02*
X66045237Y-21574874D01*
X66045237Y-21574874D02*
X66045237Y-21689160D01*
X66045237Y-21689160D02*
X66107142Y-21860588D01*
X66107142Y-21860588D02*
X66849999Y-22546302D01*
X66849999Y-22546302D02*
X66045237Y-22546302D01*
X65240476Y-21346302D02*
X65116666Y-21346302D01*
X65116666Y-21346302D02*
X64992857Y-21403445D01*
X64992857Y-21403445D02*
X64930952Y-21460588D01*
X64930952Y-21460588D02*
X64869047Y-21574874D01*
X64869047Y-21574874D02*
X64807142Y-21803445D01*
X64807142Y-21803445D02*
X64807142Y-22089160D01*
X64807142Y-22089160D02*
X64869047Y-22317731D01*
X64869047Y-22317731D02*
X64930952Y-22432017D01*
X64930952Y-22432017D02*
X64992857Y-22489160D01*
X64992857Y-22489160D02*
X65116666Y-22546302D01*
X65116666Y-22546302D02*
X65240476Y-22546302D01*
X65240476Y-22546302D02*
X65364285Y-22489160D01*
X65364285Y-22489160D02*
X65426190Y-22432017D01*
X65426190Y-22432017D02*
X65488095Y-22317731D01*
X65488095Y-22317731D02*
X65549999Y-22089160D01*
X65549999Y-22089160D02*
X65549999Y-21803445D01*
X65549999Y-21803445D02*
X65488095Y-21574874D01*
X65488095Y-21574874D02*
X65426190Y-21460588D01*
X65426190Y-21460588D02*
X65364285Y-21403445D01*
X65364285Y-21403445D02*
X65240476Y-21346302D01*
X63569047Y-22546302D02*
X64311904Y-22546302D01*
X63940476Y-22546302D02*
X63940476Y-21346302D01*
X63940476Y-21346302D02*
X64064285Y-21517731D01*
X64064285Y-21517731D02*
X64188095Y-21632017D01*
X64188095Y-21632017D02*
X64311904Y-21689160D01*
X62950000Y-22546302D02*
X62702381Y-22546302D01*
X62702381Y-22546302D02*
X62578571Y-22489160D01*
X62578571Y-22489160D02*
X62516667Y-22432017D01*
X62516667Y-22432017D02*
X62392857Y-22260588D01*
X62392857Y-22260588D02*
X62330952Y-22032017D01*
X62330952Y-22032017D02*
X62330952Y-21574874D01*
X62330952Y-21574874D02*
X62392857Y-21460588D01*
X62392857Y-21460588D02*
X62454762Y-21403445D01*
X62454762Y-21403445D02*
X62578571Y-21346302D01*
X62578571Y-21346302D02*
X62826190Y-21346302D01*
X62826190Y-21346302D02*
X62950000Y-21403445D01*
X62950000Y-21403445D02*
X63011905Y-21460588D01*
X63011905Y-21460588D02*
X63073809Y-21574874D01*
X63073809Y-21574874D02*
X63073809Y-21860588D01*
X63073809Y-21860588D02*
X63011905Y-21974874D01*
X63011905Y-21974874D02*
X62950000Y-22032017D01*
X62950000Y-22032017D02*
X62826190Y-22089160D01*
X62826190Y-22089160D02*
X62578571Y-22089160D01*
X62578571Y-22089160D02*
X62454762Y-22032017D01*
X62454762Y-22032017D02*
X62392857Y-21974874D01*
X62392857Y-21974874D02*
X62330952Y-21860588D01*
X61773810Y-22089160D02*
X60783334Y-22089160D01*
X60226190Y-21460588D02*
X60164286Y-21403445D01*
X60164286Y-21403445D02*
X60040476Y-21346302D01*
X60040476Y-21346302D02*
X59730952Y-21346302D01*
X59730952Y-21346302D02*
X59607143Y-21403445D01*
X59607143Y-21403445D02*
X59545238Y-21460588D01*
X59545238Y-21460588D02*
X59483333Y-21574874D01*
X59483333Y-21574874D02*
X59483333Y-21689160D01*
X59483333Y-21689160D02*
X59545238Y-21860588D01*
X59545238Y-21860588D02*
X60288095Y-22546302D01*
X60288095Y-22546302D02*
X59483333Y-22546302D01*
X58307143Y-21346302D02*
X58926191Y-21346302D01*
X58926191Y-21346302D02*
X58988095Y-21917731D01*
X58988095Y-21917731D02*
X58926191Y-21860588D01*
X58926191Y-21860588D02*
X58802381Y-21803445D01*
X58802381Y-21803445D02*
X58492857Y-21803445D01*
X58492857Y-21803445D02*
X58369048Y-21860588D01*
X58369048Y-21860588D02*
X58307143Y-21917731D01*
X58307143Y-21917731D02*
X58245238Y-22032017D01*
X58245238Y-22032017D02*
X58245238Y-22317731D01*
X58245238Y-22317731D02*
X58307143Y-22432017D01*
X58307143Y-22432017D02*
X58369048Y-22489160D01*
X58369048Y-22489160D02*
X58492857Y-22546302D01*
X58492857Y-22546302D02*
X58802381Y-22546302D01*
X58802381Y-22546302D02*
X58926191Y-22489160D01*
X58926191Y-22489160D02*
X58988095Y-22432017D01*
D12*
X100428570Y-21304453D02*
X100599999Y-21237786D01*
X100599999Y-21237786D02*
X100857141Y-21237786D01*
X100857141Y-21237786D02*
X101114284Y-21304453D01*
X101114284Y-21304453D02*
X101285713Y-21437786D01*
X101285713Y-21437786D02*
X101371427Y-21571120D01*
X101371427Y-21571120D02*
X101457141Y-21837786D01*
X101457141Y-21837786D02*
X101457141Y-22037786D01*
X101457141Y-22037786D02*
X101371427Y-22304453D01*
X101371427Y-22304453D02*
X101285713Y-22437786D01*
X101285713Y-22437786D02*
X101114284Y-22571120D01*
X101114284Y-22571120D02*
X100857141Y-22637786D01*
X100857141Y-22637786D02*
X100685713Y-22637786D01*
X100685713Y-22637786D02*
X100428570Y-22571120D01*
X100428570Y-22571120D02*
X100342856Y-22504453D01*
X100342856Y-22504453D02*
X100342856Y-22037786D01*
X100342856Y-22037786D02*
X100685713Y-22037786D01*
X98885713Y-22571120D02*
X99057141Y-22637786D01*
X99057141Y-22637786D02*
X99399999Y-22637786D01*
X99399999Y-22637786D02*
X99571427Y-22571120D01*
X99571427Y-22571120D02*
X99657141Y-22437786D01*
X99657141Y-22437786D02*
X99657141Y-21904453D01*
X99657141Y-21904453D02*
X99571427Y-21771120D01*
X99571427Y-21771120D02*
X99399999Y-21704453D01*
X99399999Y-21704453D02*
X99057141Y-21704453D01*
X99057141Y-21704453D02*
X98885713Y-21771120D01*
X98885713Y-21771120D02*
X98799999Y-21904453D01*
X98799999Y-21904453D02*
X98799999Y-22037786D01*
X98799999Y-22037786D02*
X99657141Y-22171120D01*
X97771427Y-22637786D02*
X97942856Y-22571120D01*
X97942856Y-22571120D02*
X98028570Y-22504453D01*
X98028570Y-22504453D02*
X98114284Y-22371120D01*
X98114284Y-22371120D02*
X98114284Y-21971120D01*
X98114284Y-21971120D02*
X98028570Y-21837786D01*
X98028570Y-21837786D02*
X97942856Y-21771120D01*
X97942856Y-21771120D02*
X97771427Y-21704453D01*
X97771427Y-21704453D02*
X97514284Y-21704453D01*
X97514284Y-21704453D02*
X97342856Y-21771120D01*
X97342856Y-21771120D02*
X97257142Y-21837786D01*
X97257142Y-21837786D02*
X97171427Y-21971120D01*
X97171427Y-21971120D02*
X97171427Y-22371120D01*
X97171427Y-22371120D02*
X97257142Y-22504453D01*
X97257142Y-22504453D02*
X97342856Y-22571120D01*
X97342856Y-22571120D02*
X97514284Y-22637786D01*
X97514284Y-22637786D02*
X97771427Y-22637786D01*
X96657142Y-21704453D02*
X95971428Y-21704453D01*
X96399999Y-22637786D02*
X96399999Y-21437786D01*
X96399999Y-21437786D02*
X96314285Y-21304453D01*
X96314285Y-21304453D02*
X96142856Y-21237786D01*
X96142856Y-21237786D02*
X95971428Y-21237786D01*
X95628571Y-21704453D02*
X94942857Y-21704453D01*
X95371428Y-22637786D02*
X95371428Y-21437786D01*
X95371428Y-21437786D02*
X95285714Y-21304453D01*
X95285714Y-21304453D02*
X95114285Y-21237786D01*
X95114285Y-21237786D02*
X94942857Y-21237786D01*
X92371428Y-21904453D02*
X92114285Y-21971120D01*
X92114285Y-21971120D02*
X92028571Y-22037786D01*
X92028571Y-22037786D02*
X91942857Y-22171120D01*
X91942857Y-22171120D02*
X91942857Y-22371120D01*
X91942857Y-22371120D02*
X92028571Y-22504453D01*
X92028571Y-22504453D02*
X92114285Y-22571120D01*
X92114285Y-22571120D02*
X92285714Y-22637786D01*
X92285714Y-22637786D02*
X92971428Y-22637786D01*
X92971428Y-22637786D02*
X92971428Y-21237786D01*
X92971428Y-21237786D02*
X92371428Y-21237786D01*
X92371428Y-21237786D02*
X92200000Y-21304453D01*
X92200000Y-21304453D02*
X92114285Y-21371120D01*
X92114285Y-21371120D02*
X92028571Y-21504453D01*
X92028571Y-21504453D02*
X92028571Y-21637786D01*
X92028571Y-21637786D02*
X92114285Y-21771120D01*
X92114285Y-21771120D02*
X92200000Y-21837786D01*
X92200000Y-21837786D02*
X92371428Y-21904453D01*
X92371428Y-21904453D02*
X92971428Y-21904453D01*
X91171428Y-22637786D02*
X91171428Y-21704453D01*
X91171428Y-21971120D02*
X91085714Y-21837786D01*
X91085714Y-21837786D02*
X91000000Y-21771120D01*
X91000000Y-21771120D02*
X90828571Y-21704453D01*
X90828571Y-21704453D02*
X90657142Y-21704453D01*
X90057142Y-22637786D02*
X90057142Y-21704453D01*
X90057142Y-21237786D02*
X90142856Y-21304453D01*
X90142856Y-21304453D02*
X90057142Y-21371120D01*
X90057142Y-21371120D02*
X89971428Y-21304453D01*
X89971428Y-21304453D02*
X90057142Y-21237786D01*
X90057142Y-21237786D02*
X90057142Y-21371120D01*
X88428571Y-22571120D02*
X88599999Y-22637786D01*
X88599999Y-22637786D02*
X88942856Y-22637786D01*
X88942856Y-22637786D02*
X89114285Y-22571120D01*
X89114285Y-22571120D02*
X89199999Y-22504453D01*
X89199999Y-22504453D02*
X89285713Y-22371120D01*
X89285713Y-22371120D02*
X89285713Y-21971120D01*
X89285713Y-21971120D02*
X89199999Y-21837786D01*
X89199999Y-21837786D02*
X89114285Y-21771120D01*
X89114285Y-21771120D02*
X88942856Y-21704453D01*
X88942856Y-21704453D02*
X88599999Y-21704453D01*
X88599999Y-21704453D02*
X88428571Y-21771120D01*
X87657142Y-22637786D02*
X87657142Y-21237786D01*
X87485714Y-22104453D02*
X86971428Y-22637786D01*
X86971428Y-21704453D02*
X87657142Y-22237786D01*
X85514285Y-22571120D02*
X85685713Y-22637786D01*
X85685713Y-22637786D02*
X86028571Y-22637786D01*
X86028571Y-22637786D02*
X86199999Y-22571120D01*
X86199999Y-22571120D02*
X86285713Y-22437786D01*
X86285713Y-22437786D02*
X86285713Y-21904453D01*
X86285713Y-21904453D02*
X86199999Y-21771120D01*
X86199999Y-21771120D02*
X86028571Y-21704453D01*
X86028571Y-21704453D02*
X85685713Y-21704453D01*
X85685713Y-21704453D02*
X85514285Y-21771120D01*
X85514285Y-21771120D02*
X85428571Y-21904453D01*
X85428571Y-21904453D02*
X85428571Y-22037786D01*
X85428571Y-22037786D02*
X86285713Y-22171120D01*
X84399999Y-22637786D02*
X84571428Y-22571120D01*
X84571428Y-22571120D02*
X84657142Y-22437786D01*
X84657142Y-22437786D02*
X84657142Y-21237786D01*
X83457142Y-22637786D02*
X83628571Y-22571120D01*
X83628571Y-22571120D02*
X83714285Y-22437786D01*
X83714285Y-22437786D02*
X83714285Y-21237786D01*
D13*
X74789617Y-27178822D02*
X74294379Y-27178822D01*
X74603903Y-27978822D02*
X74603903Y-26950251D01*
X74603903Y-26950251D02*
X74541998Y-26835965D01*
X74541998Y-26835965D02*
X74418188Y-26778822D01*
X74418188Y-26778822D02*
X74294379Y-26778822D01*
X73675331Y-27978822D02*
X73799141Y-27921680D01*
X73799141Y-27921680D02*
X73861046Y-27807394D01*
X73861046Y-27807394D02*
X73861046Y-26778822D01*
X72684856Y-27921680D02*
X72808665Y-27978822D01*
X72808665Y-27978822D02*
X73056284Y-27978822D01*
X73056284Y-27978822D02*
X73180094Y-27921680D01*
X73180094Y-27921680D02*
X73241998Y-27807394D01*
X73241998Y-27807394D02*
X73241998Y-27350251D01*
X73241998Y-27350251D02*
X73180094Y-27235965D01*
X73180094Y-27235965D02*
X73056284Y-27178822D01*
X73056284Y-27178822D02*
X72808665Y-27178822D01*
X72808665Y-27178822D02*
X72684856Y-27235965D01*
X72684856Y-27235965D02*
X72622951Y-27350251D01*
X72622951Y-27350251D02*
X72622951Y-27464537D01*
X72622951Y-27464537D02*
X73241998Y-27578822D01*
X72189617Y-27978822D02*
X71508665Y-27178822D01*
X72189617Y-27178822D02*
X71508665Y-27978822D01*
X71013427Y-27978822D02*
X71013427Y-26778822D01*
X71013427Y-27235965D02*
X70889617Y-27178822D01*
X70889617Y-27178822D02*
X70641998Y-27178822D01*
X70641998Y-27178822D02*
X70518189Y-27235965D01*
X70518189Y-27235965D02*
X70456284Y-27293108D01*
X70456284Y-27293108D02*
X70394379Y-27407394D01*
X70394379Y-27407394D02*
X70394379Y-27750251D01*
X70394379Y-27750251D02*
X70456284Y-27864537D01*
X70456284Y-27864537D02*
X70518189Y-27921680D01*
X70518189Y-27921680D02*
X70641998Y-27978822D01*
X70641998Y-27978822D02*
X70889617Y-27978822D01*
X70889617Y-27978822D02*
X71013427Y-27921680D01*
X69651522Y-27978822D02*
X69775332Y-27921680D01*
X69775332Y-27921680D02*
X69837237Y-27864537D01*
X69837237Y-27864537D02*
X69899141Y-27750251D01*
X69899141Y-27750251D02*
X69899141Y-27407394D01*
X69899141Y-27407394D02*
X69837237Y-27293108D01*
X69837237Y-27293108D02*
X69775332Y-27235965D01*
X69775332Y-27235965D02*
X69651522Y-27178822D01*
X69651522Y-27178822D02*
X69465808Y-27178822D01*
X69465808Y-27178822D02*
X69341999Y-27235965D01*
X69341999Y-27235965D02*
X69280094Y-27293108D01*
X69280094Y-27293108D02*
X69218189Y-27407394D01*
X69218189Y-27407394D02*
X69218189Y-27750251D01*
X69218189Y-27750251D02*
X69280094Y-27864537D01*
X69280094Y-27864537D02*
X69341999Y-27921680D01*
X69341999Y-27921680D02*
X69465808Y-27978822D01*
X69465808Y-27978822D02*
X69651522Y-27978822D01*
X68846761Y-27178822D02*
X68351523Y-27178822D01*
X68661047Y-26778822D02*
X68661047Y-27807394D01*
X68661047Y-27807394D02*
X68599142Y-27921680D01*
X68599142Y-27921680D02*
X68475332Y-27978822D01*
X68475332Y-27978822D02*
X68351523Y-27978822D01*
X66927714Y-27178822D02*
X66927714Y-28378822D01*
X66927714Y-27235965D02*
X66803904Y-27178822D01*
X66803904Y-27178822D02*
X66556285Y-27178822D01*
X66556285Y-27178822D02*
X66432476Y-27235965D01*
X66432476Y-27235965D02*
X66370571Y-27293108D01*
X66370571Y-27293108D02*
X66308666Y-27407394D01*
X66308666Y-27407394D02*
X66308666Y-27750251D01*
X66308666Y-27750251D02*
X66370571Y-27864537D01*
X66370571Y-27864537D02*
X66432476Y-27921680D01*
X66432476Y-27921680D02*
X66556285Y-27978822D01*
X66556285Y-27978822D02*
X66803904Y-27978822D01*
X66803904Y-27978822D02*
X66927714Y-27921680D01*
X65194381Y-27921680D02*
X65318190Y-27978822D01*
X65318190Y-27978822D02*
X65565809Y-27978822D01*
X65565809Y-27978822D02*
X65689619Y-27921680D01*
X65689619Y-27921680D02*
X65751524Y-27864537D01*
X65751524Y-27864537D02*
X65813428Y-27750251D01*
X65813428Y-27750251D02*
X65813428Y-27407394D01*
X65813428Y-27407394D02*
X65751524Y-27293108D01*
X65751524Y-27293108D02*
X65689619Y-27235965D01*
X65689619Y-27235965D02*
X65565809Y-27178822D01*
X65565809Y-27178822D02*
X65318190Y-27178822D01*
X65318190Y-27178822D02*
X65194381Y-27235965D01*
X64637238Y-27978822D02*
X64637238Y-26778822D01*
X64637238Y-27235965D02*
X64513428Y-27178822D01*
X64513428Y-27178822D02*
X64265809Y-27178822D01*
X64265809Y-27178822D02*
X64142000Y-27235965D01*
X64142000Y-27235965D02*
X64080095Y-27293108D01*
X64080095Y-27293108D02*
X64018190Y-27407394D01*
X64018190Y-27407394D02*
X64018190Y-27750251D01*
X64018190Y-27750251D02*
X64080095Y-27864537D01*
X64080095Y-27864537D02*
X64142000Y-27921680D01*
X64142000Y-27921680D02*
X64265809Y-27978822D01*
X64265809Y-27978822D02*
X64513428Y-27978822D01*
X64513428Y-27978822D02*
X64637238Y-27921680D01*
D14*
X110296000Y-40700000D02*
X110296000Y-38100000D01*
X110296000Y-40700000D02*
X59376000Y-40700000D01*
X59376000Y-40700000D02*
X59376000Y-35500000D01*
X107696000Y-35500000D02*
X59376000Y-35500000D01*
X107696000Y-38100000D02*
X107696000Y-35500000D01*
X110296000Y-38100000D02*
X107696000Y-38100000D01*
X110296000Y-35500000D02*
X108966000Y-35500000D01*
X110296000Y-36830000D02*
X110296000Y-35500000D01*
M02*
