G04 #@! TF.GenerationSoftware,KiCad,Pcbnew,8.0.8*
G04 #@! TF.CreationDate,2025-04-06T11:28:41+01:00*
G04 #@! TF.ProjectId,flexbot_PCB07,666c6578-626f-4745-9f50-434230372e6b,rev?*
G04 #@! TF.SameCoordinates,Original*
G04 #@! TF.FileFunction,Legend,Top*
G04 #@! TF.FilePolarity,Positive*
%FSLAX46Y46*%
G04 Gerber Fmt 4.6, Leading zero omitted, Abs format (unit mm)*
G04 Created by KiCad (PCBNEW 8.0.8) date 2025-04-06 11:28:41*
%MOMM*%
%LPD*%
G01*
G04 APERTURE LIST*
%ADD10C,0.100000*%
%ADD11C,0.120000*%
%ADD12C,0.150000*%
G04 APERTURE END LIST*
D10*
X76892190Y-33473847D02*
X77006476Y-33511942D01*
X77006476Y-33511942D02*
X77044571Y-33550038D01*
X77044571Y-33550038D02*
X77082667Y-33626228D01*
X77082667Y-33626228D02*
X77082667Y-33740514D01*
X77082667Y-33740514D02*
X77044571Y-33816704D01*
X77044571Y-33816704D02*
X77006476Y-33854800D01*
X77006476Y-33854800D02*
X76930286Y-33892895D01*
X76930286Y-33892895D02*
X76625524Y-33892895D01*
X76625524Y-33892895D02*
X76625524Y-33092895D01*
X76625524Y-33092895D02*
X76892190Y-33092895D01*
X76892190Y-33092895D02*
X76968381Y-33130990D01*
X76968381Y-33130990D02*
X77006476Y-33169085D01*
X77006476Y-33169085D02*
X77044571Y-33245276D01*
X77044571Y-33245276D02*
X77044571Y-33321466D01*
X77044571Y-33321466D02*
X77006476Y-33397657D01*
X77006476Y-33397657D02*
X76968381Y-33435752D01*
X76968381Y-33435752D02*
X76892190Y-33473847D01*
X76892190Y-33473847D02*
X76625524Y-33473847D01*
X77844571Y-33892895D02*
X77387428Y-33892895D01*
X77616000Y-33892895D02*
X77616000Y-33092895D01*
X77616000Y-33092895D02*
X77539809Y-33207180D01*
X77539809Y-33207180D02*
X77463619Y-33283371D01*
X77463619Y-33283371D02*
X77387428Y-33321466D01*
X59563712Y-45361085D02*
X59601808Y-45322990D01*
X59601808Y-45322990D02*
X59677998Y-45284895D01*
X59677998Y-45284895D02*
X59868474Y-45284895D01*
X59868474Y-45284895D02*
X59944665Y-45322990D01*
X59944665Y-45322990D02*
X59982760Y-45361085D01*
X59982760Y-45361085D02*
X60020855Y-45437276D01*
X60020855Y-45437276D02*
X60020855Y-45513466D01*
X60020855Y-45513466D02*
X59982760Y-45627752D01*
X59982760Y-45627752D02*
X59525617Y-46084895D01*
X59525617Y-46084895D02*
X60020855Y-46084895D01*
X60782760Y-46084895D02*
X60325617Y-46084895D01*
X60554189Y-46084895D02*
X60554189Y-45284895D01*
X60554189Y-45284895D02*
X60477998Y-45399180D01*
X60477998Y-45399180D02*
X60401808Y-45475371D01*
X60401808Y-45475371D02*
X60325617Y-45513466D01*
X62306570Y-45361085D02*
X62344666Y-45322990D01*
X62344666Y-45322990D02*
X62420856Y-45284895D01*
X62420856Y-45284895D02*
X62611332Y-45284895D01*
X62611332Y-45284895D02*
X62687523Y-45322990D01*
X62687523Y-45322990D02*
X62725618Y-45361085D01*
X62725618Y-45361085D02*
X62763713Y-45437276D01*
X62763713Y-45437276D02*
X62763713Y-45513466D01*
X62763713Y-45513466D02*
X62725618Y-45627752D01*
X62725618Y-45627752D02*
X62268475Y-46084895D01*
X62268475Y-46084895D02*
X62763713Y-46084895D01*
X63258952Y-45284895D02*
X63335142Y-45284895D01*
X63335142Y-45284895D02*
X63411333Y-45322990D01*
X63411333Y-45322990D02*
X63449428Y-45361085D01*
X63449428Y-45361085D02*
X63487523Y-45437276D01*
X63487523Y-45437276D02*
X63525618Y-45589657D01*
X63525618Y-45589657D02*
X63525618Y-45780133D01*
X63525618Y-45780133D02*
X63487523Y-45932514D01*
X63487523Y-45932514D02*
X63449428Y-46008704D01*
X63449428Y-46008704D02*
X63411333Y-46046800D01*
X63411333Y-46046800D02*
X63335142Y-46084895D01*
X63335142Y-46084895D02*
X63258952Y-46084895D01*
X63258952Y-46084895D02*
X63182761Y-46046800D01*
X63182761Y-46046800D02*
X63144666Y-46008704D01*
X63144666Y-46008704D02*
X63106571Y-45932514D01*
X63106571Y-45932514D02*
X63068475Y-45780133D01*
X63068475Y-45780133D02*
X63068475Y-45589657D01*
X63068475Y-45589657D02*
X63106571Y-45437276D01*
X63106571Y-45437276D02*
X63144666Y-45361085D01*
X63144666Y-45361085D02*
X63182761Y-45322990D01*
X63182761Y-45322990D02*
X63258952Y-45284895D01*
X65506571Y-46084895D02*
X65049428Y-46084895D01*
X65278000Y-46084895D02*
X65278000Y-45284895D01*
X65278000Y-45284895D02*
X65201809Y-45399180D01*
X65201809Y-45399180D02*
X65125619Y-45475371D01*
X65125619Y-45475371D02*
X65049428Y-45513466D01*
X66192286Y-45284895D02*
X66039905Y-45284895D01*
X66039905Y-45284895D02*
X65963714Y-45322990D01*
X65963714Y-45322990D02*
X65925619Y-45361085D01*
X65925619Y-45361085D02*
X65849429Y-45475371D01*
X65849429Y-45475371D02*
X65811333Y-45627752D01*
X65811333Y-45627752D02*
X65811333Y-45932514D01*
X65811333Y-45932514D02*
X65849429Y-46008704D01*
X65849429Y-46008704D02*
X65887524Y-46046800D01*
X65887524Y-46046800D02*
X65963714Y-46084895D01*
X65963714Y-46084895D02*
X66116095Y-46084895D01*
X66116095Y-46084895D02*
X66192286Y-46046800D01*
X66192286Y-46046800D02*
X66230381Y-46008704D01*
X66230381Y-46008704D02*
X66268476Y-45932514D01*
X66268476Y-45932514D02*
X66268476Y-45742038D01*
X66268476Y-45742038D02*
X66230381Y-45665847D01*
X66230381Y-45665847D02*
X66192286Y-45627752D01*
X66192286Y-45627752D02*
X66116095Y-45589657D01*
X66116095Y-45589657D02*
X65963714Y-45589657D01*
X65963714Y-45589657D02*
X65887524Y-45627752D01*
X65887524Y-45627752D02*
X65849429Y-45665847D01*
X65849429Y-45665847D02*
X65811333Y-45742038D01*
X68249429Y-46084895D02*
X67792286Y-46084895D01*
X68020858Y-46084895D02*
X68020858Y-45284895D01*
X68020858Y-45284895D02*
X67944667Y-45399180D01*
X67944667Y-45399180D02*
X67868477Y-45475371D01*
X67868477Y-45475371D02*
X67792286Y-45513466D01*
X68554191Y-45361085D02*
X68592287Y-45322990D01*
X68592287Y-45322990D02*
X68668477Y-45284895D01*
X68668477Y-45284895D02*
X68858953Y-45284895D01*
X68858953Y-45284895D02*
X68935144Y-45322990D01*
X68935144Y-45322990D02*
X68973239Y-45361085D01*
X68973239Y-45361085D02*
X69011334Y-45437276D01*
X69011334Y-45437276D02*
X69011334Y-45513466D01*
X69011334Y-45513466D02*
X68973239Y-45627752D01*
X68973239Y-45627752D02*
X68516096Y-46084895D01*
X68516096Y-46084895D02*
X69011334Y-46084895D01*
X70497049Y-45284895D02*
X71030383Y-45284895D01*
X71030383Y-45284895D02*
X70687525Y-46084895D01*
X75266761Y-45322990D02*
X75190571Y-45284895D01*
X75190571Y-45284895D02*
X75076285Y-45284895D01*
X75076285Y-45284895D02*
X74961999Y-45322990D01*
X74961999Y-45322990D02*
X74885809Y-45399180D01*
X74885809Y-45399180D02*
X74847714Y-45475371D01*
X74847714Y-45475371D02*
X74809618Y-45627752D01*
X74809618Y-45627752D02*
X74809618Y-45742038D01*
X74809618Y-45742038D02*
X74847714Y-45894419D01*
X74847714Y-45894419D02*
X74885809Y-45970609D01*
X74885809Y-45970609D02*
X74961999Y-46046800D01*
X74961999Y-46046800D02*
X75076285Y-46084895D01*
X75076285Y-46084895D02*
X75152476Y-46084895D01*
X75152476Y-46084895D02*
X75266761Y-46046800D01*
X75266761Y-46046800D02*
X75304857Y-46008704D01*
X75304857Y-46008704D02*
X75304857Y-45742038D01*
X75304857Y-45742038D02*
X75152476Y-45742038D01*
X75647714Y-46084895D02*
X75647714Y-45284895D01*
X75647714Y-45284895D02*
X76104857Y-46084895D01*
X76104857Y-46084895D02*
X76104857Y-45284895D01*
X76485809Y-46084895D02*
X76485809Y-45284895D01*
X76485809Y-45284895D02*
X76676285Y-45284895D01*
X76676285Y-45284895D02*
X76790571Y-45322990D01*
X76790571Y-45322990D02*
X76866761Y-45399180D01*
X76866761Y-45399180D02*
X76904856Y-45475371D01*
X76904856Y-45475371D02*
X76942952Y-45627752D01*
X76942952Y-45627752D02*
X76942952Y-45742038D01*
X76942952Y-45742038D02*
X76904856Y-45894419D01*
X76904856Y-45894419D02*
X76866761Y-45970609D01*
X76866761Y-45970609D02*
X76790571Y-46046800D01*
X76790571Y-46046800D02*
X76676285Y-46084895D01*
X76676285Y-46084895D02*
X76485809Y-46084895D01*
X78161999Y-45665847D02*
X78276285Y-45703942D01*
X78276285Y-45703942D02*
X78314380Y-45742038D01*
X78314380Y-45742038D02*
X78352476Y-45818228D01*
X78352476Y-45818228D02*
X78352476Y-45932514D01*
X78352476Y-45932514D02*
X78314380Y-46008704D01*
X78314380Y-46008704D02*
X78276285Y-46046800D01*
X78276285Y-46046800D02*
X78200095Y-46084895D01*
X78200095Y-46084895D02*
X77895333Y-46084895D01*
X77895333Y-46084895D02*
X77895333Y-45284895D01*
X77895333Y-45284895D02*
X78161999Y-45284895D01*
X78161999Y-45284895D02*
X78238190Y-45322990D01*
X78238190Y-45322990D02*
X78276285Y-45361085D01*
X78276285Y-45361085D02*
X78314380Y-45437276D01*
X78314380Y-45437276D02*
X78314380Y-45513466D01*
X78314380Y-45513466D02*
X78276285Y-45589657D01*
X78276285Y-45589657D02*
X78238190Y-45627752D01*
X78238190Y-45627752D02*
X78161999Y-45665847D01*
X78161999Y-45665847D02*
X77895333Y-45665847D01*
X78657237Y-45361085D02*
X78695333Y-45322990D01*
X78695333Y-45322990D02*
X78771523Y-45284895D01*
X78771523Y-45284895D02*
X78961999Y-45284895D01*
X78961999Y-45284895D02*
X79038190Y-45322990D01*
X79038190Y-45322990D02*
X79076285Y-45361085D01*
X79076285Y-45361085D02*
X79114380Y-45437276D01*
X79114380Y-45437276D02*
X79114380Y-45513466D01*
X79114380Y-45513466D02*
X79076285Y-45627752D01*
X79076285Y-45627752D02*
X78619142Y-46084895D01*
X78619142Y-46084895D02*
X79114380Y-46084895D01*
X82773141Y-46046800D02*
X82696950Y-46084895D01*
X82696950Y-46084895D02*
X82544569Y-46084895D01*
X82544569Y-46084895D02*
X82468379Y-46046800D01*
X82468379Y-46046800D02*
X82430283Y-45970609D01*
X82430283Y-45970609D02*
X82430283Y-45665847D01*
X82430283Y-45665847D02*
X82468379Y-45589657D01*
X82468379Y-45589657D02*
X82544569Y-45551561D01*
X82544569Y-45551561D02*
X82696950Y-45551561D01*
X82696950Y-45551561D02*
X82773141Y-45589657D01*
X82773141Y-45589657D02*
X82811236Y-45665847D01*
X82811236Y-45665847D02*
X82811236Y-45742038D01*
X82811236Y-45742038D02*
X82430283Y-45818228D01*
X83154093Y-45551561D02*
X83154093Y-46084895D01*
X83154093Y-45627752D02*
X83192188Y-45589657D01*
X83192188Y-45589657D02*
X83268378Y-45551561D01*
X83268378Y-45551561D02*
X83382664Y-45551561D01*
X83382664Y-45551561D02*
X83458855Y-45589657D01*
X83458855Y-45589657D02*
X83496950Y-45665847D01*
X83496950Y-45665847D02*
X83496950Y-46084895D01*
X84144569Y-45665847D02*
X84258855Y-45703942D01*
X84258855Y-45703942D02*
X84296950Y-45742038D01*
X84296950Y-45742038D02*
X84335046Y-45818228D01*
X84335046Y-45818228D02*
X84335046Y-45932514D01*
X84335046Y-45932514D02*
X84296950Y-46008704D01*
X84296950Y-46008704D02*
X84258855Y-46046800D01*
X84258855Y-46046800D02*
X84182665Y-46084895D01*
X84182665Y-46084895D02*
X83877903Y-46084895D01*
X83877903Y-46084895D02*
X83877903Y-45284895D01*
X83877903Y-45284895D02*
X84144569Y-45284895D01*
X84144569Y-45284895D02*
X84220760Y-45322990D01*
X84220760Y-45322990D02*
X84258855Y-45361085D01*
X84258855Y-45361085D02*
X84296950Y-45437276D01*
X84296950Y-45437276D02*
X84296950Y-45513466D01*
X84296950Y-45513466D02*
X84258855Y-45589657D01*
X84258855Y-45589657D02*
X84220760Y-45627752D01*
X84220760Y-45627752D02*
X84144569Y-45665847D01*
X84144569Y-45665847D02*
X83877903Y-45665847D01*
X86239808Y-45551561D02*
X86239808Y-46084895D01*
X86049332Y-45246800D02*
X85858855Y-45818228D01*
X85858855Y-45818228D02*
X86354094Y-45818228D01*
X88411237Y-45284895D02*
X88906475Y-45284895D01*
X88906475Y-45284895D02*
X88639809Y-45589657D01*
X88639809Y-45589657D02*
X88754094Y-45589657D01*
X88754094Y-45589657D02*
X88830285Y-45627752D01*
X88830285Y-45627752D02*
X88868380Y-45665847D01*
X88868380Y-45665847D02*
X88906475Y-45742038D01*
X88906475Y-45742038D02*
X88906475Y-45932514D01*
X88906475Y-45932514D02*
X88868380Y-46008704D01*
X88868380Y-46008704D02*
X88830285Y-46046800D01*
X88830285Y-46046800D02*
X88754094Y-46084895D01*
X88754094Y-46084895D02*
X88525523Y-46084895D01*
X88525523Y-46084895D02*
X88449332Y-46046800D01*
X88449332Y-46046800D02*
X88411237Y-46008704D01*
X91039809Y-45361085D02*
X91077905Y-45322990D01*
X91077905Y-45322990D02*
X91154095Y-45284895D01*
X91154095Y-45284895D02*
X91344571Y-45284895D01*
X91344571Y-45284895D02*
X91420762Y-45322990D01*
X91420762Y-45322990D02*
X91458857Y-45361085D01*
X91458857Y-45361085D02*
X91496952Y-45437276D01*
X91496952Y-45437276D02*
X91496952Y-45513466D01*
X91496952Y-45513466D02*
X91458857Y-45627752D01*
X91458857Y-45627752D02*
X91001714Y-46084895D01*
X91001714Y-46084895D02*
X91496952Y-46084895D01*
X94087429Y-46084895D02*
X93630286Y-46084895D01*
X93858858Y-46084895D02*
X93858858Y-45284895D01*
X93858858Y-45284895D02*
X93782667Y-45399180D01*
X93782667Y-45399180D02*
X93706477Y-45475371D01*
X93706477Y-45475371D02*
X93630286Y-45513466D01*
X95954097Y-46046800D02*
X95877906Y-46084895D01*
X95877906Y-46084895D02*
X95725525Y-46084895D01*
X95725525Y-46084895D02*
X95649335Y-46046800D01*
X95649335Y-46046800D02*
X95611239Y-45970609D01*
X95611239Y-45970609D02*
X95611239Y-45665847D01*
X95611239Y-45665847D02*
X95649335Y-45589657D01*
X95649335Y-45589657D02*
X95725525Y-45551561D01*
X95725525Y-45551561D02*
X95877906Y-45551561D01*
X95877906Y-45551561D02*
X95954097Y-45589657D01*
X95954097Y-45589657D02*
X95992192Y-45665847D01*
X95992192Y-45665847D02*
X95992192Y-45742038D01*
X95992192Y-45742038D02*
X95611239Y-45818228D01*
X96335049Y-45551561D02*
X96335049Y-46084895D01*
X96335049Y-45627752D02*
X96373144Y-45589657D01*
X96373144Y-45589657D02*
X96449334Y-45551561D01*
X96449334Y-45551561D02*
X96563620Y-45551561D01*
X96563620Y-45551561D02*
X96639811Y-45589657D01*
X96639811Y-45589657D02*
X96677906Y-45665847D01*
X96677906Y-45665847D02*
X96677906Y-46084895D01*
X97020763Y-45856323D02*
X97401716Y-45856323D01*
X96944573Y-46084895D02*
X97211240Y-45284895D01*
X97211240Y-45284895D02*
X97477906Y-46084895D01*
X109284633Y-44446666D02*
X108584633Y-44446666D01*
X108584633Y-44446666D02*
X108584633Y-44179999D01*
X108584633Y-44179999D02*
X108617966Y-44113333D01*
X108617966Y-44113333D02*
X108651300Y-44079999D01*
X108651300Y-44079999D02*
X108717966Y-44046666D01*
X108717966Y-44046666D02*
X108817966Y-44046666D01*
X108817966Y-44046666D02*
X108884633Y-44079999D01*
X108884633Y-44079999D02*
X108917966Y-44113333D01*
X108917966Y-44113333D02*
X108951300Y-44179999D01*
X108951300Y-44179999D02*
X108951300Y-44446666D01*
X108584633Y-43813333D02*
X109284633Y-43646666D01*
X109284633Y-43646666D02*
X108784633Y-43513333D01*
X108784633Y-43513333D02*
X109284633Y-43379999D01*
X109284633Y-43379999D02*
X108584633Y-43213333D01*
X109284633Y-42546666D02*
X108951300Y-42779999D01*
X109284633Y-42946666D02*
X108584633Y-42946666D01*
X108584633Y-42946666D02*
X108584633Y-42679999D01*
X108584633Y-42679999D02*
X108617966Y-42613333D01*
X108617966Y-42613333D02*
X108651300Y-42579999D01*
X108651300Y-42579999D02*
X108717966Y-42546666D01*
X108717966Y-42546666D02*
X108817966Y-42546666D01*
X108817966Y-42546666D02*
X108884633Y-42579999D01*
X108884633Y-42579999D02*
X108917966Y-42613333D01*
X108917966Y-42613333D02*
X108951300Y-42679999D01*
X108951300Y-42679999D02*
X108951300Y-42946666D01*
X108584633Y-42313333D02*
X108584633Y-41879999D01*
X108584633Y-41879999D02*
X108851300Y-42113333D01*
X108851300Y-42113333D02*
X108851300Y-42013333D01*
X108851300Y-42013333D02*
X108884633Y-41946666D01*
X108884633Y-41946666D02*
X108917966Y-41913333D01*
X108917966Y-41913333D02*
X108984633Y-41879999D01*
X108984633Y-41879999D02*
X109151300Y-41879999D01*
X109151300Y-41879999D02*
X109217966Y-41913333D01*
X109217966Y-41913333D02*
X109251300Y-41946666D01*
X109251300Y-41946666D02*
X109284633Y-42013333D01*
X109284633Y-42013333D02*
X109284633Y-42213333D01*
X109284633Y-42213333D02*
X109251300Y-42279999D01*
X109251300Y-42279999D02*
X109217966Y-42313333D01*
X110300633Y-20316666D02*
X109600633Y-20316666D01*
X109600633Y-20316666D02*
X109600633Y-20049999D01*
X109600633Y-20049999D02*
X109633966Y-19983333D01*
X109633966Y-19983333D02*
X109667300Y-19949999D01*
X109667300Y-19949999D02*
X109733966Y-19916666D01*
X109733966Y-19916666D02*
X109833966Y-19916666D01*
X109833966Y-19916666D02*
X109900633Y-19949999D01*
X109900633Y-19949999D02*
X109933966Y-19983333D01*
X109933966Y-19983333D02*
X109967300Y-20049999D01*
X109967300Y-20049999D02*
X109967300Y-20316666D01*
X109600633Y-19683333D02*
X110300633Y-19516666D01*
X110300633Y-19516666D02*
X109800633Y-19383333D01*
X109800633Y-19383333D02*
X110300633Y-19249999D01*
X110300633Y-19249999D02*
X109600633Y-19083333D01*
X110300633Y-18416666D02*
X109967300Y-18649999D01*
X110300633Y-18816666D02*
X109600633Y-18816666D01*
X109600633Y-18816666D02*
X109600633Y-18549999D01*
X109600633Y-18549999D02*
X109633966Y-18483333D01*
X109633966Y-18483333D02*
X109667300Y-18449999D01*
X109667300Y-18449999D02*
X109733966Y-18416666D01*
X109733966Y-18416666D02*
X109833966Y-18416666D01*
X109833966Y-18416666D02*
X109900633Y-18449999D01*
X109900633Y-18449999D02*
X109933966Y-18483333D01*
X109933966Y-18483333D02*
X109967300Y-18549999D01*
X109967300Y-18549999D02*
X109967300Y-18816666D01*
X109667300Y-18149999D02*
X109633966Y-18116666D01*
X109633966Y-18116666D02*
X109600633Y-18049999D01*
X109600633Y-18049999D02*
X109600633Y-17883333D01*
X109600633Y-17883333D02*
X109633966Y-17816666D01*
X109633966Y-17816666D02*
X109667300Y-17783333D01*
X109667300Y-17783333D02*
X109733966Y-17749999D01*
X109733966Y-17749999D02*
X109800633Y-17749999D01*
X109800633Y-17749999D02*
X109900633Y-17783333D01*
X109900633Y-17783333D02*
X110300633Y-18183333D01*
X110300633Y-18183333D02*
X110300633Y-17749999D01*
X99632633Y-20316666D02*
X98932633Y-20316666D01*
X98932633Y-20316666D02*
X98932633Y-20049999D01*
X98932633Y-20049999D02*
X98965966Y-19983333D01*
X98965966Y-19983333D02*
X98999300Y-19949999D01*
X98999300Y-19949999D02*
X99065966Y-19916666D01*
X99065966Y-19916666D02*
X99165966Y-19916666D01*
X99165966Y-19916666D02*
X99232633Y-19949999D01*
X99232633Y-19949999D02*
X99265966Y-19983333D01*
X99265966Y-19983333D02*
X99299300Y-20049999D01*
X99299300Y-20049999D02*
X99299300Y-20316666D01*
X98932633Y-19683333D02*
X99632633Y-19516666D01*
X99632633Y-19516666D02*
X99132633Y-19383333D01*
X99132633Y-19383333D02*
X99632633Y-19249999D01*
X99632633Y-19249999D02*
X98932633Y-19083333D01*
X99632633Y-18416666D02*
X99299300Y-18649999D01*
X99632633Y-18816666D02*
X98932633Y-18816666D01*
X98932633Y-18816666D02*
X98932633Y-18549999D01*
X98932633Y-18549999D02*
X98965966Y-18483333D01*
X98965966Y-18483333D02*
X98999300Y-18449999D01*
X98999300Y-18449999D02*
X99065966Y-18416666D01*
X99065966Y-18416666D02*
X99165966Y-18416666D01*
X99165966Y-18416666D02*
X99232633Y-18449999D01*
X99232633Y-18449999D02*
X99265966Y-18483333D01*
X99265966Y-18483333D02*
X99299300Y-18549999D01*
X99299300Y-18549999D02*
X99299300Y-18816666D01*
X99632633Y-17749999D02*
X99632633Y-18149999D01*
X99632633Y-17949999D02*
X98932633Y-17949999D01*
X98932633Y-17949999D02*
X99032633Y-18016666D01*
X99032633Y-18016666D02*
X99099300Y-18083333D01*
X99099300Y-18083333D02*
X99132633Y-18149999D01*
X78162667Y-21187966D02*
X78162667Y-21654633D01*
X77862667Y-21187966D02*
X77862667Y-21554633D01*
X77862667Y-21554633D02*
X77896001Y-21621300D01*
X77896001Y-21621300D02*
X77962667Y-21654633D01*
X77962667Y-21654633D02*
X78062667Y-21654633D01*
X78062667Y-21654633D02*
X78129334Y-21621300D01*
X78129334Y-21621300D02*
X78162667Y-21587966D01*
X78596000Y-21654633D02*
X78529334Y-21621300D01*
X78529334Y-21621300D02*
X78496000Y-21554633D01*
X78496000Y-21554633D02*
X78496000Y-20954633D01*
X78762667Y-21187966D02*
X79029334Y-21187966D01*
X78862667Y-20954633D02*
X78862667Y-21554633D01*
X78862667Y-21554633D02*
X78896001Y-21621300D01*
X78896001Y-21621300D02*
X78962667Y-21654633D01*
X78962667Y-21654633D02*
X79029334Y-21654633D01*
X79262667Y-21654633D02*
X79262667Y-21187966D01*
X79262667Y-21321300D02*
X79296001Y-21254633D01*
X79296001Y-21254633D02*
X79329334Y-21221300D01*
X79329334Y-21221300D02*
X79396001Y-21187966D01*
X79396001Y-21187966D02*
X79462667Y-21187966D01*
X79996000Y-21654633D02*
X79996000Y-21287966D01*
X79996000Y-21287966D02*
X79962667Y-21221300D01*
X79962667Y-21221300D02*
X79896000Y-21187966D01*
X79896000Y-21187966D02*
X79762667Y-21187966D01*
X79762667Y-21187966D02*
X79696000Y-21221300D01*
X79996000Y-21621300D02*
X79929334Y-21654633D01*
X79929334Y-21654633D02*
X79762667Y-21654633D01*
X79762667Y-21654633D02*
X79696000Y-21621300D01*
X79696000Y-21621300D02*
X79662667Y-21554633D01*
X79662667Y-21554633D02*
X79662667Y-21487966D01*
X79662667Y-21487966D02*
X79696000Y-21421300D01*
X79696000Y-21421300D02*
X79762667Y-21387966D01*
X79762667Y-21387966D02*
X79929334Y-21387966D01*
X79929334Y-21387966D02*
X79996000Y-21354633D01*
X80296000Y-21621300D02*
X80362667Y-21654633D01*
X80362667Y-21654633D02*
X80496000Y-21654633D01*
X80496000Y-21654633D02*
X80562667Y-21621300D01*
X80562667Y-21621300D02*
X80596000Y-21554633D01*
X80596000Y-21554633D02*
X80596000Y-21521300D01*
X80596000Y-21521300D02*
X80562667Y-21454633D01*
X80562667Y-21454633D02*
X80496000Y-21421300D01*
X80496000Y-21421300D02*
X80396000Y-21421300D01*
X80396000Y-21421300D02*
X80329333Y-21387966D01*
X80329333Y-21387966D02*
X80296000Y-21321300D01*
X80296000Y-21321300D02*
X80296000Y-21287966D01*
X80296000Y-21287966D02*
X80329333Y-21221300D01*
X80329333Y-21221300D02*
X80396000Y-21187966D01*
X80396000Y-21187966D02*
X80496000Y-21187966D01*
X80496000Y-21187966D02*
X80562667Y-21221300D01*
X80996000Y-21654633D02*
X80929334Y-21621300D01*
X80929334Y-21621300D02*
X80896000Y-21587966D01*
X80896000Y-21587966D02*
X80862667Y-21521300D01*
X80862667Y-21521300D02*
X80862667Y-21321300D01*
X80862667Y-21321300D02*
X80896000Y-21254633D01*
X80896000Y-21254633D02*
X80929334Y-21221300D01*
X80929334Y-21221300D02*
X80996000Y-21187966D01*
X80996000Y-21187966D02*
X81096000Y-21187966D01*
X81096000Y-21187966D02*
X81162667Y-21221300D01*
X81162667Y-21221300D02*
X81196000Y-21254633D01*
X81196000Y-21254633D02*
X81229334Y-21321300D01*
X81229334Y-21321300D02*
X81229334Y-21521300D01*
X81229334Y-21521300D02*
X81196000Y-21587966D01*
X81196000Y-21587966D02*
X81162667Y-21621300D01*
X81162667Y-21621300D02*
X81096000Y-21654633D01*
X81096000Y-21654633D02*
X80996000Y-21654633D01*
X81529333Y-21187966D02*
X81529333Y-21654633D01*
X81529333Y-21254633D02*
X81562667Y-21221300D01*
X81562667Y-21221300D02*
X81629333Y-21187966D01*
X81629333Y-21187966D02*
X81729333Y-21187966D01*
X81729333Y-21187966D02*
X81796000Y-21221300D01*
X81796000Y-21221300D02*
X81829333Y-21287966D01*
X81829333Y-21287966D02*
X81829333Y-21654633D01*
X82162666Y-21654633D02*
X82162666Y-21187966D01*
X82162666Y-20954633D02*
X82129333Y-20987966D01*
X82129333Y-20987966D02*
X82162666Y-21021300D01*
X82162666Y-21021300D02*
X82196000Y-20987966D01*
X82196000Y-20987966D02*
X82162666Y-20954633D01*
X82162666Y-20954633D02*
X82162666Y-21021300D01*
X82795999Y-21621300D02*
X82729333Y-21654633D01*
X82729333Y-21654633D02*
X82595999Y-21654633D01*
X82595999Y-21654633D02*
X82529333Y-21621300D01*
X82529333Y-21621300D02*
X82495999Y-21587966D01*
X82495999Y-21587966D02*
X82462666Y-21521300D01*
X82462666Y-21521300D02*
X82462666Y-21321300D01*
X82462666Y-21321300D02*
X82495999Y-21254633D01*
X82495999Y-21254633D02*
X82529333Y-21221300D01*
X82529333Y-21221300D02*
X82595999Y-21187966D01*
X82595999Y-21187966D02*
X82729333Y-21187966D01*
X82729333Y-21187966D02*
X82795999Y-21221300D01*
X83595999Y-21621300D02*
X83662666Y-21654633D01*
X83662666Y-21654633D02*
X83795999Y-21654633D01*
X83795999Y-21654633D02*
X83862666Y-21621300D01*
X83862666Y-21621300D02*
X83895999Y-21554633D01*
X83895999Y-21554633D02*
X83895999Y-21521300D01*
X83895999Y-21521300D02*
X83862666Y-21454633D01*
X83862666Y-21454633D02*
X83795999Y-21421300D01*
X83795999Y-21421300D02*
X83695999Y-21421300D01*
X83695999Y-21421300D02*
X83629332Y-21387966D01*
X83629332Y-21387966D02*
X83595999Y-21321300D01*
X83595999Y-21321300D02*
X83595999Y-21287966D01*
X83595999Y-21287966D02*
X83629332Y-21221300D01*
X83629332Y-21221300D02*
X83695999Y-21187966D01*
X83695999Y-21187966D02*
X83795999Y-21187966D01*
X83795999Y-21187966D02*
X83862666Y-21221300D01*
X84462666Y-21621300D02*
X84395999Y-21654633D01*
X84395999Y-21654633D02*
X84262666Y-21654633D01*
X84262666Y-21654633D02*
X84195999Y-21621300D01*
X84195999Y-21621300D02*
X84162666Y-21554633D01*
X84162666Y-21554633D02*
X84162666Y-21287966D01*
X84162666Y-21287966D02*
X84195999Y-21221300D01*
X84195999Y-21221300D02*
X84262666Y-21187966D01*
X84262666Y-21187966D02*
X84395999Y-21187966D01*
X84395999Y-21187966D02*
X84462666Y-21221300D01*
X84462666Y-21221300D02*
X84495999Y-21287966D01*
X84495999Y-21287966D02*
X84495999Y-21354633D01*
X84495999Y-21354633D02*
X84162666Y-21421300D01*
X84795999Y-21187966D02*
X84795999Y-21654633D01*
X84795999Y-21254633D02*
X84829333Y-21221300D01*
X84829333Y-21221300D02*
X84895999Y-21187966D01*
X84895999Y-21187966D02*
X84995999Y-21187966D01*
X84995999Y-21187966D02*
X85062666Y-21221300D01*
X85062666Y-21221300D02*
X85095999Y-21287966D01*
X85095999Y-21287966D02*
X85095999Y-21654633D01*
X85395999Y-21621300D02*
X85462666Y-21654633D01*
X85462666Y-21654633D02*
X85595999Y-21654633D01*
X85595999Y-21654633D02*
X85662666Y-21621300D01*
X85662666Y-21621300D02*
X85695999Y-21554633D01*
X85695999Y-21554633D02*
X85695999Y-21521300D01*
X85695999Y-21521300D02*
X85662666Y-21454633D01*
X85662666Y-21454633D02*
X85595999Y-21421300D01*
X85595999Y-21421300D02*
X85495999Y-21421300D01*
X85495999Y-21421300D02*
X85429332Y-21387966D01*
X85429332Y-21387966D02*
X85395999Y-21321300D01*
X85395999Y-21321300D02*
X85395999Y-21287966D01*
X85395999Y-21287966D02*
X85429332Y-21221300D01*
X85429332Y-21221300D02*
X85495999Y-21187966D01*
X85495999Y-21187966D02*
X85595999Y-21187966D01*
X85595999Y-21187966D02*
X85662666Y-21221300D01*
X86095999Y-21654633D02*
X86029333Y-21621300D01*
X86029333Y-21621300D02*
X85995999Y-21587966D01*
X85995999Y-21587966D02*
X85962666Y-21521300D01*
X85962666Y-21521300D02*
X85962666Y-21321300D01*
X85962666Y-21321300D02*
X85995999Y-21254633D01*
X85995999Y-21254633D02*
X86029333Y-21221300D01*
X86029333Y-21221300D02*
X86095999Y-21187966D01*
X86095999Y-21187966D02*
X86195999Y-21187966D01*
X86195999Y-21187966D02*
X86262666Y-21221300D01*
X86262666Y-21221300D02*
X86295999Y-21254633D01*
X86295999Y-21254633D02*
X86329333Y-21321300D01*
X86329333Y-21321300D02*
X86329333Y-21521300D01*
X86329333Y-21521300D02*
X86295999Y-21587966D01*
X86295999Y-21587966D02*
X86262666Y-21621300D01*
X86262666Y-21621300D02*
X86195999Y-21654633D01*
X86195999Y-21654633D02*
X86095999Y-21654633D01*
X86629332Y-21654633D02*
X86629332Y-21187966D01*
X86629332Y-21321300D02*
X86662666Y-21254633D01*
X86662666Y-21254633D02*
X86695999Y-21221300D01*
X86695999Y-21221300D02*
X86762666Y-21187966D01*
X86762666Y-21187966D02*
X86829332Y-21187966D01*
X101173334Y-45338633D02*
X100840000Y-45338633D01*
X100840000Y-45338633D02*
X100806667Y-45671966D01*
X100806667Y-45671966D02*
X100840000Y-45638633D01*
X100840000Y-45638633D02*
X100906667Y-45605300D01*
X100906667Y-45605300D02*
X101073334Y-45605300D01*
X101073334Y-45605300D02*
X101140000Y-45638633D01*
X101140000Y-45638633D02*
X101173334Y-45671966D01*
X101173334Y-45671966D02*
X101206667Y-45738633D01*
X101206667Y-45738633D02*
X101206667Y-45905300D01*
X101206667Y-45905300D02*
X101173334Y-45971966D01*
X101173334Y-45971966D02*
X101140000Y-46005300D01*
X101140000Y-46005300D02*
X101073334Y-46038633D01*
X101073334Y-46038633D02*
X100906667Y-46038633D01*
X100906667Y-46038633D02*
X100840000Y-46005300D01*
X100840000Y-46005300D02*
X100806667Y-45971966D01*
X101406667Y-45338633D02*
X101640001Y-46038633D01*
X101640001Y-46038633D02*
X101873334Y-45338633D01*
X103540000Y-45371966D02*
X103473333Y-45338633D01*
X103473333Y-45338633D02*
X103373333Y-45338633D01*
X103373333Y-45338633D02*
X103273333Y-45371966D01*
X103273333Y-45371966D02*
X103206667Y-45438633D01*
X103206667Y-45438633D02*
X103173333Y-45505300D01*
X103173333Y-45505300D02*
X103140000Y-45638633D01*
X103140000Y-45638633D02*
X103140000Y-45738633D01*
X103140000Y-45738633D02*
X103173333Y-45871966D01*
X103173333Y-45871966D02*
X103206667Y-45938633D01*
X103206667Y-45938633D02*
X103273333Y-46005300D01*
X103273333Y-46005300D02*
X103373333Y-46038633D01*
X103373333Y-46038633D02*
X103440000Y-46038633D01*
X103440000Y-46038633D02*
X103540000Y-46005300D01*
X103540000Y-46005300D02*
X103573333Y-45971966D01*
X103573333Y-45971966D02*
X103573333Y-45738633D01*
X103573333Y-45738633D02*
X103440000Y-45738633D01*
X103873333Y-46038633D02*
X103873333Y-45338633D01*
X103873333Y-45338633D02*
X104273333Y-46038633D01*
X104273333Y-46038633D02*
X104273333Y-45338633D01*
X104606666Y-46038633D02*
X104606666Y-45338633D01*
X104606666Y-45338633D02*
X104773333Y-45338633D01*
X104773333Y-45338633D02*
X104873333Y-45371966D01*
X104873333Y-45371966D02*
X104940000Y-45438633D01*
X104940000Y-45438633D02*
X104973333Y-45505300D01*
X104973333Y-45505300D02*
X105006666Y-45638633D01*
X105006666Y-45638633D02*
X105006666Y-45738633D01*
X105006666Y-45738633D02*
X104973333Y-45871966D01*
X104973333Y-45871966D02*
X104940000Y-45938633D01*
X104940000Y-45938633D02*
X104873333Y-46005300D01*
X104873333Y-46005300D02*
X104773333Y-46038633D01*
X104773333Y-46038633D02*
X104606666Y-46038633D01*
X105773333Y-45338633D02*
X106206666Y-45338633D01*
X106206666Y-45338633D02*
X105973333Y-45605300D01*
X105973333Y-45605300D02*
X106073333Y-45605300D01*
X106073333Y-45605300D02*
X106139999Y-45638633D01*
X106139999Y-45638633D02*
X106173333Y-45671966D01*
X106173333Y-45671966D02*
X106206666Y-45738633D01*
X106206666Y-45738633D02*
X106206666Y-45905300D01*
X106206666Y-45905300D02*
X106173333Y-45971966D01*
X106173333Y-45971966D02*
X106139999Y-46005300D01*
X106139999Y-46005300D02*
X106073333Y-46038633D01*
X106073333Y-46038633D02*
X105873333Y-46038633D01*
X105873333Y-46038633D02*
X105806666Y-46005300D01*
X105806666Y-46005300D02*
X105773333Y-45971966D01*
X106406666Y-45338633D02*
X106640000Y-46038633D01*
X106640000Y-46038633D02*
X106873333Y-45338633D01*
X107040000Y-45338633D02*
X107473333Y-45338633D01*
X107473333Y-45338633D02*
X107240000Y-45605300D01*
X107240000Y-45605300D02*
X107340000Y-45605300D01*
X107340000Y-45605300D02*
X107406666Y-45638633D01*
X107406666Y-45638633D02*
X107440000Y-45671966D01*
X107440000Y-45671966D02*
X107473333Y-45738633D01*
X107473333Y-45738633D02*
X107473333Y-45905300D01*
X107473333Y-45905300D02*
X107440000Y-45971966D01*
X107440000Y-45971966D02*
X107406666Y-46005300D01*
X107406666Y-46005300D02*
X107340000Y-46038633D01*
X107340000Y-46038633D02*
X107140000Y-46038633D01*
X107140000Y-46038633D02*
X107073333Y-46005300D01*
X107073333Y-46005300D02*
X107040000Y-45971966D01*
X101935334Y-16382633D02*
X101602000Y-16382633D01*
X101602000Y-16382633D02*
X101568667Y-16715966D01*
X101568667Y-16715966D02*
X101602000Y-16682633D01*
X101602000Y-16682633D02*
X101668667Y-16649300D01*
X101668667Y-16649300D02*
X101835334Y-16649300D01*
X101835334Y-16649300D02*
X101902000Y-16682633D01*
X101902000Y-16682633D02*
X101935334Y-16715966D01*
X101935334Y-16715966D02*
X101968667Y-16782633D01*
X101968667Y-16782633D02*
X101968667Y-16949300D01*
X101968667Y-16949300D02*
X101935334Y-17015966D01*
X101935334Y-17015966D02*
X101902000Y-17049300D01*
X101902000Y-17049300D02*
X101835334Y-17082633D01*
X101835334Y-17082633D02*
X101668667Y-17082633D01*
X101668667Y-17082633D02*
X101602000Y-17049300D01*
X101602000Y-17049300D02*
X101568667Y-17015966D01*
X102168667Y-16382633D02*
X102402001Y-17082633D01*
X102402001Y-17082633D02*
X102635334Y-16382633D01*
X104302000Y-16415966D02*
X104235333Y-16382633D01*
X104235333Y-16382633D02*
X104135333Y-16382633D01*
X104135333Y-16382633D02*
X104035333Y-16415966D01*
X104035333Y-16415966D02*
X103968667Y-16482633D01*
X103968667Y-16482633D02*
X103935333Y-16549300D01*
X103935333Y-16549300D02*
X103902000Y-16682633D01*
X103902000Y-16682633D02*
X103902000Y-16782633D01*
X103902000Y-16782633D02*
X103935333Y-16915966D01*
X103935333Y-16915966D02*
X103968667Y-16982633D01*
X103968667Y-16982633D02*
X104035333Y-17049300D01*
X104035333Y-17049300D02*
X104135333Y-17082633D01*
X104135333Y-17082633D02*
X104202000Y-17082633D01*
X104202000Y-17082633D02*
X104302000Y-17049300D01*
X104302000Y-17049300D02*
X104335333Y-17015966D01*
X104335333Y-17015966D02*
X104335333Y-16782633D01*
X104335333Y-16782633D02*
X104202000Y-16782633D01*
X104635333Y-17082633D02*
X104635333Y-16382633D01*
X104635333Y-16382633D02*
X105035333Y-17082633D01*
X105035333Y-17082633D02*
X105035333Y-16382633D01*
X105368666Y-17082633D02*
X105368666Y-16382633D01*
X105368666Y-16382633D02*
X105535333Y-16382633D01*
X105535333Y-16382633D02*
X105635333Y-16415966D01*
X105635333Y-16415966D02*
X105702000Y-16482633D01*
X105702000Y-16482633D02*
X105735333Y-16549300D01*
X105735333Y-16549300D02*
X105768666Y-16682633D01*
X105768666Y-16682633D02*
X105768666Y-16782633D01*
X105768666Y-16782633D02*
X105735333Y-16915966D01*
X105735333Y-16915966D02*
X105702000Y-16982633D01*
X105702000Y-16982633D02*
X105635333Y-17049300D01*
X105635333Y-17049300D02*
X105535333Y-17082633D01*
X105535333Y-17082633D02*
X105368666Y-17082633D01*
X106535333Y-16382633D02*
X106968666Y-16382633D01*
X106968666Y-16382633D02*
X106735333Y-16649300D01*
X106735333Y-16649300D02*
X106835333Y-16649300D01*
X106835333Y-16649300D02*
X106901999Y-16682633D01*
X106901999Y-16682633D02*
X106935333Y-16715966D01*
X106935333Y-16715966D02*
X106968666Y-16782633D01*
X106968666Y-16782633D02*
X106968666Y-16949300D01*
X106968666Y-16949300D02*
X106935333Y-17015966D01*
X106935333Y-17015966D02*
X106901999Y-17049300D01*
X106901999Y-17049300D02*
X106835333Y-17082633D01*
X106835333Y-17082633D02*
X106635333Y-17082633D01*
X106635333Y-17082633D02*
X106568666Y-17049300D01*
X106568666Y-17049300D02*
X106535333Y-17015966D01*
X107168666Y-16382633D02*
X107402000Y-17082633D01*
X107402000Y-17082633D02*
X107635333Y-16382633D01*
X107802000Y-16382633D02*
X108235333Y-16382633D01*
X108235333Y-16382633D02*
X108002000Y-16649300D01*
X108002000Y-16649300D02*
X108102000Y-16649300D01*
X108102000Y-16649300D02*
X108168666Y-16682633D01*
X108168666Y-16682633D02*
X108202000Y-16715966D01*
X108202000Y-16715966D02*
X108235333Y-16782633D01*
X108235333Y-16782633D02*
X108235333Y-16949300D01*
X108235333Y-16949300D02*
X108202000Y-17015966D01*
X108202000Y-17015966D02*
X108168666Y-17049300D01*
X108168666Y-17049300D02*
X108102000Y-17082633D01*
X108102000Y-17082633D02*
X107902000Y-17082633D01*
X107902000Y-17082633D02*
X107835333Y-17049300D01*
X107835333Y-17049300D02*
X107802000Y-17015966D01*
D11*
X80854571Y-33038117D02*
X80425999Y-33038117D01*
X80425999Y-33038117D02*
X80383142Y-33466688D01*
X80383142Y-33466688D02*
X80425999Y-33423831D01*
X80425999Y-33423831D02*
X80511714Y-33380974D01*
X80511714Y-33380974D02*
X80725999Y-33380974D01*
X80725999Y-33380974D02*
X80811714Y-33423831D01*
X80811714Y-33423831D02*
X80854571Y-33466688D01*
X80854571Y-33466688D02*
X80897428Y-33552402D01*
X80897428Y-33552402D02*
X80897428Y-33766688D01*
X80897428Y-33766688D02*
X80854571Y-33852402D01*
X80854571Y-33852402D02*
X80811714Y-33895260D01*
X80811714Y-33895260D02*
X80725999Y-33938117D01*
X80725999Y-33938117D02*
X80511714Y-33938117D01*
X80511714Y-33938117D02*
X80425999Y-33895260D01*
X80425999Y-33895260D02*
X80383142Y-33852402D01*
X81154571Y-33038117D02*
X81454571Y-33938117D01*
X81454571Y-33938117D02*
X81754571Y-33038117D01*
X84664571Y-33038117D02*
X84235999Y-33038117D01*
X84235999Y-33038117D02*
X84193142Y-33466688D01*
X84193142Y-33466688D02*
X84235999Y-33423831D01*
X84235999Y-33423831D02*
X84321714Y-33380974D01*
X84321714Y-33380974D02*
X84535999Y-33380974D01*
X84535999Y-33380974D02*
X84621714Y-33423831D01*
X84621714Y-33423831D02*
X84664571Y-33466688D01*
X84664571Y-33466688D02*
X84707428Y-33552402D01*
X84707428Y-33552402D02*
X84707428Y-33766688D01*
X84707428Y-33766688D02*
X84664571Y-33852402D01*
X84664571Y-33852402D02*
X84621714Y-33895260D01*
X84621714Y-33895260D02*
X84535999Y-33938117D01*
X84535999Y-33938117D02*
X84321714Y-33938117D01*
X84321714Y-33938117D02*
X84235999Y-33895260D01*
X84235999Y-33895260D02*
X84193142Y-33852402D01*
X84964571Y-33038117D02*
X85264571Y-33938117D01*
X85264571Y-33938117D02*
X85564571Y-33038117D01*
X87960286Y-33080974D02*
X87874572Y-33038117D01*
X87874572Y-33038117D02*
X87746000Y-33038117D01*
X87746000Y-33038117D02*
X87617429Y-33080974D01*
X87617429Y-33080974D02*
X87531714Y-33166688D01*
X87531714Y-33166688D02*
X87488857Y-33252402D01*
X87488857Y-33252402D02*
X87446000Y-33423831D01*
X87446000Y-33423831D02*
X87446000Y-33552402D01*
X87446000Y-33552402D02*
X87488857Y-33723831D01*
X87488857Y-33723831D02*
X87531714Y-33809545D01*
X87531714Y-33809545D02*
X87617429Y-33895260D01*
X87617429Y-33895260D02*
X87746000Y-33938117D01*
X87746000Y-33938117D02*
X87831714Y-33938117D01*
X87831714Y-33938117D02*
X87960286Y-33895260D01*
X87960286Y-33895260D02*
X88003143Y-33852402D01*
X88003143Y-33852402D02*
X88003143Y-33552402D01*
X88003143Y-33552402D02*
X87831714Y-33552402D01*
X88388857Y-33938117D02*
X88388857Y-33038117D01*
X88388857Y-33038117D02*
X88903143Y-33938117D01*
X88903143Y-33938117D02*
X88903143Y-33038117D01*
X89331714Y-33938117D02*
X89331714Y-33038117D01*
X89331714Y-33038117D02*
X89546000Y-33038117D01*
X89546000Y-33038117D02*
X89674571Y-33080974D01*
X89674571Y-33080974D02*
X89760286Y-33166688D01*
X89760286Y-33166688D02*
X89803143Y-33252402D01*
X89803143Y-33252402D02*
X89846000Y-33423831D01*
X89846000Y-33423831D02*
X89846000Y-33552402D01*
X89846000Y-33552402D02*
X89803143Y-33723831D01*
X89803143Y-33723831D02*
X89760286Y-33809545D01*
X89760286Y-33809545D02*
X89674571Y-33895260D01*
X89674571Y-33895260D02*
X89546000Y-33938117D01*
X89546000Y-33938117D02*
X89331714Y-33938117D01*
X91770286Y-33080974D02*
X91684572Y-33038117D01*
X91684572Y-33038117D02*
X91556000Y-33038117D01*
X91556000Y-33038117D02*
X91427429Y-33080974D01*
X91427429Y-33080974D02*
X91341714Y-33166688D01*
X91341714Y-33166688D02*
X91298857Y-33252402D01*
X91298857Y-33252402D02*
X91256000Y-33423831D01*
X91256000Y-33423831D02*
X91256000Y-33552402D01*
X91256000Y-33552402D02*
X91298857Y-33723831D01*
X91298857Y-33723831D02*
X91341714Y-33809545D01*
X91341714Y-33809545D02*
X91427429Y-33895260D01*
X91427429Y-33895260D02*
X91556000Y-33938117D01*
X91556000Y-33938117D02*
X91641714Y-33938117D01*
X91641714Y-33938117D02*
X91770286Y-33895260D01*
X91770286Y-33895260D02*
X91813143Y-33852402D01*
X91813143Y-33852402D02*
X91813143Y-33552402D01*
X91813143Y-33552402D02*
X91641714Y-33552402D01*
X92198857Y-33938117D02*
X92198857Y-33038117D01*
X92198857Y-33038117D02*
X92713143Y-33938117D01*
X92713143Y-33938117D02*
X92713143Y-33038117D01*
X93141714Y-33938117D02*
X93141714Y-33038117D01*
X93141714Y-33038117D02*
X93356000Y-33038117D01*
X93356000Y-33038117D02*
X93484571Y-33080974D01*
X93484571Y-33080974D02*
X93570286Y-33166688D01*
X93570286Y-33166688D02*
X93613143Y-33252402D01*
X93613143Y-33252402D02*
X93656000Y-33423831D01*
X93656000Y-33423831D02*
X93656000Y-33552402D01*
X93656000Y-33552402D02*
X93613143Y-33723831D01*
X93613143Y-33723831D02*
X93570286Y-33809545D01*
X93570286Y-33809545D02*
X93484571Y-33895260D01*
X93484571Y-33895260D02*
X93356000Y-33938117D01*
X93356000Y-33938117D02*
X93141714Y-33938117D01*
X95580286Y-33080974D02*
X95494572Y-33038117D01*
X95494572Y-33038117D02*
X95366000Y-33038117D01*
X95366000Y-33038117D02*
X95237429Y-33080974D01*
X95237429Y-33080974D02*
X95151714Y-33166688D01*
X95151714Y-33166688D02*
X95108857Y-33252402D01*
X95108857Y-33252402D02*
X95066000Y-33423831D01*
X95066000Y-33423831D02*
X95066000Y-33552402D01*
X95066000Y-33552402D02*
X95108857Y-33723831D01*
X95108857Y-33723831D02*
X95151714Y-33809545D01*
X95151714Y-33809545D02*
X95237429Y-33895260D01*
X95237429Y-33895260D02*
X95366000Y-33938117D01*
X95366000Y-33938117D02*
X95451714Y-33938117D01*
X95451714Y-33938117D02*
X95580286Y-33895260D01*
X95580286Y-33895260D02*
X95623143Y-33852402D01*
X95623143Y-33852402D02*
X95623143Y-33552402D01*
X95623143Y-33552402D02*
X95451714Y-33552402D01*
X96008857Y-33938117D02*
X96008857Y-33038117D01*
X96008857Y-33038117D02*
X96523143Y-33938117D01*
X96523143Y-33938117D02*
X96523143Y-33038117D01*
X96951714Y-33938117D02*
X96951714Y-33038117D01*
X96951714Y-33038117D02*
X97166000Y-33038117D01*
X97166000Y-33038117D02*
X97294571Y-33080974D01*
X97294571Y-33080974D02*
X97380286Y-33166688D01*
X97380286Y-33166688D02*
X97423143Y-33252402D01*
X97423143Y-33252402D02*
X97466000Y-33423831D01*
X97466000Y-33423831D02*
X97466000Y-33552402D01*
X97466000Y-33552402D02*
X97423143Y-33723831D01*
X97423143Y-33723831D02*
X97380286Y-33809545D01*
X97380286Y-33809545D02*
X97294571Y-33895260D01*
X97294571Y-33895260D02*
X97166000Y-33938117D01*
X97166000Y-33938117D02*
X96951714Y-33938117D01*
X98882286Y-33080974D02*
X98796572Y-33038117D01*
X98796572Y-33038117D02*
X98668000Y-33038117D01*
X98668000Y-33038117D02*
X98539429Y-33080974D01*
X98539429Y-33080974D02*
X98453714Y-33166688D01*
X98453714Y-33166688D02*
X98410857Y-33252402D01*
X98410857Y-33252402D02*
X98368000Y-33423831D01*
X98368000Y-33423831D02*
X98368000Y-33552402D01*
X98368000Y-33552402D02*
X98410857Y-33723831D01*
X98410857Y-33723831D02*
X98453714Y-33809545D01*
X98453714Y-33809545D02*
X98539429Y-33895260D01*
X98539429Y-33895260D02*
X98668000Y-33938117D01*
X98668000Y-33938117D02*
X98753714Y-33938117D01*
X98753714Y-33938117D02*
X98882286Y-33895260D01*
X98882286Y-33895260D02*
X98925143Y-33852402D01*
X98925143Y-33852402D02*
X98925143Y-33552402D01*
X98925143Y-33552402D02*
X98753714Y-33552402D01*
X99310857Y-33938117D02*
X99310857Y-33038117D01*
X99310857Y-33038117D02*
X99825143Y-33938117D01*
X99825143Y-33938117D02*
X99825143Y-33038117D01*
X100253714Y-33938117D02*
X100253714Y-33038117D01*
X100253714Y-33038117D02*
X100468000Y-33038117D01*
X100468000Y-33038117D02*
X100596571Y-33080974D01*
X100596571Y-33080974D02*
X100682286Y-33166688D01*
X100682286Y-33166688D02*
X100725143Y-33252402D01*
X100725143Y-33252402D02*
X100768000Y-33423831D01*
X100768000Y-33423831D02*
X100768000Y-33552402D01*
X100768000Y-33552402D02*
X100725143Y-33723831D01*
X100725143Y-33723831D02*
X100682286Y-33809545D01*
X100682286Y-33809545D02*
X100596571Y-33895260D01*
X100596571Y-33895260D02*
X100468000Y-33938117D01*
X100468000Y-33938117D02*
X100253714Y-33938117D01*
D10*
X84335999Y-23348109D02*
X84431237Y-23348109D01*
X84431237Y-23348109D02*
X84478856Y-23371919D01*
X84478856Y-23371919D02*
X84526475Y-23419538D01*
X84526475Y-23419538D02*
X84550285Y-23514776D01*
X84550285Y-23514776D02*
X84550285Y-23681442D01*
X84550285Y-23681442D02*
X84526475Y-23776680D01*
X84526475Y-23776680D02*
X84478856Y-23824300D01*
X84478856Y-23824300D02*
X84431237Y-23848109D01*
X84431237Y-23848109D02*
X84335999Y-23848109D01*
X84335999Y-23848109D02*
X84288380Y-23824300D01*
X84288380Y-23824300D02*
X84240761Y-23776680D01*
X84240761Y-23776680D02*
X84216952Y-23681442D01*
X84216952Y-23681442D02*
X84216952Y-23514776D01*
X84216952Y-23514776D02*
X84240761Y-23419538D01*
X84240761Y-23419538D02*
X84288380Y-23371919D01*
X84288380Y-23371919D02*
X84335999Y-23348109D01*
X84764571Y-23348109D02*
X84764571Y-23752871D01*
X84764571Y-23752871D02*
X84788381Y-23800490D01*
X84788381Y-23800490D02*
X84812190Y-23824300D01*
X84812190Y-23824300D02*
X84859809Y-23848109D01*
X84859809Y-23848109D02*
X84955047Y-23848109D01*
X84955047Y-23848109D02*
X85002666Y-23824300D01*
X85002666Y-23824300D02*
X85026476Y-23800490D01*
X85026476Y-23800490D02*
X85050285Y-23752871D01*
X85050285Y-23752871D02*
X85050285Y-23348109D01*
X85216953Y-23348109D02*
X85502667Y-23348109D01*
X85359810Y-23848109D02*
X85359810Y-23348109D01*
X80525999Y-23348109D02*
X80621237Y-23348109D01*
X80621237Y-23348109D02*
X80668856Y-23371919D01*
X80668856Y-23371919D02*
X80716475Y-23419538D01*
X80716475Y-23419538D02*
X80740285Y-23514776D01*
X80740285Y-23514776D02*
X80740285Y-23681442D01*
X80740285Y-23681442D02*
X80716475Y-23776680D01*
X80716475Y-23776680D02*
X80668856Y-23824300D01*
X80668856Y-23824300D02*
X80621237Y-23848109D01*
X80621237Y-23848109D02*
X80525999Y-23848109D01*
X80525999Y-23848109D02*
X80478380Y-23824300D01*
X80478380Y-23824300D02*
X80430761Y-23776680D01*
X80430761Y-23776680D02*
X80406952Y-23681442D01*
X80406952Y-23681442D02*
X80406952Y-23514776D01*
X80406952Y-23514776D02*
X80430761Y-23419538D01*
X80430761Y-23419538D02*
X80478380Y-23371919D01*
X80478380Y-23371919D02*
X80525999Y-23348109D01*
X80954571Y-23348109D02*
X80954571Y-23752871D01*
X80954571Y-23752871D02*
X80978381Y-23800490D01*
X80978381Y-23800490D02*
X81002190Y-23824300D01*
X81002190Y-23824300D02*
X81049809Y-23848109D01*
X81049809Y-23848109D02*
X81145047Y-23848109D01*
X81145047Y-23848109D02*
X81192666Y-23824300D01*
X81192666Y-23824300D02*
X81216476Y-23800490D01*
X81216476Y-23800490D02*
X81240285Y-23752871D01*
X81240285Y-23752871D02*
X81240285Y-23348109D01*
X81406953Y-23348109D02*
X81692667Y-23348109D01*
X81549810Y-23848109D02*
X81549810Y-23348109D01*
X98701333Y-23240633D02*
X99134666Y-23240633D01*
X99134666Y-23240633D02*
X98901333Y-23507300D01*
X98901333Y-23507300D02*
X99001333Y-23507300D01*
X99001333Y-23507300D02*
X99067999Y-23540633D01*
X99067999Y-23540633D02*
X99101333Y-23573966D01*
X99101333Y-23573966D02*
X99134666Y-23640633D01*
X99134666Y-23640633D02*
X99134666Y-23807300D01*
X99134666Y-23807300D02*
X99101333Y-23873966D01*
X99101333Y-23873966D02*
X99067999Y-23907300D01*
X99067999Y-23907300D02*
X99001333Y-23940633D01*
X99001333Y-23940633D02*
X98801333Y-23940633D01*
X98801333Y-23940633D02*
X98734666Y-23907300D01*
X98734666Y-23907300D02*
X98701333Y-23873966D01*
X99334666Y-23240633D02*
X99568000Y-23940633D01*
X99568000Y-23940633D02*
X99801333Y-23240633D01*
X99968000Y-23240633D02*
X100401333Y-23240633D01*
X100401333Y-23240633D02*
X100168000Y-23507300D01*
X100168000Y-23507300D02*
X100268000Y-23507300D01*
X100268000Y-23507300D02*
X100334666Y-23540633D01*
X100334666Y-23540633D02*
X100368000Y-23573966D01*
X100368000Y-23573966D02*
X100401333Y-23640633D01*
X100401333Y-23640633D02*
X100401333Y-23807300D01*
X100401333Y-23807300D02*
X100368000Y-23873966D01*
X100368000Y-23873966D02*
X100334666Y-23907300D01*
X100334666Y-23907300D02*
X100268000Y-23940633D01*
X100268000Y-23940633D02*
X100068000Y-23940633D01*
X100068000Y-23940633D02*
X100001333Y-23907300D01*
X100001333Y-23907300D02*
X99968000Y-23873966D01*
X95399333Y-23240633D02*
X95832666Y-23240633D01*
X95832666Y-23240633D02*
X95599333Y-23507300D01*
X95599333Y-23507300D02*
X95699333Y-23507300D01*
X95699333Y-23507300D02*
X95765999Y-23540633D01*
X95765999Y-23540633D02*
X95799333Y-23573966D01*
X95799333Y-23573966D02*
X95832666Y-23640633D01*
X95832666Y-23640633D02*
X95832666Y-23807300D01*
X95832666Y-23807300D02*
X95799333Y-23873966D01*
X95799333Y-23873966D02*
X95765999Y-23907300D01*
X95765999Y-23907300D02*
X95699333Y-23940633D01*
X95699333Y-23940633D02*
X95499333Y-23940633D01*
X95499333Y-23940633D02*
X95432666Y-23907300D01*
X95432666Y-23907300D02*
X95399333Y-23873966D01*
X96032666Y-23240633D02*
X96266000Y-23940633D01*
X96266000Y-23940633D02*
X96499333Y-23240633D01*
X96666000Y-23240633D02*
X97099333Y-23240633D01*
X97099333Y-23240633D02*
X96866000Y-23507300D01*
X96866000Y-23507300D02*
X96966000Y-23507300D01*
X96966000Y-23507300D02*
X97032666Y-23540633D01*
X97032666Y-23540633D02*
X97066000Y-23573966D01*
X97066000Y-23573966D02*
X97099333Y-23640633D01*
X97099333Y-23640633D02*
X97099333Y-23807300D01*
X97099333Y-23807300D02*
X97066000Y-23873966D01*
X97066000Y-23873966D02*
X97032666Y-23907300D01*
X97032666Y-23907300D02*
X96966000Y-23940633D01*
X96966000Y-23940633D02*
X96766000Y-23940633D01*
X96766000Y-23940633D02*
X96699333Y-23907300D01*
X96699333Y-23907300D02*
X96666000Y-23873966D01*
X91589333Y-23240633D02*
X92022666Y-23240633D01*
X92022666Y-23240633D02*
X91789333Y-23507300D01*
X91789333Y-23507300D02*
X91889333Y-23507300D01*
X91889333Y-23507300D02*
X91955999Y-23540633D01*
X91955999Y-23540633D02*
X91989333Y-23573966D01*
X91989333Y-23573966D02*
X92022666Y-23640633D01*
X92022666Y-23640633D02*
X92022666Y-23807300D01*
X92022666Y-23807300D02*
X91989333Y-23873966D01*
X91989333Y-23873966D02*
X91955999Y-23907300D01*
X91955999Y-23907300D02*
X91889333Y-23940633D01*
X91889333Y-23940633D02*
X91689333Y-23940633D01*
X91689333Y-23940633D02*
X91622666Y-23907300D01*
X91622666Y-23907300D02*
X91589333Y-23873966D01*
X92222666Y-23240633D02*
X92456000Y-23940633D01*
X92456000Y-23940633D02*
X92689333Y-23240633D01*
X92856000Y-23240633D02*
X93289333Y-23240633D01*
X93289333Y-23240633D02*
X93056000Y-23507300D01*
X93056000Y-23507300D02*
X93156000Y-23507300D01*
X93156000Y-23507300D02*
X93222666Y-23540633D01*
X93222666Y-23540633D02*
X93256000Y-23573966D01*
X93256000Y-23573966D02*
X93289333Y-23640633D01*
X93289333Y-23640633D02*
X93289333Y-23807300D01*
X93289333Y-23807300D02*
X93256000Y-23873966D01*
X93256000Y-23873966D02*
X93222666Y-23907300D01*
X93222666Y-23907300D02*
X93156000Y-23940633D01*
X93156000Y-23940633D02*
X92956000Y-23940633D01*
X92956000Y-23940633D02*
X92889333Y-23907300D01*
X92889333Y-23907300D02*
X92856000Y-23873966D01*
X87779333Y-23240633D02*
X88212666Y-23240633D01*
X88212666Y-23240633D02*
X87979333Y-23507300D01*
X87979333Y-23507300D02*
X88079333Y-23507300D01*
X88079333Y-23507300D02*
X88145999Y-23540633D01*
X88145999Y-23540633D02*
X88179333Y-23573966D01*
X88179333Y-23573966D02*
X88212666Y-23640633D01*
X88212666Y-23640633D02*
X88212666Y-23807300D01*
X88212666Y-23807300D02*
X88179333Y-23873966D01*
X88179333Y-23873966D02*
X88145999Y-23907300D01*
X88145999Y-23907300D02*
X88079333Y-23940633D01*
X88079333Y-23940633D02*
X87879333Y-23940633D01*
X87879333Y-23940633D02*
X87812666Y-23907300D01*
X87812666Y-23907300D02*
X87779333Y-23873966D01*
X88412666Y-23240633D02*
X88646000Y-23940633D01*
X88646000Y-23940633D02*
X88879333Y-23240633D01*
X89046000Y-23240633D02*
X89479333Y-23240633D01*
X89479333Y-23240633D02*
X89246000Y-23507300D01*
X89246000Y-23507300D02*
X89346000Y-23507300D01*
X89346000Y-23507300D02*
X89412666Y-23540633D01*
X89412666Y-23540633D02*
X89446000Y-23573966D01*
X89446000Y-23573966D02*
X89479333Y-23640633D01*
X89479333Y-23640633D02*
X89479333Y-23807300D01*
X89479333Y-23807300D02*
X89446000Y-23873966D01*
X89446000Y-23873966D02*
X89412666Y-23907300D01*
X89412666Y-23907300D02*
X89346000Y-23940633D01*
X89346000Y-23940633D02*
X89146000Y-23940633D01*
X89146000Y-23940633D02*
X89079333Y-23907300D01*
X89079333Y-23907300D02*
X89046000Y-23873966D01*
D12*
X111569523Y-38824819D02*
X111093333Y-38824819D01*
X111093333Y-38824819D02*
X111045714Y-39301009D01*
X111045714Y-39301009D02*
X111093333Y-39253390D01*
X111093333Y-39253390D02*
X111188571Y-39205771D01*
X111188571Y-39205771D02*
X111426666Y-39205771D01*
X111426666Y-39205771D02*
X111521904Y-39253390D01*
X111521904Y-39253390D02*
X111569523Y-39301009D01*
X111569523Y-39301009D02*
X111617142Y-39396247D01*
X111617142Y-39396247D02*
X111617142Y-39634342D01*
X111617142Y-39634342D02*
X111569523Y-39729580D01*
X111569523Y-39729580D02*
X111521904Y-39777200D01*
X111521904Y-39777200D02*
X111426666Y-39824819D01*
X111426666Y-39824819D02*
X111188571Y-39824819D01*
X111188571Y-39824819D02*
X111093333Y-39777200D01*
X111093333Y-39777200D02*
X111045714Y-39729580D01*
X111902857Y-38824819D02*
X112236190Y-39824819D01*
X112236190Y-39824819D02*
X112569523Y-38824819D01*
X110775905Y-36284819D02*
X111394952Y-36284819D01*
X111394952Y-36284819D02*
X111061619Y-36665771D01*
X111061619Y-36665771D02*
X111204476Y-36665771D01*
X111204476Y-36665771D02*
X111299714Y-36713390D01*
X111299714Y-36713390D02*
X111347333Y-36761009D01*
X111347333Y-36761009D02*
X111394952Y-36856247D01*
X111394952Y-36856247D02*
X111394952Y-37094342D01*
X111394952Y-37094342D02*
X111347333Y-37189580D01*
X111347333Y-37189580D02*
X111299714Y-37237200D01*
X111299714Y-37237200D02*
X111204476Y-37284819D01*
X111204476Y-37284819D02*
X110918762Y-37284819D01*
X110918762Y-37284819D02*
X110823524Y-37237200D01*
X110823524Y-37237200D02*
X110775905Y-37189580D01*
X111680667Y-36284819D02*
X112014000Y-37284819D01*
X112014000Y-37284819D02*
X112347333Y-36284819D01*
X112585429Y-36284819D02*
X113204476Y-36284819D01*
X113204476Y-36284819D02*
X112871143Y-36665771D01*
X112871143Y-36665771D02*
X113014000Y-36665771D01*
X113014000Y-36665771D02*
X113109238Y-36713390D01*
X113109238Y-36713390D02*
X113156857Y-36761009D01*
X113156857Y-36761009D02*
X113204476Y-36856247D01*
X113204476Y-36856247D02*
X113204476Y-37094342D01*
X113204476Y-37094342D02*
X113156857Y-37189580D01*
X113156857Y-37189580D02*
X113109238Y-37237200D01*
X113109238Y-37237200D02*
X113014000Y-37284819D01*
X113014000Y-37284819D02*
X112728286Y-37284819D01*
X112728286Y-37284819D02*
X112633048Y-37237200D01*
X112633048Y-37237200D02*
X112585429Y-37189580D01*
D10*
X113766667Y-29623966D02*
X113700000Y-29590633D01*
X113700000Y-29590633D02*
X113600000Y-29590633D01*
X113600000Y-29590633D02*
X113500000Y-29623966D01*
X113500000Y-29623966D02*
X113433334Y-29690633D01*
X113433334Y-29690633D02*
X113400000Y-29757300D01*
X113400000Y-29757300D02*
X113366667Y-29890633D01*
X113366667Y-29890633D02*
X113366667Y-29990633D01*
X113366667Y-29990633D02*
X113400000Y-30123966D01*
X113400000Y-30123966D02*
X113433334Y-30190633D01*
X113433334Y-30190633D02*
X113500000Y-30257300D01*
X113500000Y-30257300D02*
X113600000Y-30290633D01*
X113600000Y-30290633D02*
X113666667Y-30290633D01*
X113666667Y-30290633D02*
X113766667Y-30257300D01*
X113766667Y-30257300D02*
X113800000Y-30223966D01*
X113800000Y-30223966D02*
X113800000Y-29990633D01*
X113800000Y-29990633D02*
X113666667Y-29990633D01*
X114100000Y-30290633D02*
X114100000Y-29590633D01*
X114100000Y-29590633D02*
X114500000Y-30290633D01*
X114500000Y-30290633D02*
X114500000Y-29590633D01*
X114833333Y-30290633D02*
X114833333Y-29590633D01*
X114833333Y-29590633D02*
X115000000Y-29590633D01*
X115000000Y-29590633D02*
X115100000Y-29623966D01*
X115100000Y-29623966D02*
X115166667Y-29690633D01*
X115166667Y-29690633D02*
X115200000Y-29757300D01*
X115200000Y-29757300D02*
X115233333Y-29890633D01*
X115233333Y-29890633D02*
X115233333Y-29990633D01*
X115233333Y-29990633D02*
X115200000Y-30123966D01*
X115200000Y-30123966D02*
X115166667Y-30190633D01*
X115166667Y-30190633D02*
X115100000Y-30257300D01*
X115100000Y-30257300D02*
X115000000Y-30290633D01*
X115000000Y-30290633D02*
X114833333Y-30290633D01*
X113600001Y-27050633D02*
X113733334Y-27050633D01*
X113733334Y-27050633D02*
X113800001Y-27083966D01*
X113800001Y-27083966D02*
X113866667Y-27150633D01*
X113866667Y-27150633D02*
X113900001Y-27283966D01*
X113900001Y-27283966D02*
X113900001Y-27517300D01*
X113900001Y-27517300D02*
X113866667Y-27650633D01*
X113866667Y-27650633D02*
X113800001Y-27717300D01*
X113800001Y-27717300D02*
X113733334Y-27750633D01*
X113733334Y-27750633D02*
X113600001Y-27750633D01*
X113600001Y-27750633D02*
X113533334Y-27717300D01*
X113533334Y-27717300D02*
X113466667Y-27650633D01*
X113466667Y-27650633D02*
X113433334Y-27517300D01*
X113433334Y-27517300D02*
X113433334Y-27283966D01*
X113433334Y-27283966D02*
X113466667Y-27150633D01*
X113466667Y-27150633D02*
X113533334Y-27083966D01*
X113533334Y-27083966D02*
X113600001Y-27050633D01*
X114200000Y-27050633D02*
X114200000Y-27617300D01*
X114200000Y-27617300D02*
X114233334Y-27683966D01*
X114233334Y-27683966D02*
X114266667Y-27717300D01*
X114266667Y-27717300D02*
X114333334Y-27750633D01*
X114333334Y-27750633D02*
X114466667Y-27750633D01*
X114466667Y-27750633D02*
X114533334Y-27717300D01*
X114533334Y-27717300D02*
X114566667Y-27683966D01*
X114566667Y-27683966D02*
X114600000Y-27617300D01*
X114600000Y-27617300D02*
X114600000Y-27050633D01*
X114833333Y-27050633D02*
X115233333Y-27050633D01*
X115033333Y-27750633D02*
X115033333Y-27050633D01*
X113433333Y-24256633D02*
X113866666Y-24256633D01*
X113866666Y-24256633D02*
X113633333Y-24523300D01*
X113633333Y-24523300D02*
X113733333Y-24523300D01*
X113733333Y-24523300D02*
X113799999Y-24556633D01*
X113799999Y-24556633D02*
X113833333Y-24589966D01*
X113833333Y-24589966D02*
X113866666Y-24656633D01*
X113866666Y-24656633D02*
X113866666Y-24823300D01*
X113866666Y-24823300D02*
X113833333Y-24889966D01*
X113833333Y-24889966D02*
X113799999Y-24923300D01*
X113799999Y-24923300D02*
X113733333Y-24956633D01*
X113733333Y-24956633D02*
X113533333Y-24956633D01*
X113533333Y-24956633D02*
X113466666Y-24923300D01*
X113466666Y-24923300D02*
X113433333Y-24889966D01*
X114066666Y-24256633D02*
X114300000Y-24956633D01*
X114300000Y-24956633D02*
X114533333Y-24256633D01*
X114700000Y-24256633D02*
X115133333Y-24256633D01*
X115133333Y-24256633D02*
X114900000Y-24523300D01*
X114900000Y-24523300D02*
X115000000Y-24523300D01*
X115000000Y-24523300D02*
X115066666Y-24556633D01*
X115066666Y-24556633D02*
X115100000Y-24589966D01*
X115100000Y-24589966D02*
X115133333Y-24656633D01*
X115133333Y-24656633D02*
X115133333Y-24823300D01*
X115133333Y-24823300D02*
X115100000Y-24889966D01*
X115100000Y-24889966D02*
X115066666Y-24923300D01*
X115066666Y-24923300D02*
X115000000Y-24956633D01*
X115000000Y-24956633D02*
X114800000Y-24956633D01*
X114800000Y-24956633D02*
X114733333Y-24923300D01*
X114733333Y-24923300D02*
X114700000Y-24889966D01*
X91267334Y-16382633D02*
X90934000Y-16382633D01*
X90934000Y-16382633D02*
X90900667Y-16715966D01*
X90900667Y-16715966D02*
X90934000Y-16682633D01*
X90934000Y-16682633D02*
X91000667Y-16649300D01*
X91000667Y-16649300D02*
X91167334Y-16649300D01*
X91167334Y-16649300D02*
X91234000Y-16682633D01*
X91234000Y-16682633D02*
X91267334Y-16715966D01*
X91267334Y-16715966D02*
X91300667Y-16782633D01*
X91300667Y-16782633D02*
X91300667Y-16949300D01*
X91300667Y-16949300D02*
X91267334Y-17015966D01*
X91267334Y-17015966D02*
X91234000Y-17049300D01*
X91234000Y-17049300D02*
X91167334Y-17082633D01*
X91167334Y-17082633D02*
X91000667Y-17082633D01*
X91000667Y-17082633D02*
X90934000Y-17049300D01*
X90934000Y-17049300D02*
X90900667Y-17015966D01*
X91500667Y-16382633D02*
X91734001Y-17082633D01*
X91734001Y-17082633D02*
X91967334Y-16382633D01*
X93634000Y-16415966D02*
X93567333Y-16382633D01*
X93567333Y-16382633D02*
X93467333Y-16382633D01*
X93467333Y-16382633D02*
X93367333Y-16415966D01*
X93367333Y-16415966D02*
X93300667Y-16482633D01*
X93300667Y-16482633D02*
X93267333Y-16549300D01*
X93267333Y-16549300D02*
X93234000Y-16682633D01*
X93234000Y-16682633D02*
X93234000Y-16782633D01*
X93234000Y-16782633D02*
X93267333Y-16915966D01*
X93267333Y-16915966D02*
X93300667Y-16982633D01*
X93300667Y-16982633D02*
X93367333Y-17049300D01*
X93367333Y-17049300D02*
X93467333Y-17082633D01*
X93467333Y-17082633D02*
X93534000Y-17082633D01*
X93534000Y-17082633D02*
X93634000Y-17049300D01*
X93634000Y-17049300D02*
X93667333Y-17015966D01*
X93667333Y-17015966D02*
X93667333Y-16782633D01*
X93667333Y-16782633D02*
X93534000Y-16782633D01*
X93967333Y-17082633D02*
X93967333Y-16382633D01*
X93967333Y-16382633D02*
X94367333Y-17082633D01*
X94367333Y-17082633D02*
X94367333Y-16382633D01*
X94700666Y-17082633D02*
X94700666Y-16382633D01*
X94700666Y-16382633D02*
X94867333Y-16382633D01*
X94867333Y-16382633D02*
X94967333Y-16415966D01*
X94967333Y-16415966D02*
X95034000Y-16482633D01*
X95034000Y-16482633D02*
X95067333Y-16549300D01*
X95067333Y-16549300D02*
X95100666Y-16682633D01*
X95100666Y-16682633D02*
X95100666Y-16782633D01*
X95100666Y-16782633D02*
X95067333Y-16915966D01*
X95067333Y-16915966D02*
X95034000Y-16982633D01*
X95034000Y-16982633D02*
X94967333Y-17049300D01*
X94967333Y-17049300D02*
X94867333Y-17082633D01*
X94867333Y-17082633D02*
X94700666Y-17082633D01*
X95867333Y-16382633D02*
X96300666Y-16382633D01*
X96300666Y-16382633D02*
X96067333Y-16649300D01*
X96067333Y-16649300D02*
X96167333Y-16649300D01*
X96167333Y-16649300D02*
X96233999Y-16682633D01*
X96233999Y-16682633D02*
X96267333Y-16715966D01*
X96267333Y-16715966D02*
X96300666Y-16782633D01*
X96300666Y-16782633D02*
X96300666Y-16949300D01*
X96300666Y-16949300D02*
X96267333Y-17015966D01*
X96267333Y-17015966D02*
X96233999Y-17049300D01*
X96233999Y-17049300D02*
X96167333Y-17082633D01*
X96167333Y-17082633D02*
X95967333Y-17082633D01*
X95967333Y-17082633D02*
X95900666Y-17049300D01*
X95900666Y-17049300D02*
X95867333Y-17015966D01*
X96500666Y-16382633D02*
X96734000Y-17082633D01*
X96734000Y-17082633D02*
X96967333Y-16382633D01*
X97134000Y-16382633D02*
X97567333Y-16382633D01*
X97567333Y-16382633D02*
X97334000Y-16649300D01*
X97334000Y-16649300D02*
X97434000Y-16649300D01*
X97434000Y-16649300D02*
X97500666Y-16682633D01*
X97500666Y-16682633D02*
X97534000Y-16715966D01*
X97534000Y-16715966D02*
X97567333Y-16782633D01*
X97567333Y-16782633D02*
X97567333Y-16949300D01*
X97567333Y-16949300D02*
X97534000Y-17015966D01*
X97534000Y-17015966D02*
X97500666Y-17049300D01*
X97500666Y-17049300D02*
X97434000Y-17082633D01*
X97434000Y-17082633D02*
X97234000Y-17082633D01*
X97234000Y-17082633D02*
X97167333Y-17049300D01*
X97167333Y-17049300D02*
X97134000Y-17015966D01*
X77770570Y-16464942D02*
X77713428Y-16436371D01*
X77713428Y-16436371D02*
X77627713Y-16436371D01*
X77627713Y-16436371D02*
X77541999Y-16464942D01*
X77541999Y-16464942D02*
X77484856Y-16522085D01*
X77484856Y-16522085D02*
X77456285Y-16579228D01*
X77456285Y-16579228D02*
X77427713Y-16693514D01*
X77427713Y-16693514D02*
X77427713Y-16779228D01*
X77427713Y-16779228D02*
X77456285Y-16893514D01*
X77456285Y-16893514D02*
X77484856Y-16950657D01*
X77484856Y-16950657D02*
X77541999Y-17007800D01*
X77541999Y-17007800D02*
X77627713Y-17036371D01*
X77627713Y-17036371D02*
X77684856Y-17036371D01*
X77684856Y-17036371D02*
X77770570Y-17007800D01*
X77770570Y-17007800D02*
X77799142Y-16979228D01*
X77799142Y-16979228D02*
X77799142Y-16779228D01*
X77799142Y-16779228D02*
X77684856Y-16779228D01*
X78056285Y-17036371D02*
X78056285Y-16436371D01*
X78056285Y-16436371D02*
X78399142Y-17036371D01*
X78399142Y-17036371D02*
X78399142Y-16436371D01*
X78684856Y-17036371D02*
X78684856Y-16436371D01*
X78684856Y-16436371D02*
X78827713Y-16436371D01*
X78827713Y-16436371D02*
X78913427Y-16464942D01*
X78913427Y-16464942D02*
X78970570Y-16522085D01*
X78970570Y-16522085D02*
X78999141Y-16579228D01*
X78999141Y-16579228D02*
X79027713Y-16693514D01*
X79027713Y-16693514D02*
X79027713Y-16779228D01*
X79027713Y-16779228D02*
X78999141Y-16893514D01*
X78999141Y-16893514D02*
X78970570Y-16950657D01*
X78970570Y-16950657D02*
X78913427Y-17007800D01*
X78913427Y-17007800D02*
X78827713Y-17036371D01*
X78827713Y-17036371D02*
X78684856Y-17036371D01*
X80199142Y-16722085D02*
X80399142Y-16722085D01*
X80484856Y-17036371D02*
X80199142Y-17036371D01*
X80199142Y-17036371D02*
X80199142Y-16436371D01*
X80199142Y-16436371D02*
X80484856Y-16436371D01*
X80999142Y-17007800D02*
X80941999Y-17036371D01*
X80941999Y-17036371D02*
X80827713Y-17036371D01*
X80827713Y-17036371D02*
X80770570Y-17007800D01*
X80770570Y-17007800D02*
X80741999Y-16979228D01*
X80741999Y-16979228D02*
X80713427Y-16922085D01*
X80713427Y-16922085D02*
X80713427Y-16750657D01*
X80713427Y-16750657D02*
X80741999Y-16693514D01*
X80741999Y-16693514D02*
X80770570Y-16664942D01*
X80770570Y-16664942D02*
X80827713Y-16636371D01*
X80827713Y-16636371D02*
X80941999Y-16636371D01*
X80941999Y-16636371D02*
X80999142Y-16664942D01*
X81256285Y-17036371D02*
X81256285Y-16436371D01*
X81513428Y-17036371D02*
X81513428Y-16722085D01*
X81513428Y-16722085D02*
X81484856Y-16664942D01*
X81484856Y-16664942D02*
X81427713Y-16636371D01*
X81427713Y-16636371D02*
X81341999Y-16636371D01*
X81341999Y-16636371D02*
X81284856Y-16664942D01*
X81284856Y-16664942D02*
X81256285Y-16693514D01*
X81884856Y-17036371D02*
X81827713Y-17007800D01*
X81827713Y-17007800D02*
X81799142Y-16979228D01*
X81799142Y-16979228D02*
X81770570Y-16922085D01*
X81770570Y-16922085D02*
X81770570Y-16750657D01*
X81770570Y-16750657D02*
X81799142Y-16693514D01*
X81799142Y-16693514D02*
X81827713Y-16664942D01*
X81827713Y-16664942D02*
X81884856Y-16636371D01*
X81884856Y-16636371D02*
X81970570Y-16636371D01*
X81970570Y-16636371D02*
X82027713Y-16664942D01*
X82027713Y-16664942D02*
X82056285Y-16693514D01*
X82056285Y-16693514D02*
X82084856Y-16750657D01*
X82084856Y-16750657D02*
X82084856Y-16922085D01*
X82084856Y-16922085D02*
X82056285Y-16979228D01*
X82056285Y-16979228D02*
X82027713Y-17007800D01*
X82027713Y-17007800D02*
X81970570Y-17036371D01*
X81970570Y-17036371D02*
X81884856Y-17036371D01*
X82713427Y-16436371D02*
X83056285Y-16436371D01*
X82884856Y-17036371D02*
X82884856Y-16436371D01*
X83256285Y-17036371D02*
X83256285Y-16636371D01*
X83256285Y-16750657D02*
X83284856Y-16693514D01*
X83284856Y-16693514D02*
X83313428Y-16664942D01*
X83313428Y-16664942D02*
X83370570Y-16636371D01*
X83370570Y-16636371D02*
X83427713Y-16636371D01*
X83627714Y-17036371D02*
X83627714Y-16636371D01*
X83627714Y-16436371D02*
X83599142Y-16464942D01*
X83599142Y-16464942D02*
X83627714Y-16493514D01*
X83627714Y-16493514D02*
X83656285Y-16464942D01*
X83656285Y-16464942D02*
X83627714Y-16436371D01*
X83627714Y-16436371D02*
X83627714Y-16493514D01*
X84170571Y-16636371D02*
X84170571Y-17122085D01*
X84170571Y-17122085D02*
X84141999Y-17179228D01*
X84141999Y-17179228D02*
X84113428Y-17207800D01*
X84113428Y-17207800D02*
X84056285Y-17236371D01*
X84056285Y-17236371D02*
X83970571Y-17236371D01*
X83970571Y-17236371D02*
X83913428Y-17207800D01*
X84170571Y-17007800D02*
X84113428Y-17036371D01*
X84113428Y-17036371D02*
X83999142Y-17036371D01*
X83999142Y-17036371D02*
X83941999Y-17007800D01*
X83941999Y-17007800D02*
X83913428Y-16979228D01*
X83913428Y-16979228D02*
X83884856Y-16922085D01*
X83884856Y-16922085D02*
X83884856Y-16750657D01*
X83884856Y-16750657D02*
X83913428Y-16693514D01*
X83913428Y-16693514D02*
X83941999Y-16664942D01*
X83941999Y-16664942D02*
X83999142Y-16636371D01*
X83999142Y-16636371D02*
X84113428Y-16636371D01*
X84113428Y-16636371D02*
X84170571Y-16664942D01*
X86113428Y-16436371D02*
X85827714Y-16436371D01*
X85827714Y-16436371D02*
X85799142Y-16722085D01*
X85799142Y-16722085D02*
X85827714Y-16693514D01*
X85827714Y-16693514D02*
X85884857Y-16664942D01*
X85884857Y-16664942D02*
X86027714Y-16664942D01*
X86027714Y-16664942D02*
X86084857Y-16693514D01*
X86084857Y-16693514D02*
X86113428Y-16722085D01*
X86113428Y-16722085D02*
X86141999Y-16779228D01*
X86141999Y-16779228D02*
X86141999Y-16922085D01*
X86141999Y-16922085D02*
X86113428Y-16979228D01*
X86113428Y-16979228D02*
X86084857Y-17007800D01*
X86084857Y-17007800D02*
X86027714Y-17036371D01*
X86027714Y-17036371D02*
X85884857Y-17036371D01*
X85884857Y-17036371D02*
X85827714Y-17007800D01*
X85827714Y-17007800D02*
X85799142Y-16979228D01*
X86313428Y-16436371D02*
X86513428Y-17036371D01*
X86513428Y-17036371D02*
X86713428Y-16436371D01*
X76606476Y-25510990D02*
X76530286Y-25472895D01*
X76530286Y-25472895D02*
X76416000Y-25472895D01*
X76416000Y-25472895D02*
X76301714Y-25510990D01*
X76301714Y-25510990D02*
X76225524Y-25587180D01*
X76225524Y-25587180D02*
X76187429Y-25663371D01*
X76187429Y-25663371D02*
X76149333Y-25815752D01*
X76149333Y-25815752D02*
X76149333Y-25930038D01*
X76149333Y-25930038D02*
X76187429Y-26082419D01*
X76187429Y-26082419D02*
X76225524Y-26158609D01*
X76225524Y-26158609D02*
X76301714Y-26234800D01*
X76301714Y-26234800D02*
X76416000Y-26272895D01*
X76416000Y-26272895D02*
X76492191Y-26272895D01*
X76492191Y-26272895D02*
X76606476Y-26234800D01*
X76606476Y-26234800D02*
X76644572Y-26196704D01*
X76644572Y-26196704D02*
X76644572Y-25930038D01*
X76644572Y-25930038D02*
X76492191Y-25930038D01*
X76987429Y-26272895D02*
X76987429Y-25472895D01*
X76987429Y-25472895D02*
X77444572Y-26272895D01*
X77444572Y-26272895D02*
X77444572Y-25472895D01*
X77825524Y-26272895D02*
X77825524Y-25472895D01*
X77825524Y-25472895D02*
X78016000Y-25472895D01*
X78016000Y-25472895D02*
X78130286Y-25510990D01*
X78130286Y-25510990D02*
X78206476Y-25587180D01*
X78206476Y-25587180D02*
X78244571Y-25663371D01*
X78244571Y-25663371D02*
X78282667Y-25815752D01*
X78282667Y-25815752D02*
X78282667Y-25930038D01*
X78282667Y-25930038D02*
X78244571Y-26082419D01*
X78244571Y-26082419D02*
X78206476Y-26158609D01*
X78206476Y-26158609D02*
X78130286Y-26234800D01*
X78130286Y-26234800D02*
X78016000Y-26272895D01*
X78016000Y-26272895D02*
X77825524Y-26272895D01*
D12*
X57451714Y-19504819D02*
X57451714Y-18504819D01*
X57451714Y-18981009D02*
X58023142Y-18981009D01*
X58023142Y-19504819D02*
X58023142Y-18504819D01*
X58356476Y-18504819D02*
X58689809Y-19504819D01*
X58689809Y-19504819D02*
X59023142Y-18504819D01*
X58046952Y-31950819D02*
X57570762Y-31950819D01*
X57570762Y-31950819D02*
X57570762Y-30950819D01*
X58237429Y-30950819D02*
X58570762Y-31950819D01*
X58570762Y-31950819D02*
X58904095Y-30950819D01*
D10*
X103287433Y-31698300D02*
X103358861Y-31722109D01*
X103358861Y-31722109D02*
X103477909Y-31722109D01*
X103477909Y-31722109D02*
X103525528Y-31698300D01*
X103525528Y-31698300D02*
X103549337Y-31674490D01*
X103549337Y-31674490D02*
X103573147Y-31626871D01*
X103573147Y-31626871D02*
X103573147Y-31579252D01*
X103573147Y-31579252D02*
X103549337Y-31531633D01*
X103549337Y-31531633D02*
X103525528Y-31507823D01*
X103525528Y-31507823D02*
X103477909Y-31484014D01*
X103477909Y-31484014D02*
X103382671Y-31460204D01*
X103382671Y-31460204D02*
X103335052Y-31436395D01*
X103335052Y-31436395D02*
X103311242Y-31412585D01*
X103311242Y-31412585D02*
X103287433Y-31364966D01*
X103287433Y-31364966D02*
X103287433Y-31317347D01*
X103287433Y-31317347D02*
X103311242Y-31269728D01*
X103311242Y-31269728D02*
X103335052Y-31245919D01*
X103335052Y-31245919D02*
X103382671Y-31222109D01*
X103382671Y-31222109D02*
X103501718Y-31222109D01*
X103501718Y-31222109D02*
X103573147Y-31245919D01*
X104073146Y-31674490D02*
X104049337Y-31698300D01*
X104049337Y-31698300D02*
X103977908Y-31722109D01*
X103977908Y-31722109D02*
X103930289Y-31722109D01*
X103930289Y-31722109D02*
X103858861Y-31698300D01*
X103858861Y-31698300D02*
X103811242Y-31650680D01*
X103811242Y-31650680D02*
X103787432Y-31603061D01*
X103787432Y-31603061D02*
X103763623Y-31507823D01*
X103763623Y-31507823D02*
X103763623Y-31436395D01*
X103763623Y-31436395D02*
X103787432Y-31341157D01*
X103787432Y-31341157D02*
X103811242Y-31293538D01*
X103811242Y-31293538D02*
X103858861Y-31245919D01*
X103858861Y-31245919D02*
X103930289Y-31222109D01*
X103930289Y-31222109D02*
X103977908Y-31222109D01*
X103977908Y-31222109D02*
X104049337Y-31245919D01*
X104049337Y-31245919D02*
X104073146Y-31269728D01*
X104525527Y-31722109D02*
X104287432Y-31722109D01*
X104287432Y-31722109D02*
X104287432Y-31222109D01*
X105811241Y-31698300D02*
X105882669Y-31722109D01*
X105882669Y-31722109D02*
X106001717Y-31722109D01*
X106001717Y-31722109D02*
X106049336Y-31698300D01*
X106049336Y-31698300D02*
X106073145Y-31674490D01*
X106073145Y-31674490D02*
X106096955Y-31626871D01*
X106096955Y-31626871D02*
X106096955Y-31579252D01*
X106096955Y-31579252D02*
X106073145Y-31531633D01*
X106073145Y-31531633D02*
X106049336Y-31507823D01*
X106049336Y-31507823D02*
X106001717Y-31484014D01*
X106001717Y-31484014D02*
X105906479Y-31460204D01*
X105906479Y-31460204D02*
X105858860Y-31436395D01*
X105858860Y-31436395D02*
X105835050Y-31412585D01*
X105835050Y-31412585D02*
X105811241Y-31364966D01*
X105811241Y-31364966D02*
X105811241Y-31317347D01*
X105811241Y-31317347D02*
X105835050Y-31269728D01*
X105835050Y-31269728D02*
X105858860Y-31245919D01*
X105858860Y-31245919D02*
X105906479Y-31222109D01*
X105906479Y-31222109D02*
X106025526Y-31222109D01*
X106025526Y-31222109D02*
X106096955Y-31245919D01*
X106311240Y-31722109D02*
X106311240Y-31222109D01*
X106311240Y-31222109D02*
X106430288Y-31222109D01*
X106430288Y-31222109D02*
X106501716Y-31245919D01*
X106501716Y-31245919D02*
X106549335Y-31293538D01*
X106549335Y-31293538D02*
X106573145Y-31341157D01*
X106573145Y-31341157D02*
X106596954Y-31436395D01*
X106596954Y-31436395D02*
X106596954Y-31507823D01*
X106596954Y-31507823D02*
X106573145Y-31603061D01*
X106573145Y-31603061D02*
X106549335Y-31650680D01*
X106549335Y-31650680D02*
X106501716Y-31698300D01*
X106501716Y-31698300D02*
X106430288Y-31722109D01*
X106430288Y-31722109D02*
X106311240Y-31722109D01*
X106787431Y-31579252D02*
X107025526Y-31579252D01*
X106739812Y-31722109D02*
X106906478Y-31222109D01*
X106906478Y-31222109D02*
X107073145Y-31722109D01*
X108335048Y-31222109D02*
X108644572Y-31222109D01*
X108644572Y-31222109D02*
X108477905Y-31412585D01*
X108477905Y-31412585D02*
X108549334Y-31412585D01*
X108549334Y-31412585D02*
X108596953Y-31436395D01*
X108596953Y-31436395D02*
X108620762Y-31460204D01*
X108620762Y-31460204D02*
X108644572Y-31507823D01*
X108644572Y-31507823D02*
X108644572Y-31626871D01*
X108644572Y-31626871D02*
X108620762Y-31674490D01*
X108620762Y-31674490D02*
X108596953Y-31698300D01*
X108596953Y-31698300D02*
X108549334Y-31722109D01*
X108549334Y-31722109D02*
X108406477Y-31722109D01*
X108406477Y-31722109D02*
X108358858Y-31698300D01*
X108358858Y-31698300D02*
X108335048Y-31674490D01*
X108787429Y-31222109D02*
X108954095Y-31722109D01*
X108954095Y-31722109D02*
X109120762Y-31222109D01*
X109239809Y-31222109D02*
X109549333Y-31222109D01*
X109549333Y-31222109D02*
X109382666Y-31412585D01*
X109382666Y-31412585D02*
X109454095Y-31412585D01*
X109454095Y-31412585D02*
X109501714Y-31436395D01*
X109501714Y-31436395D02*
X109525523Y-31460204D01*
X109525523Y-31460204D02*
X109549333Y-31507823D01*
X109549333Y-31507823D02*
X109549333Y-31626871D01*
X109549333Y-31626871D02*
X109525523Y-31674490D01*
X109525523Y-31674490D02*
X109501714Y-31698300D01*
X109501714Y-31698300D02*
X109454095Y-31722109D01*
X109454095Y-31722109D02*
X109311238Y-31722109D01*
X109311238Y-31722109D02*
X109263619Y-31698300D01*
X109263619Y-31698300D02*
X109239809Y-31674490D01*
X111168379Y-31245919D02*
X111120760Y-31222109D01*
X111120760Y-31222109D02*
X111049331Y-31222109D01*
X111049331Y-31222109D02*
X110977903Y-31245919D01*
X110977903Y-31245919D02*
X110930284Y-31293538D01*
X110930284Y-31293538D02*
X110906474Y-31341157D01*
X110906474Y-31341157D02*
X110882665Y-31436395D01*
X110882665Y-31436395D02*
X110882665Y-31507823D01*
X110882665Y-31507823D02*
X110906474Y-31603061D01*
X110906474Y-31603061D02*
X110930284Y-31650680D01*
X110930284Y-31650680D02*
X110977903Y-31698300D01*
X110977903Y-31698300D02*
X111049331Y-31722109D01*
X111049331Y-31722109D02*
X111096950Y-31722109D01*
X111096950Y-31722109D02*
X111168379Y-31698300D01*
X111168379Y-31698300D02*
X111192188Y-31674490D01*
X111192188Y-31674490D02*
X111192188Y-31507823D01*
X111192188Y-31507823D02*
X111096950Y-31507823D01*
X111406474Y-31722109D02*
X111406474Y-31222109D01*
X111406474Y-31222109D02*
X111692188Y-31722109D01*
X111692188Y-31722109D02*
X111692188Y-31222109D01*
X111930284Y-31722109D02*
X111930284Y-31222109D01*
X111930284Y-31222109D02*
X112049332Y-31222109D01*
X112049332Y-31222109D02*
X112120760Y-31245919D01*
X112120760Y-31245919D02*
X112168379Y-31293538D01*
X112168379Y-31293538D02*
X112192189Y-31341157D01*
X112192189Y-31341157D02*
X112215998Y-31436395D01*
X112215998Y-31436395D02*
X112215998Y-31507823D01*
X112215998Y-31507823D02*
X112192189Y-31603061D01*
X112192189Y-31603061D02*
X112168379Y-31650680D01*
X112168379Y-31650680D02*
X112120760Y-31698300D01*
X112120760Y-31698300D02*
X112049332Y-31722109D01*
X112049332Y-31722109D02*
X111930284Y-31722109D01*
X114192187Y-31222109D02*
X113954092Y-31222109D01*
X113954092Y-31222109D02*
X113930283Y-31460204D01*
X113930283Y-31460204D02*
X113954092Y-31436395D01*
X113954092Y-31436395D02*
X114001711Y-31412585D01*
X114001711Y-31412585D02*
X114120759Y-31412585D01*
X114120759Y-31412585D02*
X114168378Y-31436395D01*
X114168378Y-31436395D02*
X114192187Y-31460204D01*
X114192187Y-31460204D02*
X114215997Y-31507823D01*
X114215997Y-31507823D02*
X114215997Y-31626871D01*
X114215997Y-31626871D02*
X114192187Y-31674490D01*
X114192187Y-31674490D02*
X114168378Y-31698300D01*
X114168378Y-31698300D02*
X114120759Y-31722109D01*
X114120759Y-31722109D02*
X114001711Y-31722109D01*
X114001711Y-31722109D02*
X113954092Y-31698300D01*
X113954092Y-31698300D02*
X113930283Y-31674490D01*
X114358854Y-31222109D02*
X114525520Y-31722109D01*
X114525520Y-31722109D02*
X114692187Y-31222109D01*
D11*
X100016000Y-43180000D02*
X100016000Y-41850000D01*
X100016000Y-41850000D02*
X101346000Y-41850000D01*
X102616000Y-41850000D02*
X107756000Y-41850000D01*
X107756000Y-44510000D02*
X107756000Y-41850000D01*
X102616000Y-44510000D02*
X107756000Y-44510000D01*
X102616000Y-44510000D02*
X102616000Y-41850000D01*
X101032000Y-19050000D02*
X101032000Y-17720000D01*
X101032000Y-17720000D02*
X102362000Y-17720000D01*
X103632000Y-17720000D02*
X108772000Y-17720000D01*
X108772000Y-20380000D02*
X108772000Y-17720000D01*
X103632000Y-20380000D02*
X108772000Y-20380000D01*
X103632000Y-20380000D02*
X103632000Y-17720000D01*
X106366000Y-25654000D02*
X109026000Y-25654000D01*
X106366000Y-25654000D02*
X106366000Y-30794000D01*
X106366000Y-30794000D02*
X109026000Y-30794000D01*
X109026000Y-25654000D02*
X109026000Y-30794000D01*
X109026000Y-23054000D02*
X109026000Y-24384000D01*
X107696000Y-23054000D02*
X109026000Y-23054000D01*
X75886000Y-29718000D02*
X78546000Y-29718000D01*
X75886000Y-29718000D02*
X75886000Y-32318000D01*
X75886000Y-32318000D02*
X78546000Y-32318000D01*
X78546000Y-29718000D02*
X78546000Y-32318000D01*
X78546000Y-27118000D02*
X78546000Y-28448000D01*
X77216000Y-27118000D02*
X78546000Y-27118000D01*
X74616000Y-43180000D02*
X74616000Y-41850000D01*
X74616000Y-41850000D02*
X75946000Y-41850000D01*
X77216000Y-41850000D02*
X79816000Y-41850000D01*
X79816000Y-44510000D02*
X79816000Y-41850000D01*
X77216000Y-44510000D02*
X79816000Y-44510000D01*
X77216000Y-44510000D02*
X77216000Y-41850000D01*
X92964000Y-20380000D02*
X92964000Y-17720000D01*
X92964000Y-20380000D02*
X98104000Y-20380000D01*
X98104000Y-20380000D02*
X98104000Y-17720000D01*
X92964000Y-17720000D02*
X98104000Y-17720000D01*
X90364000Y-17720000D02*
X91694000Y-17720000D01*
X90364000Y-19050000D02*
X90364000Y-17720000D01*
X97596000Y-43180000D02*
X97596000Y-44510000D01*
X97596000Y-44510000D02*
X96266000Y-44510000D01*
X94996000Y-44510000D02*
X82236000Y-44510000D01*
X82236000Y-41850000D02*
X82236000Y-44510000D01*
X94996000Y-41850000D02*
X82236000Y-41850000D01*
X94996000Y-41850000D02*
X94996000Y-44510000D01*
X115376000Y-33528000D02*
X115376000Y-34858000D01*
X115376000Y-34858000D02*
X114046000Y-34858000D01*
X112776000Y-34858000D02*
X102556000Y-34858000D01*
X102556000Y-32198000D02*
X102556000Y-34858000D01*
X112776000Y-32198000D02*
X102556000Y-32198000D01*
X112776000Y-32198000D02*
X112776000Y-34858000D01*
X111506000Y-23054000D02*
X112836000Y-23054000D01*
X112836000Y-23054000D02*
X112836000Y-24384000D01*
X112836000Y-25654000D02*
X112836000Y-30794000D01*
X110176000Y-30794000D02*
X112836000Y-30794000D01*
X110176000Y-25654000D02*
X110176000Y-30794000D01*
X110176000Y-25654000D02*
X112836000Y-25654000D01*
X103886000Y-23054000D02*
X105216000Y-23054000D01*
X105216000Y-23054000D02*
X105216000Y-24384000D01*
X105216000Y-25654000D02*
X105216000Y-30794000D01*
X102556000Y-30794000D02*
X105216000Y-30794000D01*
X102556000Y-25654000D02*
X102556000Y-30794000D01*
X102556000Y-25654000D02*
X105216000Y-25654000D01*
X72136000Y-17720000D02*
X72136000Y-20380000D01*
X72136000Y-17720000D02*
X59376000Y-17720000D01*
X59376000Y-17720000D02*
X59376000Y-20380000D01*
X72136000Y-20380000D02*
X59376000Y-20380000D01*
X74736000Y-20380000D02*
X73406000Y-20380000D01*
X74736000Y-19050000D02*
X74736000Y-20380000D01*
X72136000Y-30420000D02*
X72136000Y-33080000D01*
X72136000Y-30420000D02*
X59376000Y-30420000D01*
X59376000Y-30420000D02*
X59376000Y-33080000D01*
X72136000Y-33080000D02*
X59376000Y-33080000D01*
X74736000Y-33080000D02*
X73406000Y-33080000D01*
X74736000Y-31750000D02*
X74736000Y-33080000D01*
X69596000Y-41850000D02*
X69596000Y-44510000D01*
X69596000Y-41850000D02*
X59376000Y-41850000D01*
X59376000Y-41850000D02*
X59376000Y-44510000D01*
X69596000Y-44510000D02*
X59376000Y-44510000D01*
X72196000Y-44510000D02*
X70866000Y-44510000D01*
X72196000Y-43180000D02*
X72196000Y-44510000D01*
X84836000Y-32318000D02*
X83506000Y-32318000D01*
X83506000Y-32318000D02*
X83506000Y-30988000D01*
X83506000Y-29718000D02*
X83506000Y-24578000D01*
X86166000Y-24578000D02*
X83506000Y-24578000D01*
X86166000Y-29718000D02*
X86166000Y-24578000D01*
X86166000Y-29718000D02*
X83506000Y-29718000D01*
X82356000Y-29718000D02*
X79696000Y-29718000D01*
X82356000Y-29718000D02*
X82356000Y-24578000D01*
X82356000Y-24578000D02*
X79696000Y-24578000D01*
X79696000Y-29718000D02*
X79696000Y-24578000D01*
X79696000Y-32318000D02*
X79696000Y-30988000D01*
X81026000Y-32318000D02*
X79696000Y-32318000D01*
X100898000Y-29718000D02*
X98238000Y-29718000D01*
X100898000Y-29718000D02*
X100898000Y-24578000D01*
X100898000Y-24578000D02*
X98238000Y-24578000D01*
X98238000Y-29718000D02*
X98238000Y-24578000D01*
X98238000Y-32318000D02*
X98238000Y-30988000D01*
X99568000Y-32318000D02*
X98238000Y-32318000D01*
X96266000Y-32318000D02*
X94936000Y-32318000D01*
X94936000Y-32318000D02*
X94936000Y-30988000D01*
X94936000Y-29718000D02*
X94936000Y-24578000D01*
X97596000Y-24578000D02*
X94936000Y-24578000D01*
X97596000Y-29718000D02*
X97596000Y-24578000D01*
X97596000Y-29718000D02*
X94936000Y-29718000D01*
X93786000Y-29718000D02*
X91126000Y-29718000D01*
X93786000Y-29718000D02*
X93786000Y-24578000D01*
X93786000Y-24578000D02*
X91126000Y-24578000D01*
X91126000Y-29718000D02*
X91126000Y-24578000D01*
X91126000Y-32318000D02*
X91126000Y-30988000D01*
X92456000Y-32318000D02*
X91126000Y-32318000D01*
X88646000Y-32318000D02*
X87316000Y-32318000D01*
X87316000Y-32318000D02*
X87316000Y-30988000D01*
X87316000Y-29718000D02*
X87316000Y-24578000D01*
X89976000Y-24578000D02*
X87316000Y-24578000D01*
X89976000Y-29718000D02*
X89976000Y-24578000D01*
X89976000Y-29718000D02*
X87316000Y-29718000D01*
X79756000Y-20380000D02*
X79756000Y-17720000D01*
X79756000Y-20380000D02*
X87436000Y-20380000D01*
X87436000Y-20380000D02*
X87436000Y-17720000D01*
X79756000Y-17720000D02*
X87436000Y-17720000D01*
X77156000Y-17720000D02*
X78486000Y-17720000D01*
X77156000Y-19050000D02*
X77156000Y-17720000D01*
M02*
