G04 #@! TF.GenerationSoftware,KiCad,Pcbnew,8.0.8*
G04 #@! TF.CreationDate,2025-04-06T11:28:41+01:00*
G04 #@! TF.ProjectId,flexbot_PCB07,666c6578-626f-4745-9f50-434230372e6b,rev?*
G04 #@! TF.SameCoordinates,Original*
G04 #@! TF.FileFunction,Copper,L2,Bot*
G04 #@! TF.FilePolarity,Positive*
%FSLAX46Y46*%
G04 Gerber Fmt 4.6, Leading zero omitted, Abs format (unit mm)*
G04 Created by KiCad (PCBNEW 8.0.8) date 2025-04-06 11:28:41*
%MOMM*%
%LPD*%
G01*
G04 APERTURE LIST*
G04 #@! TA.AperFunction,ComponentPad*
%ADD10O,1.700000X1.700000*%
G04 #@! TD*
G04 #@! TA.AperFunction,ComponentPad*
%ADD11R,1.700000X1.700000*%
G04 #@! TD*
G04 #@! TA.AperFunction,ViaPad*
%ADD12C,0.800000*%
G04 #@! TD*
G04 #@! TA.AperFunction,Conductor*
%ADD13C,0.300000*%
G04 #@! TD*
G04 #@! TA.AperFunction,Conductor*
%ADD14C,0.250000*%
G04 #@! TD*
G04 #@! TA.AperFunction,Conductor*
%ADD15C,0.350000*%
G04 #@! TD*
G04 APERTURE END LIST*
D10*
X106426000Y-43180000D03*
X103886000Y-43180000D03*
D11*
X101346000Y-43180000D03*
D10*
X107442000Y-19050000D03*
X104902000Y-19050000D03*
D11*
X102362000Y-19050000D03*
X107696000Y-24384000D03*
D10*
X107696000Y-26924000D03*
X107696000Y-29464000D03*
D11*
X77216000Y-28448000D03*
D10*
X77216000Y-30988000D03*
X78486000Y-43180000D03*
D11*
X75946000Y-43180000D03*
X108966000Y-36830000D03*
D10*
X108966000Y-39370000D03*
X106426000Y-36830000D03*
X106426000Y-39370000D03*
X103886000Y-36830000D03*
X103886000Y-39370000D03*
X101346000Y-36830000D03*
X101346000Y-39370000D03*
X98806000Y-36830000D03*
X98806000Y-39370000D03*
X96266000Y-36830000D03*
X96266000Y-39370000D03*
X93726000Y-36830000D03*
X93726000Y-39370000D03*
X91186000Y-36830000D03*
X91186000Y-39370000D03*
X88646000Y-36830000D03*
X88646000Y-39370000D03*
X86106000Y-36830000D03*
X86106000Y-39370000D03*
X83566000Y-36830000D03*
X83566000Y-39370000D03*
X81026000Y-36830000D03*
X81026000Y-39370000D03*
X78486000Y-36830000D03*
X78486000Y-39370000D03*
X75946000Y-36830000D03*
X75946000Y-39370000D03*
X73406000Y-36830000D03*
X73406000Y-39370000D03*
X70866000Y-36830000D03*
X70866000Y-39370000D03*
X68326000Y-36830000D03*
X68326000Y-39370000D03*
X65786000Y-36830000D03*
X65786000Y-39370000D03*
X63246000Y-36830000D03*
X63246000Y-39370000D03*
X60706000Y-36830000D03*
X60706000Y-39370000D03*
D11*
X91694000Y-19050000D03*
D10*
X94234000Y-19050000D03*
X96774000Y-19050000D03*
X83566000Y-43180000D03*
X86106000Y-43180000D03*
X88646000Y-43180000D03*
X91186000Y-43180000D03*
X93726000Y-43180000D03*
D11*
X96266000Y-43180000D03*
D10*
X103886000Y-33528000D03*
X106426000Y-33528000D03*
X108966000Y-33528000D03*
X111506000Y-33528000D03*
D11*
X114046000Y-33528000D03*
D10*
X111506000Y-29464000D03*
X111506000Y-26924000D03*
D11*
X111506000Y-24384000D03*
D10*
X103886000Y-29464000D03*
X103886000Y-26924000D03*
D11*
X103886000Y-24384000D03*
X73406000Y-19050000D03*
D10*
X70866000Y-19050000D03*
X68326000Y-19050000D03*
X65786000Y-19050000D03*
X63246000Y-19050000D03*
X60706000Y-19050000D03*
D11*
X73406000Y-31750000D03*
D10*
X70866000Y-31750000D03*
X68326000Y-31750000D03*
X65786000Y-31750000D03*
X63246000Y-31750000D03*
X60706000Y-31750000D03*
D11*
X70866000Y-43180000D03*
D10*
X68326000Y-43180000D03*
X65786000Y-43180000D03*
X63246000Y-43180000D03*
X60706000Y-43180000D03*
X84836000Y-25908000D03*
X84836000Y-28448000D03*
D11*
X84836000Y-30988000D03*
X81026000Y-30988000D03*
D10*
X81026000Y-28448000D03*
X81026000Y-25908000D03*
D11*
X99568000Y-30988000D03*
D10*
X99568000Y-28448000D03*
X99568000Y-25908000D03*
X96266000Y-25908000D03*
X96266000Y-28448000D03*
D11*
X96266000Y-30988000D03*
X92456000Y-30988000D03*
D10*
X92456000Y-28448000D03*
X92456000Y-25908000D03*
X88646000Y-25908000D03*
X88646000Y-28448000D03*
D11*
X88646000Y-30988000D03*
X78486000Y-19050000D03*
D10*
X81026000Y-19050000D03*
X83566000Y-19050000D03*
X86106000Y-19050000D03*
D12*
X80772000Y-22352000D03*
X76708000Y-23876000D03*
X92456000Y-34036000D03*
X94234000Y-23114000D03*
X113030000Y-38608000D03*
X111252000Y-36830000D03*
X74676000Y-25400000D03*
X69088000Y-25400000D03*
D13*
X78232000Y-22352000D02*
X80772000Y-22352000D01*
X76708000Y-23876000D02*
X78232000Y-22352000D01*
X92456000Y-34036000D02*
X94234000Y-32258000D01*
X94234000Y-32258000D02*
X94234000Y-23114000D01*
D14*
X113030000Y-38608000D02*
X111252000Y-36830000D01*
D15*
X72644000Y-25400000D02*
X69088000Y-25400000D01*
X72644000Y-25400000D02*
X72136000Y-25400000D01*
X74676000Y-25400000D02*
X72644000Y-25400000D01*
G04 #@! TA.AperFunction,Conductor*
G36*
X68755601Y-38851667D02*
G01*
X68796803Y-38879197D01*
X68804813Y-38891186D01*
X68816803Y-38899197D01*
X68844333Y-38940399D01*
X68854000Y-38989000D01*
X68854000Y-39751000D01*
X68844333Y-39799601D01*
X68816803Y-39840803D01*
X68804813Y-39848813D01*
X68796803Y-39860803D01*
X68755601Y-39888333D01*
X68707000Y-39898000D01*
X67945000Y-39898000D01*
X67896399Y-39888333D01*
X67855197Y-39860803D01*
X67847186Y-39848813D01*
X67835197Y-39840803D01*
X67807667Y-39799601D01*
X67798000Y-39751000D01*
X67798000Y-38989000D01*
X67807667Y-38940399D01*
X67835197Y-38899197D01*
X67847186Y-38891186D01*
X67855197Y-38879197D01*
X67896399Y-38851667D01*
X67945000Y-38842000D01*
X68707000Y-38842000D01*
X68755601Y-38851667D01*
G37*
G04 #@! TD.AperFunction*
G04 #@! TA.AperFunction,Conductor*
G36*
X86535601Y-38851667D02*
G01*
X86576803Y-38879197D01*
X86584813Y-38891186D01*
X86596803Y-38899197D01*
X86624333Y-38940399D01*
X86634000Y-38989000D01*
X86634000Y-39751000D01*
X86624333Y-39799601D01*
X86596803Y-39840803D01*
X86584813Y-39848813D01*
X86576803Y-39860803D01*
X86535601Y-39888333D01*
X86487000Y-39898000D01*
X85725000Y-39898000D01*
X85676399Y-39888333D01*
X85635197Y-39860803D01*
X85627186Y-39848813D01*
X85615197Y-39840803D01*
X85587667Y-39799601D01*
X85578000Y-39751000D01*
X85578000Y-38989000D01*
X85587667Y-38940399D01*
X85615197Y-38899197D01*
X85627186Y-38891186D01*
X85635197Y-38879197D01*
X85676399Y-38851667D01*
X85725000Y-38842000D01*
X86487000Y-38842000D01*
X86535601Y-38851667D01*
G37*
G04 #@! TD.AperFunction*
G04 #@! TA.AperFunction,Conductor*
G36*
X94155601Y-38851667D02*
G01*
X94196803Y-38879197D01*
X94204813Y-38891186D01*
X94216803Y-38899197D01*
X94244333Y-38940399D01*
X94254000Y-38989000D01*
X94254000Y-39751000D01*
X94244333Y-39799601D01*
X94216803Y-39840803D01*
X94204813Y-39848813D01*
X94196803Y-39860803D01*
X94155601Y-39888333D01*
X94107000Y-39898000D01*
X93345000Y-39898000D01*
X93296399Y-39888333D01*
X93255197Y-39860803D01*
X93247186Y-39848813D01*
X93235197Y-39840803D01*
X93207667Y-39799601D01*
X93198000Y-39751000D01*
X93198000Y-38989000D01*
X93207667Y-38940399D01*
X93235197Y-38899197D01*
X93247186Y-38891186D01*
X93255197Y-38879197D01*
X93296399Y-38851667D01*
X93345000Y-38842000D01*
X94107000Y-38842000D01*
X94155601Y-38851667D01*
G37*
G04 #@! TD.AperFunction*
G04 #@! TA.AperFunction,Conductor*
G36*
X116203601Y-16061667D02*
G01*
X116244803Y-16089197D01*
X116272333Y-16130399D01*
X116282000Y-16179000D01*
X116282001Y-45797000D01*
X116272334Y-45845601D01*
X116244804Y-45886803D01*
X116203602Y-45914333D01*
X116155001Y-45924000D01*
X57835000Y-45924000D01*
X57786399Y-45914333D01*
X57745197Y-45886803D01*
X57717667Y-45845601D01*
X57708000Y-45797000D01*
X57708000Y-39370000D01*
X58830971Y-39370000D01*
X58866998Y-39735799D01*
X58973698Y-40087540D01*
X59146970Y-40411710D01*
X59380154Y-40695845D01*
X59664289Y-40929029D01*
X59988459Y-41102301D01*
X60157136Y-41153469D01*
X60200838Y-41176828D01*
X60232274Y-41215133D01*
X60246658Y-41262552D01*
X60241801Y-41311866D01*
X60218442Y-41355568D01*
X60180137Y-41387004D01*
X60157136Y-41396531D01*
X59988459Y-41447698D01*
X59664289Y-41620970D01*
X59380154Y-41854154D01*
X59146970Y-42138289D01*
X58973698Y-42462459D01*
X58866998Y-42814200D01*
X58830971Y-43180000D01*
X58866998Y-43545799D01*
X58973698Y-43897540D01*
X59146970Y-44221710D01*
X59380154Y-44505845D01*
X59664289Y-44739029D01*
X59988459Y-44912301D01*
X60340200Y-45019001D01*
X60614326Y-45046000D01*
X60797674Y-45046000D01*
X61071799Y-45019001D01*
X61423540Y-44912301D01*
X61747710Y-44739029D01*
X61895432Y-44617797D01*
X61939134Y-44594438D01*
X61988448Y-44589581D01*
X62035867Y-44603965D01*
X62056568Y-44617797D01*
X62204289Y-44739029D01*
X62528459Y-44912301D01*
X62880200Y-45019001D01*
X63154326Y-45046000D01*
X63337674Y-45046000D01*
X63611799Y-45019001D01*
X63963540Y-44912301D01*
X64287710Y-44739029D01*
X64435432Y-44617797D01*
X64479134Y-44594438D01*
X64528448Y-44589581D01*
X64575867Y-44603965D01*
X64596568Y-44617797D01*
X64744289Y-44739029D01*
X65068459Y-44912301D01*
X65420200Y-45019001D01*
X65694326Y-45046000D01*
X65877674Y-45046000D01*
X66151799Y-45019001D01*
X66503540Y-44912301D01*
X66827710Y-44739029D01*
X66975432Y-44617797D01*
X67019134Y-44594438D01*
X67068448Y-44589581D01*
X67115867Y-44603965D01*
X67136568Y-44617797D01*
X67284289Y-44739029D01*
X67608459Y-44912301D01*
X67960200Y-45019001D01*
X68234326Y-45046000D01*
X68417674Y-45046000D01*
X68691799Y-45019001D01*
X69043540Y-44912301D01*
X69238803Y-44807932D01*
X69286222Y-44793548D01*
X69335536Y-44798405D01*
X69379238Y-44821764D01*
X69448809Y-44878860D01*
X69625313Y-44973203D01*
X69816829Y-45031299D01*
X70022234Y-45051530D01*
X71709766Y-45051530D01*
X71915170Y-45031299D01*
X72106686Y-44973203D01*
X72283190Y-44878860D01*
X72437896Y-44751896D01*
X72564860Y-44597190D01*
X72659203Y-44420686D01*
X72717299Y-44229170D01*
X72737342Y-44025675D01*
X74074658Y-44025675D01*
X74094700Y-44229170D01*
X74152796Y-44420686D01*
X74247139Y-44597190D01*
X74374103Y-44751896D01*
X74528809Y-44878860D01*
X74705313Y-44973203D01*
X74896829Y-45031299D01*
X75100324Y-45051341D01*
X75225066Y-45047577D01*
X75438000Y-44834644D01*
X75438000Y-43688000D01*
X74291356Y-43688000D01*
X74078422Y-43900933D01*
X74074658Y-44025675D01*
X72737342Y-44025675D01*
X72737530Y-44023765D01*
X72737530Y-42336234D01*
X72717299Y-42130829D01*
X72659203Y-41939313D01*
X72564860Y-41762809D01*
X72437896Y-41608103D01*
X72283190Y-41481139D01*
X72106686Y-41386796D01*
X71915170Y-41328700D01*
X71709766Y-41308470D01*
X71704839Y-41308470D01*
X71656238Y-41298803D01*
X71615036Y-41271273D01*
X71587506Y-41230071D01*
X71577839Y-41181470D01*
X71587506Y-41132869D01*
X71615036Y-41091667D01*
X71644972Y-41069466D01*
X71907710Y-40929029D01*
X72061718Y-40802638D01*
X72105420Y-40779279D01*
X72154734Y-40774422D01*
X72202153Y-40788806D01*
X72227025Y-40806214D01*
X72303524Y-40874742D01*
X72621287Y-41062696D01*
X72708341Y-41098749D01*
X72898000Y-40967606D01*
X72898000Y-39815065D01*
X72887667Y-39799601D01*
X72878000Y-39751000D01*
X72878000Y-38989000D01*
X72887667Y-38940399D01*
X72915197Y-38899197D01*
X72927186Y-38891186D01*
X72935197Y-38879197D01*
X72976399Y-38851667D01*
X73025000Y-38842000D01*
X73787000Y-38842000D01*
X73835601Y-38851667D01*
X73876803Y-38879197D01*
X73884813Y-38891186D01*
X73896803Y-38899197D01*
X73924333Y-38940399D01*
X73934000Y-38989000D01*
X73934000Y-39751000D01*
X73924333Y-39799601D01*
X73914000Y-39815065D01*
X73914000Y-40967606D01*
X74103658Y-41098749D01*
X74190712Y-41062696D01*
X74508475Y-40874742D01*
X74584975Y-40806214D01*
X74627626Y-40780987D01*
X74676684Y-40774001D01*
X74724681Y-40786321D01*
X74750282Y-40802638D01*
X74904289Y-40929029D01*
X75167696Y-41069823D01*
X75206001Y-41101259D01*
X75229360Y-41144961D01*
X75234217Y-41194275D01*
X75219833Y-41241694D01*
X75188397Y-41279999D01*
X75144695Y-41303358D01*
X75103998Y-41308769D01*
X75100324Y-41308658D01*
X74896829Y-41328700D01*
X74705313Y-41386796D01*
X74528809Y-41481139D01*
X74374103Y-41608103D01*
X74247139Y-41762809D01*
X74152796Y-41939313D01*
X74094700Y-42130829D01*
X74074658Y-42334324D01*
X74078422Y-42459066D01*
X74291356Y-42672000D01*
X75500934Y-42672000D01*
X75516399Y-42661667D01*
X75565000Y-42652000D01*
X76327000Y-42652000D01*
X76375601Y-42661667D01*
X76416803Y-42689197D01*
X76424813Y-42701186D01*
X76436803Y-42709197D01*
X76464333Y-42750399D01*
X76474000Y-42799000D01*
X76474000Y-43561000D01*
X76464333Y-43609601D01*
X76454000Y-43625065D01*
X76454000Y-44834644D01*
X76666933Y-45047577D01*
X76791675Y-45051341D01*
X76995170Y-45031299D01*
X77186686Y-44973203D01*
X77363190Y-44878860D01*
X77432762Y-44821764D01*
X77476463Y-44798405D01*
X77525778Y-44793547D01*
X77573197Y-44807932D01*
X77768459Y-44912301D01*
X78120200Y-45019001D01*
X78394326Y-45046000D01*
X78577674Y-45046000D01*
X78851799Y-45019001D01*
X79203540Y-44912301D01*
X79527710Y-44739029D01*
X79811845Y-44505845D01*
X80045029Y-44221710D01*
X80218301Y-43897540D01*
X80325001Y-43545799D01*
X80361028Y-43180000D01*
X80325001Y-42814200D01*
X80218301Y-42462459D01*
X80045029Y-42138289D01*
X79811845Y-41854154D01*
X79527710Y-41620970D01*
X79203540Y-41447698D01*
X79034864Y-41396531D01*
X78991162Y-41373172D01*
X78959726Y-41334867D01*
X78945342Y-41287448D01*
X78950199Y-41238134D01*
X78973558Y-41194432D01*
X79011863Y-41162996D01*
X79034864Y-41153469D01*
X79203540Y-41102301D01*
X79527710Y-40929029D01*
X79675432Y-40807797D01*
X79719134Y-40784438D01*
X79768448Y-40779581D01*
X79815867Y-40793965D01*
X79836568Y-40807797D01*
X79984289Y-40929029D01*
X80308459Y-41102301D01*
X80660200Y-41209001D01*
X80934326Y-41236000D01*
X81117674Y-41236000D01*
X81391799Y-41209001D01*
X81743540Y-41102301D01*
X82067710Y-40929029D01*
X82215432Y-40807797D01*
X82259134Y-40784438D01*
X82308448Y-40779581D01*
X82355867Y-40793965D01*
X82376568Y-40807797D01*
X82524289Y-40929029D01*
X82848459Y-41102301D01*
X83017136Y-41153469D01*
X83060838Y-41176828D01*
X83092274Y-41215133D01*
X83106658Y-41262552D01*
X83101801Y-41311866D01*
X83078442Y-41355568D01*
X83040137Y-41387004D01*
X83017136Y-41396531D01*
X82848459Y-41447698D01*
X82524289Y-41620970D01*
X82240154Y-41854154D01*
X82006970Y-42138289D01*
X81833698Y-42462459D01*
X81726998Y-42814200D01*
X81690971Y-43180000D01*
X81726998Y-43545799D01*
X81833698Y-43897540D01*
X82006970Y-44221710D01*
X82240154Y-44505845D01*
X82524289Y-44739029D01*
X82848459Y-44912301D01*
X83200200Y-45019001D01*
X83474326Y-45046000D01*
X83657674Y-45046000D01*
X83931799Y-45019001D01*
X84283540Y-44912301D01*
X84607710Y-44739029D01*
X84755432Y-44617797D01*
X84799134Y-44594438D01*
X84848448Y-44589581D01*
X84895867Y-44603965D01*
X84916568Y-44617797D01*
X85064289Y-44739029D01*
X85388459Y-44912301D01*
X85740200Y-45019001D01*
X86014326Y-45046000D01*
X86197674Y-45046000D01*
X86471799Y-45019001D01*
X86823540Y-44912301D01*
X87147710Y-44739029D01*
X87295432Y-44617797D01*
X87339134Y-44594438D01*
X87388448Y-44589581D01*
X87435867Y-44603965D01*
X87456568Y-44617797D01*
X87604289Y-44739029D01*
X87928459Y-44912301D01*
X88280200Y-45019001D01*
X88554326Y-45046000D01*
X88737674Y-45046000D01*
X89011799Y-45019001D01*
X89363540Y-44912301D01*
X89687710Y-44739029D01*
X89835432Y-44617797D01*
X89879134Y-44594438D01*
X89928448Y-44589581D01*
X89975867Y-44603965D01*
X89996568Y-44617797D01*
X90144289Y-44739029D01*
X90468459Y-44912301D01*
X90820200Y-45019001D01*
X91094326Y-45046000D01*
X91277674Y-45046000D01*
X91551799Y-45019001D01*
X91903540Y-44912301D01*
X92227710Y-44739029D01*
X92375432Y-44617797D01*
X92419134Y-44594438D01*
X92468448Y-44589581D01*
X92515867Y-44603965D01*
X92536568Y-44617797D01*
X92684289Y-44739029D01*
X93008459Y-44912301D01*
X93360200Y-45019001D01*
X93634326Y-45046000D01*
X93817674Y-45046000D01*
X94091799Y-45019001D01*
X94443540Y-44912301D01*
X94638803Y-44807932D01*
X94686222Y-44793548D01*
X94735536Y-44798405D01*
X94779238Y-44821764D01*
X94848809Y-44878860D01*
X95025313Y-44973203D01*
X95216829Y-45031299D01*
X95422234Y-45051530D01*
X97109766Y-45051530D01*
X97315170Y-45031299D01*
X97506686Y-44973203D01*
X97683190Y-44878860D01*
X97837896Y-44751896D01*
X97964860Y-44597190D01*
X98059203Y-44420686D01*
X98117299Y-44229170D01*
X98137530Y-44023765D01*
X98137530Y-42336234D01*
X98117299Y-42130829D01*
X98059203Y-41939313D01*
X97964860Y-41762809D01*
X97837896Y-41608103D01*
X97683190Y-41481139D01*
X97506686Y-41386796D01*
X97315170Y-41328700D01*
X97109766Y-41308470D01*
X97104839Y-41308470D01*
X97056238Y-41298803D01*
X97015036Y-41271273D01*
X96987506Y-41230071D01*
X96977839Y-41181470D01*
X96987506Y-41132869D01*
X97015036Y-41091667D01*
X97044972Y-41069466D01*
X97307710Y-40929029D01*
X97455432Y-40807797D01*
X97499134Y-40784438D01*
X97548448Y-40779581D01*
X97595867Y-40793965D01*
X97616568Y-40807797D01*
X97764289Y-40929029D01*
X98088459Y-41102301D01*
X98440200Y-41209001D01*
X98714326Y-41236000D01*
X98897674Y-41236000D01*
X99171799Y-41209001D01*
X99523540Y-41102301D01*
X99847710Y-40929029D01*
X99995432Y-40807797D01*
X100039134Y-40784438D01*
X100088448Y-40779581D01*
X100135867Y-40793965D01*
X100156568Y-40807797D01*
X100304289Y-40929029D01*
X100567028Y-41069466D01*
X100605333Y-41100902D01*
X100628692Y-41144604D01*
X100633549Y-41193918D01*
X100619165Y-41241337D01*
X100587729Y-41279642D01*
X100544027Y-41303001D01*
X100507161Y-41308470D01*
X100502234Y-41308470D01*
X100296829Y-41328700D01*
X100105313Y-41386796D01*
X99928809Y-41481139D01*
X99774103Y-41608103D01*
X99647139Y-41762809D01*
X99552796Y-41939313D01*
X99494700Y-42130829D01*
X99474470Y-42336234D01*
X99474470Y-44023765D01*
X99494700Y-44229170D01*
X99552796Y-44420686D01*
X99647139Y-44597190D01*
X99774103Y-44751896D01*
X99928809Y-44878860D01*
X100105313Y-44973203D01*
X100296829Y-45031299D01*
X100502234Y-45051530D01*
X102189766Y-45051530D01*
X102395170Y-45031299D01*
X102586686Y-44973203D01*
X102763190Y-44878860D01*
X102840453Y-44815452D01*
X102884154Y-44792093D01*
X102933469Y-44787235D01*
X102980888Y-44801620D01*
X102985677Y-44804314D01*
X103101287Y-44872696D01*
X103188341Y-44908749D01*
X103378000Y-44777606D01*
X103378000Y-43625065D01*
X103367667Y-43609601D01*
X103358000Y-43561000D01*
X103358000Y-42799000D01*
X103367667Y-42750399D01*
X103378000Y-42734934D01*
X103378000Y-41582393D01*
X103188341Y-41451250D01*
X103101287Y-41487303D01*
X102985677Y-41555686D01*
X102938924Y-41572108D01*
X102889446Y-41569388D01*
X102844775Y-41547941D01*
X102840453Y-41544548D01*
X102763190Y-41481139D01*
X102586686Y-41386796D01*
X102395170Y-41328700D01*
X102189766Y-41308470D01*
X102184839Y-41308470D01*
X102136238Y-41298803D01*
X102095036Y-41271273D01*
X102067506Y-41230071D01*
X102057839Y-41181470D01*
X102067506Y-41132869D01*
X102095036Y-41091667D01*
X102124972Y-41069466D01*
X102387710Y-40929029D01*
X102541718Y-40802638D01*
X102585420Y-40779279D01*
X102634734Y-40774422D01*
X102682153Y-40788806D01*
X102707025Y-40806214D01*
X102783524Y-40874742D01*
X103101287Y-41062696D01*
X103188341Y-41098749D01*
X103378000Y-40967606D01*
X103378000Y-39815065D01*
X103367667Y-39799601D01*
X103358000Y-39751000D01*
X103358000Y-38989000D01*
X103367667Y-38940399D01*
X103395197Y-38899197D01*
X103407186Y-38891186D01*
X103415197Y-38879197D01*
X103456399Y-38851667D01*
X103505000Y-38842000D01*
X104267000Y-38842000D01*
X104315601Y-38851667D01*
X104356803Y-38879197D01*
X104364813Y-38891186D01*
X104376803Y-38899197D01*
X104404333Y-38940399D01*
X104414000Y-38989000D01*
X104414000Y-39751000D01*
X104404333Y-39799601D01*
X104394000Y-39815065D01*
X104394000Y-40967606D01*
X104583658Y-41098749D01*
X104670712Y-41062696D01*
X104988475Y-40874742D01*
X105064975Y-40806214D01*
X105107626Y-40780987D01*
X105156684Y-40774001D01*
X105204681Y-40786321D01*
X105230282Y-40802638D01*
X105384289Y-40929029D01*
X105708459Y-41102301D01*
X105877136Y-41153469D01*
X105920838Y-41176828D01*
X105952274Y-41215133D01*
X105966658Y-41262552D01*
X105961801Y-41311866D01*
X105938442Y-41355568D01*
X105900137Y-41387004D01*
X105877136Y-41396531D01*
X105708459Y-41447698D01*
X105384289Y-41620970D01*
X105230282Y-41747362D01*
X105186580Y-41770721D01*
X105137266Y-41775578D01*
X105089847Y-41761194D01*
X105064975Y-41743786D01*
X104988475Y-41675257D01*
X104670712Y-41487303D01*
X104583658Y-41451250D01*
X104394000Y-41582393D01*
X104394000Y-42734934D01*
X104404333Y-42750399D01*
X104414000Y-42799000D01*
X104414000Y-43561000D01*
X104404333Y-43609601D01*
X104394000Y-43625065D01*
X104394000Y-44777606D01*
X104583658Y-44908749D01*
X104670712Y-44872696D01*
X104988475Y-44684742D01*
X105064975Y-44616214D01*
X105107626Y-44590987D01*
X105156684Y-44584001D01*
X105204681Y-44596321D01*
X105230282Y-44612638D01*
X105384289Y-44739029D01*
X105708459Y-44912301D01*
X106060200Y-45019001D01*
X106334326Y-45046000D01*
X106517674Y-45046000D01*
X106791799Y-45019001D01*
X107143540Y-44912301D01*
X107467710Y-44739029D01*
X107751845Y-44505845D01*
X107985029Y-44221710D01*
X108158301Y-43897540D01*
X108265001Y-43545799D01*
X108301028Y-43179999D01*
X108280503Y-42971593D01*
X111168000Y-42971593D01*
X111168000Y-43388406D01*
X111249316Y-43797213D01*
X111408825Y-44182303D01*
X111640393Y-44528868D01*
X111935131Y-44823606D01*
X112281696Y-45055174D01*
X112666786Y-45214683D01*
X113075593Y-45296000D01*
X113492407Y-45296000D01*
X113901213Y-45214683D01*
X114286303Y-45055174D01*
X114632868Y-44823606D01*
X114927606Y-44528868D01*
X115159174Y-44182303D01*
X115318683Y-43797213D01*
X115400000Y-43388406D01*
X115400000Y-42971593D01*
X115318683Y-42562786D01*
X115159174Y-42177696D01*
X114927606Y-41831131D01*
X114632868Y-41536393D01*
X114286303Y-41304825D01*
X113901213Y-41145316D01*
X113492407Y-41064000D01*
X113075593Y-41064000D01*
X112666786Y-41145316D01*
X112281696Y-41304825D01*
X111935131Y-41536393D01*
X111640393Y-41831131D01*
X111408825Y-42177696D01*
X111249316Y-42562786D01*
X111168000Y-42971593D01*
X108280503Y-42971593D01*
X108280497Y-42971532D01*
X108265001Y-42814200D01*
X108158301Y-42462459D01*
X107985029Y-42138289D01*
X107751845Y-41854154D01*
X107467710Y-41620970D01*
X107143540Y-41447698D01*
X106974864Y-41396531D01*
X106931162Y-41373172D01*
X106899726Y-41334867D01*
X106885342Y-41287448D01*
X106890199Y-41238134D01*
X106913558Y-41194432D01*
X106951863Y-41162996D01*
X106974864Y-41153469D01*
X107143540Y-41102301D01*
X107467710Y-40929029D01*
X107615432Y-40807797D01*
X107659134Y-40784438D01*
X107708448Y-40779581D01*
X107755867Y-40793965D01*
X107776568Y-40807797D01*
X107924289Y-40929029D01*
X108248459Y-41102301D01*
X108600200Y-41209001D01*
X108874326Y-41236000D01*
X109057674Y-41236000D01*
X109331799Y-41209001D01*
X109683540Y-41102301D01*
X110007710Y-40929029D01*
X110291845Y-40695845D01*
X110525029Y-40411710D01*
X110698301Y-40087540D01*
X110805001Y-39735799D01*
X110841028Y-39370000D01*
X110805001Y-39004200D01*
X110698301Y-38652459D01*
X110593932Y-38457197D01*
X110579548Y-38409778D01*
X110584405Y-38360464D01*
X110607764Y-38316762D01*
X110664861Y-38247189D01*
X110666496Y-38244131D01*
X110697933Y-38205826D01*
X110741635Y-38182468D01*
X110790949Y-38177612D01*
X110827102Y-38186668D01*
X110838968Y-38191583D01*
X111002158Y-38224044D01*
X111047939Y-38243007D01*
X111067185Y-38258802D01*
X111601199Y-38792817D01*
X111628729Y-38834018D01*
X111635956Y-38857842D01*
X111668416Y-39021032D01*
X111775158Y-39278730D01*
X111930118Y-39510643D01*
X112127356Y-39707881D01*
X112359269Y-39862841D01*
X112616967Y-39969583D01*
X112890538Y-40024000D01*
X113169462Y-40024000D01*
X113443032Y-39969583D01*
X113700730Y-39862841D01*
X113932643Y-39707881D01*
X114129881Y-39510643D01*
X114284841Y-39278730D01*
X114391583Y-39021032D01*
X114446000Y-38747461D01*
X114446000Y-38468538D01*
X114391583Y-38194967D01*
X114284841Y-37937269D01*
X114129881Y-37705356D01*
X113932643Y-37508118D01*
X113700730Y-37353158D01*
X113443032Y-37246416D01*
X113279842Y-37213956D01*
X113234061Y-37194993D01*
X113214817Y-37179199D01*
X112680802Y-36645185D01*
X112653271Y-36603983D01*
X112646044Y-36580158D01*
X112613583Y-36416968D01*
X112506841Y-36159269D01*
X112351881Y-35927356D01*
X112154643Y-35730118D01*
X111922730Y-35575158D01*
X111838401Y-35540228D01*
X111797199Y-35512698D01*
X111769669Y-35471496D01*
X111760002Y-35422895D01*
X111760002Y-35192195D01*
X111769669Y-35143594D01*
X111797199Y-35102392D01*
X111838401Y-35074862D01*
X111887002Y-35065195D01*
X111935603Y-35074862D01*
X111959233Y-35087736D01*
X112203658Y-35256749D01*
X112290712Y-35220696D01*
X112406323Y-35152314D01*
X112453076Y-35135892D01*
X112502554Y-35138612D01*
X112547225Y-35160059D01*
X112551547Y-35163452D01*
X112628809Y-35226860D01*
X112805313Y-35321203D01*
X112996829Y-35379299D01*
X113202234Y-35399530D01*
X114889766Y-35399530D01*
X115095170Y-35379299D01*
X115286686Y-35321203D01*
X115463190Y-35226860D01*
X115617896Y-35099896D01*
X115744860Y-34945190D01*
X115839203Y-34768686D01*
X115897299Y-34577170D01*
X115917530Y-34371765D01*
X115917530Y-32684234D01*
X115897299Y-32478829D01*
X115839203Y-32287313D01*
X115744860Y-32110809D01*
X115617896Y-31956103D01*
X115463190Y-31829139D01*
X115286686Y-31734796D01*
X115095170Y-31676700D01*
X114889766Y-31656470D01*
X113202234Y-31656470D01*
X112996829Y-31676700D01*
X112805313Y-31734796D01*
X112628809Y-31829139D01*
X112551547Y-31892548D01*
X112507846Y-31915907D01*
X112458531Y-31920765D01*
X112411112Y-31906380D01*
X112406323Y-31903686D01*
X112290712Y-31835303D01*
X112203658Y-31799250D01*
X112014000Y-31930393D01*
X112014000Y-33082934D01*
X112024333Y-33098399D01*
X112034000Y-33147000D01*
X112034000Y-33909000D01*
X112024333Y-33957601D01*
X111996803Y-33998803D01*
X111984813Y-34006813D01*
X111976803Y-34018803D01*
X111935601Y-34046333D01*
X111887000Y-34056000D01*
X111125000Y-34056000D01*
X111076399Y-34046333D01*
X111035197Y-34018803D01*
X111027186Y-34006813D01*
X111015197Y-33998803D01*
X110987667Y-33957601D01*
X110978000Y-33909000D01*
X110978000Y-33147000D01*
X110987667Y-33098399D01*
X110998000Y-33082934D01*
X110998000Y-31930393D01*
X110808341Y-31799250D01*
X110721287Y-31835303D01*
X110403524Y-32023257D01*
X110327025Y-32091786D01*
X110284374Y-32117013D01*
X110235316Y-32123999D01*
X110187319Y-32111679D01*
X110161718Y-32095362D01*
X110007710Y-31968970D01*
X109683540Y-31795698D01*
X109331799Y-31688998D01*
X109057674Y-31662000D01*
X108874326Y-31662000D01*
X108600200Y-31688998D01*
X108248459Y-31795698D01*
X107924289Y-31968970D01*
X107776568Y-32090203D01*
X107732866Y-32113562D01*
X107683552Y-32118419D01*
X107636133Y-32104035D01*
X107615432Y-32090203D01*
X107467710Y-31968970D01*
X107143540Y-31795698D01*
X106791799Y-31688998D01*
X106517674Y-31662000D01*
X106334326Y-31662000D01*
X106060200Y-31688998D01*
X105708459Y-31795698D01*
X105384289Y-31968970D01*
X105236568Y-32090203D01*
X105192866Y-32113562D01*
X105143552Y-32118419D01*
X105096133Y-32104035D01*
X105075432Y-32090203D01*
X104927710Y-31968970D01*
X104603540Y-31795698D01*
X104251799Y-31688998D01*
X103977674Y-31662000D01*
X103794326Y-31662000D01*
X103520200Y-31688998D01*
X103168459Y-31795698D01*
X102844289Y-31968970D01*
X102560154Y-32202154D01*
X102326970Y-32486289D01*
X102153698Y-32810459D01*
X102046998Y-33162200D01*
X102010971Y-33528000D01*
X102046998Y-33893799D01*
X102153698Y-34245540D01*
X102326970Y-34569710D01*
X102560154Y-34853845D01*
X102836733Y-35080828D01*
X102868169Y-35119133D01*
X102882553Y-35166552D01*
X102877696Y-35215866D01*
X102854337Y-35259568D01*
X102836733Y-35277172D01*
X102696568Y-35392203D01*
X102652866Y-35415562D01*
X102603552Y-35420419D01*
X102556133Y-35406035D01*
X102535432Y-35392203D01*
X102387710Y-35270970D01*
X102063540Y-35097698D01*
X101711799Y-34990998D01*
X101437674Y-34964000D01*
X101254326Y-34964000D01*
X100980200Y-34990998D01*
X100628459Y-35097698D01*
X100304289Y-35270970D01*
X100150282Y-35397362D01*
X100106580Y-35420721D01*
X100057266Y-35425578D01*
X100009847Y-35411194D01*
X99984975Y-35393786D01*
X99908475Y-35325257D01*
X99590712Y-35137303D01*
X99503658Y-35101250D01*
X99314000Y-35232393D01*
X99314000Y-36384934D01*
X99324333Y-36400399D01*
X99334000Y-36449000D01*
X99334000Y-37211000D01*
X99324333Y-37259601D01*
X99296803Y-37300803D01*
X99284813Y-37308813D01*
X99276803Y-37320803D01*
X99235601Y-37348333D01*
X99187000Y-37358000D01*
X98425000Y-37358000D01*
X98376399Y-37348333D01*
X98335197Y-37320803D01*
X98327186Y-37308813D01*
X98315197Y-37300803D01*
X98287667Y-37259601D01*
X98278000Y-37211000D01*
X98278000Y-36449000D01*
X98287667Y-36400399D01*
X98298000Y-36384934D01*
X98298000Y-35232393D01*
X98108341Y-35101250D01*
X98021287Y-35137303D01*
X97703524Y-35325257D01*
X97627025Y-35393786D01*
X97584374Y-35419013D01*
X97535316Y-35425999D01*
X97487319Y-35413679D01*
X97461718Y-35397362D01*
X97307710Y-35270970D01*
X96983540Y-35097698D01*
X96631799Y-34990998D01*
X96357674Y-34964000D01*
X96174326Y-34964000D01*
X95900200Y-34990998D01*
X95548459Y-35097698D01*
X95224289Y-35270970D01*
X95076568Y-35392203D01*
X95032866Y-35415562D01*
X94983552Y-35420419D01*
X94936133Y-35406035D01*
X94915432Y-35392203D01*
X94767710Y-35270970D01*
X94443540Y-35097698D01*
X94091799Y-34990998D01*
X93817674Y-34964000D01*
X93776539Y-34964000D01*
X93727938Y-34954333D01*
X93686736Y-34926803D01*
X93659206Y-34885601D01*
X93649539Y-34837000D01*
X93659206Y-34788399D01*
X93670943Y-34766442D01*
X93710841Y-34706730D01*
X93817583Y-34449032D01*
X93841265Y-34329976D01*
X93860228Y-34284196D01*
X93876022Y-34264950D01*
X95013570Y-33127402D01*
X95022805Y-33119032D01*
X95062478Y-33086472D01*
X95216120Y-32899260D01*
X95217467Y-32900365D01*
X95235415Y-32878500D01*
X95279119Y-32855144D01*
X95328425Y-32850290D01*
X95420325Y-32859341D01*
X95545066Y-32855577D01*
X95758000Y-32642644D01*
X96774000Y-32642644D01*
X96986933Y-32855577D01*
X97111675Y-32859341D01*
X97315170Y-32839299D01*
X97506686Y-32781203D01*
X97683190Y-32686860D01*
X97836432Y-32561098D01*
X97880134Y-32537739D01*
X97929448Y-32532882D01*
X97976867Y-32547266D01*
X97997568Y-32561098D01*
X98150809Y-32686860D01*
X98327313Y-32781203D01*
X98518829Y-32839299D01*
X98722324Y-32859341D01*
X98847066Y-32855577D01*
X99060000Y-32642644D01*
X100076000Y-32642644D01*
X100288933Y-32855577D01*
X100413675Y-32859341D01*
X100617170Y-32839299D01*
X100808686Y-32781203D01*
X100985190Y-32686860D01*
X101139896Y-32559896D01*
X101266860Y-32405190D01*
X101361203Y-32228686D01*
X101419299Y-32037170D01*
X101439341Y-31833675D01*
X101435577Y-31708933D01*
X101222644Y-31496000D01*
X100076000Y-31496000D01*
X100076000Y-32642644D01*
X99060000Y-32642644D01*
X99060000Y-31496000D01*
X96774000Y-31496000D01*
X96774000Y-32642644D01*
X95758000Y-32642644D01*
X95758000Y-31433065D01*
X95747667Y-31417601D01*
X95738000Y-31369000D01*
X95738000Y-30607000D01*
X95747667Y-30558399D01*
X95775197Y-30517197D01*
X95787186Y-30509186D01*
X95795197Y-30497197D01*
X95836399Y-30469667D01*
X95885000Y-30460000D01*
X96647000Y-30460000D01*
X96695601Y-30469667D01*
X96711066Y-30480000D01*
X99122934Y-30480000D01*
X99138399Y-30469667D01*
X99187000Y-30460000D01*
X99949000Y-30460000D01*
X99997601Y-30469667D01*
X100013066Y-30480000D01*
X101222644Y-30480000D01*
X101435577Y-30267066D01*
X101438758Y-30161658D01*
X102157250Y-30161658D01*
X102193303Y-30248712D01*
X102381257Y-30566475D01*
X102625256Y-30838855D01*
X102917695Y-31058392D01*
X103193209Y-31190669D01*
X103378000Y-31066755D01*
X104394000Y-31066755D01*
X104578790Y-31190669D01*
X104854304Y-31058392D01*
X105146743Y-30838855D01*
X105390742Y-30566475D01*
X105578696Y-30248712D01*
X105614749Y-30161658D01*
X105967250Y-30161658D01*
X106003303Y-30248712D01*
X106191257Y-30566475D01*
X106435256Y-30838855D01*
X106727695Y-31058392D01*
X107003209Y-31190669D01*
X107188000Y-31066755D01*
X108204000Y-31066755D01*
X108388790Y-31190669D01*
X108664304Y-31058392D01*
X108956743Y-30838855D01*
X109200742Y-30566475D01*
X109388696Y-30248712D01*
X109424749Y-30161658D01*
X109777250Y-30161658D01*
X109813303Y-30248712D01*
X110001257Y-30566475D01*
X110245256Y-30838855D01*
X110537695Y-31058392D01*
X110813209Y-31190669D01*
X110998000Y-31066755D01*
X112014000Y-31066755D01*
X112198790Y-31190669D01*
X112474304Y-31058392D01*
X112766743Y-30838855D01*
X113010742Y-30566475D01*
X113198696Y-30248712D01*
X113234749Y-30161658D01*
X113103606Y-29972000D01*
X112014000Y-29972000D01*
X112014000Y-31066755D01*
X110998000Y-31066755D01*
X110998000Y-29972000D01*
X109908394Y-29972000D01*
X109777250Y-30161658D01*
X109424749Y-30161658D01*
X109293606Y-29972000D01*
X108204000Y-29972000D01*
X108204000Y-31066755D01*
X107188000Y-31066755D01*
X107188000Y-29972000D01*
X106098394Y-29972000D01*
X105967250Y-30161658D01*
X105614749Y-30161658D01*
X105483606Y-29972000D01*
X104394000Y-29972000D01*
X104394000Y-31066755D01*
X103378000Y-31066755D01*
X103378000Y-29972000D01*
X102288394Y-29972000D01*
X102157250Y-30161658D01*
X101438758Y-30161658D01*
X101439336Y-30142503D01*
X101439336Y-30142494D01*
X101439341Y-30142316D01*
X101419299Y-29938829D01*
X101361203Y-29747313D01*
X101266860Y-29570809D01*
X101209764Y-29501238D01*
X101186405Y-29457537D01*
X101181547Y-29408222D01*
X101195932Y-29360803D01*
X101300301Y-29165540D01*
X101407001Y-28813799D01*
X101443028Y-28448000D01*
X101407001Y-28082200D01*
X101300301Y-27730459D01*
X101127029Y-27406289D01*
X101005797Y-27258568D01*
X100982438Y-27214866D01*
X100977581Y-27165552D01*
X100991965Y-27118133D01*
X101005797Y-27097432D01*
X101127029Y-26949710D01*
X101140771Y-26924000D01*
X102010971Y-26924000D01*
X102046998Y-27289799D01*
X102153698Y-27641540D01*
X102326970Y-27965710D01*
X102453362Y-28119718D01*
X102476721Y-28163420D01*
X102481578Y-28212734D01*
X102467194Y-28260153D01*
X102449786Y-28285025D01*
X102381257Y-28361524D01*
X102193303Y-28679287D01*
X102157250Y-28766341D01*
X102288394Y-28956000D01*
X103440934Y-28956000D01*
X103456399Y-28945667D01*
X103505000Y-28936000D01*
X104267000Y-28936000D01*
X104315601Y-28945667D01*
X104331066Y-28956000D01*
X105483606Y-28956000D01*
X105614749Y-28766341D01*
X105578696Y-28679287D01*
X105390742Y-28361524D01*
X105322214Y-28285025D01*
X105296987Y-28242374D01*
X105290001Y-28193316D01*
X105302321Y-28145319D01*
X105318638Y-28119718D01*
X105445029Y-27965710D01*
X105618301Y-27641540D01*
X105669469Y-27472864D01*
X105692828Y-27429162D01*
X105731133Y-27397726D01*
X105778552Y-27383342D01*
X105827866Y-27388199D01*
X105871568Y-27411558D01*
X105903004Y-27449863D01*
X105912531Y-27472864D01*
X105963698Y-27641540D01*
X106136970Y-27965710D01*
X106263362Y-28119718D01*
X106286721Y-28163420D01*
X106291578Y-28212734D01*
X106277194Y-28260153D01*
X106259786Y-28285025D01*
X106191257Y-28361524D01*
X106003303Y-28679287D01*
X105967250Y-28766341D01*
X106098394Y-28956000D01*
X107250934Y-28956000D01*
X107266399Y-28945667D01*
X107315000Y-28936000D01*
X108077000Y-28936000D01*
X108125601Y-28945667D01*
X108141066Y-28956000D01*
X109293606Y-28956000D01*
X109424749Y-28766341D01*
X109388696Y-28679287D01*
X109200742Y-28361524D01*
X109132214Y-28285025D01*
X109106987Y-28242374D01*
X109100001Y-28193316D01*
X109112321Y-28145319D01*
X109128638Y-28119718D01*
X109255029Y-27965710D01*
X109428301Y-27641540D01*
X109479469Y-27472864D01*
X109502828Y-27429162D01*
X109541133Y-27397726D01*
X109588552Y-27383342D01*
X109637866Y-27388199D01*
X109681568Y-27411558D01*
X109713004Y-27449863D01*
X109722531Y-27472864D01*
X109773698Y-27641540D01*
X109946970Y-27965710D01*
X110073362Y-28119718D01*
X110096721Y-28163420D01*
X110101578Y-28212734D01*
X110087194Y-28260153D01*
X110069786Y-28285025D01*
X110001257Y-28361524D01*
X109813303Y-28679287D01*
X109777250Y-28766341D01*
X109908394Y-28956000D01*
X111060934Y-28956000D01*
X111076399Y-28945667D01*
X111125000Y-28936000D01*
X111887000Y-28936000D01*
X111935601Y-28945667D01*
X111951066Y-28956000D01*
X113103606Y-28956000D01*
X113234749Y-28766341D01*
X113198696Y-28679287D01*
X113010742Y-28361524D01*
X112942214Y-28285025D01*
X112916987Y-28242374D01*
X112910001Y-28193316D01*
X112922321Y-28145319D01*
X112938638Y-28119718D01*
X113065029Y-27965710D01*
X113238301Y-27641540D01*
X113345001Y-27289799D01*
X113381028Y-26924000D01*
X113345001Y-26558200D01*
X113238301Y-26206459D01*
X113133932Y-26011197D01*
X113119548Y-25963778D01*
X113124405Y-25914464D01*
X113147764Y-25870762D01*
X113204860Y-25801190D01*
X113299203Y-25624686D01*
X113357299Y-25433170D01*
X113377530Y-25227765D01*
X113377530Y-23540234D01*
X113357299Y-23334829D01*
X113299203Y-23143313D01*
X113204860Y-22966809D01*
X113077896Y-22812103D01*
X112923190Y-22685139D01*
X112746686Y-22590796D01*
X112555170Y-22532700D01*
X112349766Y-22512470D01*
X110662234Y-22512470D01*
X110456829Y-22532700D01*
X110265313Y-22590796D01*
X110088809Y-22685139D01*
X109934103Y-22812103D01*
X109807139Y-22966809D01*
X109713004Y-23142926D01*
X109681568Y-23181231D01*
X109637867Y-23204590D01*
X109588552Y-23209447D01*
X109541133Y-23195063D01*
X109502828Y-23163627D01*
X109488996Y-23142926D01*
X109394860Y-22966809D01*
X109267896Y-22812103D01*
X109113190Y-22685139D01*
X108936686Y-22590796D01*
X108745170Y-22532700D01*
X108539766Y-22512470D01*
X106852234Y-22512470D01*
X106646829Y-22532700D01*
X106455313Y-22590796D01*
X106278809Y-22685139D01*
X106124103Y-22812103D01*
X105997139Y-22966809D01*
X105903004Y-23142926D01*
X105871568Y-23181231D01*
X105827867Y-23204590D01*
X105778552Y-23209447D01*
X105731133Y-23195063D01*
X105692828Y-23163627D01*
X105678996Y-23142926D01*
X105584860Y-22966809D01*
X105457896Y-22812103D01*
X105303190Y-22685139D01*
X105126686Y-22590796D01*
X104935170Y-22532700D01*
X104729766Y-22512470D01*
X103042234Y-22512470D01*
X102836829Y-22532700D01*
X102645313Y-22590796D01*
X102468809Y-22685139D01*
X102314103Y-22812103D01*
X102187139Y-22966809D01*
X102092796Y-23143313D01*
X102034700Y-23334829D01*
X102014470Y-23540234D01*
X102014470Y-25227765D01*
X102034700Y-25433170D01*
X102092796Y-25624686D01*
X102187139Y-25801190D01*
X102244236Y-25870762D01*
X102267595Y-25914463D01*
X102272453Y-25963778D01*
X102258068Y-26011197D01*
X102153698Y-26206459D01*
X102046998Y-26558200D01*
X102010971Y-26924000D01*
X101140771Y-26924000D01*
X101172771Y-26864133D01*
X101300301Y-26625540D01*
X101407001Y-26273799D01*
X101443028Y-25908000D01*
X101407001Y-25542200D01*
X101300301Y-25190459D01*
X101127029Y-24866289D01*
X100893845Y-24582154D01*
X100609710Y-24348970D01*
X100285540Y-24175698D01*
X99933799Y-24068998D01*
X99659674Y-24042000D01*
X99476326Y-24042000D01*
X99202200Y-24068998D01*
X98850459Y-24175698D01*
X98526289Y-24348970D01*
X98242154Y-24582154D01*
X98015172Y-24858733D01*
X97976867Y-24890169D01*
X97929448Y-24904553D01*
X97880134Y-24899696D01*
X97836432Y-24876337D01*
X97818828Y-24858733D01*
X97591845Y-24582154D01*
X97307710Y-24348970D01*
X96983540Y-24175698D01*
X96631799Y-24068998D01*
X96357674Y-24042000D01*
X96174326Y-24042000D01*
X95900200Y-24068998D01*
X95563866Y-24171025D01*
X95514552Y-24175882D01*
X95467133Y-24161498D01*
X95428828Y-24130062D01*
X95405469Y-24086360D01*
X95400000Y-24049494D01*
X95400000Y-23956215D01*
X95409667Y-23907614D01*
X95421404Y-23885657D01*
X95488841Y-23784730D01*
X95595583Y-23527032D01*
X95650000Y-23253461D01*
X95650000Y-22974538D01*
X95595583Y-22700967D01*
X95488841Y-22443269D01*
X95333881Y-22211356D01*
X95136643Y-22014118D01*
X94904730Y-21859158D01*
X94647032Y-21752416D01*
X94373462Y-21698000D01*
X94094538Y-21698000D01*
X93820967Y-21752416D01*
X93563269Y-21859158D01*
X93331356Y-22014118D01*
X93134118Y-22211356D01*
X92979158Y-22443269D01*
X92872416Y-22700967D01*
X92818000Y-22974538D01*
X92818000Y-23253461D01*
X92872416Y-23527032D01*
X92979158Y-23784730D01*
X93046597Y-23885659D01*
X93065561Y-23931440D01*
X93068001Y-23956217D01*
X93068001Y-23972444D01*
X93058334Y-24021045D01*
X93030804Y-24062247D01*
X92989602Y-24089777D01*
X92941001Y-24099444D01*
X92904135Y-24093975D01*
X92821799Y-24068998D01*
X92547674Y-24042000D01*
X92364326Y-24042000D01*
X92090200Y-24068998D01*
X91738459Y-24175698D01*
X91414289Y-24348970D01*
X91130154Y-24582154D01*
X90896970Y-24866289D01*
X90723698Y-25190459D01*
X90672531Y-25359136D01*
X90649172Y-25402838D01*
X90610867Y-25434274D01*
X90563448Y-25448658D01*
X90514134Y-25443801D01*
X90470432Y-25420442D01*
X90438996Y-25382137D01*
X90429469Y-25359136D01*
X90378301Y-25190459D01*
X90205029Y-24866289D01*
X89971845Y-24582154D01*
X89687710Y-24348970D01*
X89363540Y-24175698D01*
X89011799Y-24068998D01*
X88737674Y-24042000D01*
X88554326Y-24042000D01*
X88280200Y-24068998D01*
X87928459Y-24175698D01*
X87604289Y-24348970D01*
X87320154Y-24582154D01*
X87086970Y-24866289D01*
X86913698Y-25190459D01*
X86862531Y-25359136D01*
X86839172Y-25402838D01*
X86800867Y-25434274D01*
X86753448Y-25448658D01*
X86704134Y-25443801D01*
X86660432Y-25420442D01*
X86628996Y-25382137D01*
X86619469Y-25359136D01*
X86568301Y-25190459D01*
X86395029Y-24866289D01*
X86161845Y-24582154D01*
X85877710Y-24348970D01*
X85553540Y-24175698D01*
X85201799Y-24068998D01*
X84927674Y-24042000D01*
X84744326Y-24042000D01*
X84470200Y-24068998D01*
X84118459Y-24175698D01*
X83794289Y-24348970D01*
X83510154Y-24582154D01*
X83276970Y-24866289D01*
X83103698Y-25190459D01*
X83052531Y-25359136D01*
X83029172Y-25402838D01*
X82990867Y-25434274D01*
X82943448Y-25448658D01*
X82894134Y-25443801D01*
X82850432Y-25420442D01*
X82818996Y-25382137D01*
X82809469Y-25359136D01*
X82758301Y-25190459D01*
X82585029Y-24866289D01*
X82351845Y-24582154D01*
X82067710Y-24348970D01*
X81743540Y-24175698D01*
X81391799Y-24068998D01*
X81117674Y-24042000D01*
X80934326Y-24042000D01*
X80660200Y-24068998D01*
X80308459Y-24175698D01*
X79984289Y-24348970D01*
X79700154Y-24582154D01*
X79466970Y-24866289D01*
X79293698Y-25190459D01*
X79186998Y-25542200D01*
X79150971Y-25908000D01*
X79186998Y-26273799D01*
X79293698Y-26625540D01*
X79466970Y-26949710D01*
X79593362Y-27103718D01*
X79616721Y-27147420D01*
X79621578Y-27196734D01*
X79607194Y-27244153D01*
X79589786Y-27269025D01*
X79521257Y-27345524D01*
X79333302Y-27663289D01*
X79331211Y-27668340D01*
X79303685Y-27709544D01*
X79279064Y-27725998D01*
X79286984Y-27735494D01*
X79428394Y-27940000D01*
X80580934Y-27940000D01*
X80596399Y-27929667D01*
X80645000Y-27920000D01*
X81407000Y-27920000D01*
X81455601Y-27929667D01*
X81471066Y-27940000D01*
X82623606Y-27940000D01*
X82754749Y-27750341D01*
X82718696Y-27663287D01*
X82530742Y-27345524D01*
X82462214Y-27269025D01*
X82436987Y-27226374D01*
X82430001Y-27177316D01*
X82442321Y-27129319D01*
X82458638Y-27103718D01*
X82585029Y-26949710D01*
X82758301Y-26625540D01*
X82809469Y-26456864D01*
X82832828Y-26413162D01*
X82871133Y-26381726D01*
X82918552Y-26367342D01*
X82967866Y-26372199D01*
X83011568Y-26395558D01*
X83043004Y-26433863D01*
X83052531Y-26456864D01*
X83103698Y-26625540D01*
X83276970Y-26949710D01*
X83403362Y-27103718D01*
X83426721Y-27147420D01*
X83431578Y-27196734D01*
X83417194Y-27244153D01*
X83399786Y-27269025D01*
X83331257Y-27345524D01*
X83143303Y-27663287D01*
X83107250Y-27750341D01*
X83238394Y-27940000D01*
X84390934Y-27940000D01*
X84406399Y-27929667D01*
X84455000Y-27920000D01*
X85217000Y-27920000D01*
X85265601Y-27929667D01*
X85306803Y-27957197D01*
X85314813Y-27969186D01*
X85326803Y-27977197D01*
X85354333Y-28018399D01*
X85364000Y-28067000D01*
X85364000Y-28829000D01*
X85354333Y-28877601D01*
X85326803Y-28918803D01*
X85314813Y-28926813D01*
X85306803Y-28938803D01*
X85265601Y-28966333D01*
X85217000Y-28976000D01*
X84455000Y-28976000D01*
X84406399Y-28966333D01*
X84390934Y-28956000D01*
X83238394Y-28956000D01*
X83107250Y-29145658D01*
X83143303Y-29232712D01*
X83211686Y-29348323D01*
X83228108Y-29395076D01*
X83225388Y-29444554D01*
X83203941Y-29489225D01*
X83200548Y-29493547D01*
X83137139Y-29570809D01*
X83043004Y-29746926D01*
X83011568Y-29785231D01*
X82967867Y-29808590D01*
X82918552Y-29813447D01*
X82871133Y-29799063D01*
X82832828Y-29767627D01*
X82818996Y-29746926D01*
X82724860Y-29570809D01*
X82661452Y-29493547D01*
X82638093Y-29449846D01*
X82633235Y-29400531D01*
X82647620Y-29353112D01*
X82650314Y-29348323D01*
X82718696Y-29232712D01*
X82754749Y-29145658D01*
X82623606Y-28956000D01*
X81471066Y-28956000D01*
X81455601Y-28966333D01*
X81407000Y-28976000D01*
X80645000Y-28976000D01*
X80596399Y-28966333D01*
X80580934Y-28956000D01*
X79428394Y-28956000D01*
X79286984Y-29160506D01*
X79251391Y-29194982D01*
X79205314Y-29213214D01*
X79155768Y-29212424D01*
X79110294Y-29192734D01*
X79092722Y-29178078D01*
X78870644Y-28956000D01*
X77661066Y-28956000D01*
X77645601Y-28966333D01*
X77597000Y-28976000D01*
X76835000Y-28976000D01*
X76786399Y-28966333D01*
X76770934Y-28956000D01*
X75561356Y-28956000D01*
X75348422Y-29168933D01*
X75344658Y-29293675D01*
X75364700Y-29497170D01*
X75422796Y-29688686D01*
X75517139Y-29865190D01*
X75574236Y-29934762D01*
X75597595Y-29978463D01*
X75602453Y-30027778D01*
X75588068Y-30075197D01*
X75483698Y-30270459D01*
X75423476Y-30468985D01*
X75400117Y-30512687D01*
X75361812Y-30544123D01*
X75314393Y-30558507D01*
X75265079Y-30553650D01*
X75221377Y-30530291D01*
X75189941Y-30491986D01*
X75104860Y-30332809D01*
X74977896Y-30178103D01*
X74823190Y-30051139D01*
X74646686Y-29956796D01*
X74455170Y-29898700D01*
X74249766Y-29878470D01*
X72562234Y-29878470D01*
X72356829Y-29898700D01*
X72165313Y-29956796D01*
X71988809Y-30051139D01*
X71919238Y-30108236D01*
X71875537Y-30131595D01*
X71826222Y-30136453D01*
X71778803Y-30122068D01*
X71583540Y-30017698D01*
X71231799Y-29910998D01*
X70957674Y-29884000D01*
X70774326Y-29884000D01*
X70500200Y-29910998D01*
X70148459Y-30017698D01*
X69824289Y-30190970D01*
X69670282Y-30317362D01*
X69626580Y-30340721D01*
X69577266Y-30345578D01*
X69529847Y-30331194D01*
X69504975Y-30313786D01*
X69428475Y-30245257D01*
X69110712Y-30057303D01*
X69023658Y-30021250D01*
X68834000Y-30152393D01*
X68834000Y-31304934D01*
X68844333Y-31320399D01*
X68854000Y-31369000D01*
X68854000Y-32131000D01*
X68844333Y-32179601D01*
X68834000Y-32195065D01*
X68834000Y-33347606D01*
X69023658Y-33478749D01*
X69110712Y-33442696D01*
X69428475Y-33254742D01*
X69504975Y-33186214D01*
X69547626Y-33160987D01*
X69596684Y-33154001D01*
X69644681Y-33166321D01*
X69670282Y-33182638D01*
X69824289Y-33309029D01*
X70148459Y-33482301D01*
X70500200Y-33589001D01*
X70774326Y-33616000D01*
X70957674Y-33616000D01*
X71231799Y-33589001D01*
X71583540Y-33482301D01*
X71778803Y-33377932D01*
X71826222Y-33363548D01*
X71875536Y-33368405D01*
X71919238Y-33391764D01*
X71988809Y-33448860D01*
X72165313Y-33543203D01*
X72356829Y-33601299D01*
X72562234Y-33621530D01*
X74249766Y-33621530D01*
X74455170Y-33601299D01*
X74646686Y-33543203D01*
X74823190Y-33448860D01*
X74977896Y-33321896D01*
X75104860Y-33167190D01*
X75199203Y-32990686D01*
X75257299Y-32799170D01*
X75277530Y-32593765D01*
X75277530Y-31826839D01*
X75287197Y-31778238D01*
X75314727Y-31737036D01*
X75355929Y-31709506D01*
X75404530Y-31699839D01*
X75453131Y-31709506D01*
X75494333Y-31737036D01*
X75516534Y-31766972D01*
X75656970Y-32029710D01*
X75890154Y-32313845D01*
X76174289Y-32547029D01*
X76498459Y-32720301D01*
X76850200Y-32827001D01*
X77124326Y-32854000D01*
X77307674Y-32854000D01*
X77581799Y-32827001D01*
X77933540Y-32720301D01*
X78257710Y-32547029D01*
X78541845Y-32313845D01*
X78775029Y-32029710D01*
X78915466Y-31766972D01*
X78946902Y-31728667D01*
X78990604Y-31705308D01*
X79039918Y-31700451D01*
X79087337Y-31714835D01*
X79125642Y-31746271D01*
X79149001Y-31789973D01*
X79154470Y-31826839D01*
X79154470Y-31831765D01*
X79174700Y-32037170D01*
X79232796Y-32228686D01*
X79327139Y-32405190D01*
X79454103Y-32559896D01*
X79608809Y-32686860D01*
X79785313Y-32781203D01*
X79976829Y-32839299D01*
X80182234Y-32859530D01*
X81869766Y-32859530D01*
X82075170Y-32839299D01*
X82266686Y-32781203D01*
X82443190Y-32686860D01*
X82597896Y-32559896D01*
X82724860Y-32405190D01*
X82818996Y-32229074D01*
X82850432Y-32190769D01*
X82894133Y-32167410D01*
X82943448Y-32162553D01*
X82990867Y-32176937D01*
X83029172Y-32208373D01*
X83043004Y-32229074D01*
X83137139Y-32405190D01*
X83264103Y-32559896D01*
X83418809Y-32686860D01*
X83595313Y-32781203D01*
X83786829Y-32839299D01*
X83992234Y-32859530D01*
X85679766Y-32859530D01*
X85885170Y-32839299D01*
X86076686Y-32781203D01*
X86253190Y-32686860D01*
X86407896Y-32559896D01*
X86534860Y-32405190D01*
X86628996Y-32229074D01*
X86660432Y-32190769D01*
X86704133Y-32167410D01*
X86753448Y-32162553D01*
X86800867Y-32176937D01*
X86839172Y-32208373D01*
X86853004Y-32229074D01*
X86947139Y-32405190D01*
X87074103Y-32559896D01*
X87228809Y-32686860D01*
X87405313Y-32781203D01*
X87596829Y-32839299D01*
X87800324Y-32859341D01*
X87925066Y-32855577D01*
X88138000Y-32642644D01*
X88138000Y-31433065D01*
X88127667Y-31417601D01*
X88118000Y-31369000D01*
X88118000Y-30607000D01*
X88127667Y-30558399D01*
X88155197Y-30517197D01*
X88167186Y-30509186D01*
X88175197Y-30497197D01*
X88216399Y-30469667D01*
X88265000Y-30460000D01*
X89027000Y-30460000D01*
X89075601Y-30469667D01*
X89091066Y-30480000D01*
X90300644Y-30480000D01*
X90461197Y-30319447D01*
X90502399Y-30291917D01*
X90551000Y-30282250D01*
X90599601Y-30291917D01*
X90640803Y-30319447D01*
X90801356Y-30480000D01*
X92010934Y-30480000D01*
X92026399Y-30469667D01*
X92075000Y-30460000D01*
X92837000Y-30460000D01*
X92885601Y-30469667D01*
X92926803Y-30497197D01*
X92934813Y-30509186D01*
X92946803Y-30517197D01*
X92974333Y-30558399D01*
X92984000Y-30607000D01*
X92984000Y-31369000D01*
X92974333Y-31417601D01*
X92946803Y-31458803D01*
X92934813Y-31466813D01*
X92926803Y-31478803D01*
X92885601Y-31506333D01*
X92837000Y-31516000D01*
X92075000Y-31516000D01*
X92026399Y-31506333D01*
X92010934Y-31496000D01*
X90801356Y-31496000D01*
X90640803Y-31656553D01*
X90599601Y-31684083D01*
X90551000Y-31693750D01*
X90502399Y-31684083D01*
X90461197Y-31656553D01*
X90300644Y-31496000D01*
X89154000Y-31496000D01*
X89154000Y-32642644D01*
X89366933Y-32855577D01*
X89491675Y-32859341D01*
X89695170Y-32839299D01*
X89886686Y-32781203D01*
X90063190Y-32686860D01*
X90217896Y-32559896D01*
X90344860Y-32405190D01*
X90438996Y-32229074D01*
X90470432Y-32190769D01*
X90514133Y-32167410D01*
X90563448Y-32162553D01*
X90610867Y-32176937D01*
X90649172Y-32208373D01*
X90663004Y-32229074D01*
X90757139Y-32405190D01*
X90884103Y-32559896D01*
X91038809Y-32686860D01*
X91215313Y-32781203D01*
X91390775Y-32834429D01*
X91434477Y-32857788D01*
X91465913Y-32896093D01*
X91480297Y-32943512D01*
X91475440Y-32992826D01*
X91452081Y-33036528D01*
X91443712Y-33045763D01*
X91356118Y-33133356D01*
X91201158Y-33365269D01*
X91094416Y-33622967D01*
X91040000Y-33896538D01*
X91040000Y-34175461D01*
X91094416Y-34449032D01*
X91201158Y-34706730D01*
X91241057Y-34766442D01*
X91260021Y-34812223D01*
X91260021Y-34861776D01*
X91241058Y-34907557D01*
X91206019Y-34942596D01*
X91160238Y-34961560D01*
X91135461Y-34964000D01*
X91094326Y-34964000D01*
X90820200Y-34990998D01*
X90468459Y-35097698D01*
X90144289Y-35270970D01*
X89996568Y-35392203D01*
X89952866Y-35415562D01*
X89903552Y-35420419D01*
X89856133Y-35406035D01*
X89835432Y-35392203D01*
X89687710Y-35270970D01*
X89363540Y-35097698D01*
X89011799Y-34990998D01*
X88737674Y-34964000D01*
X88554326Y-34964000D01*
X88280200Y-34990998D01*
X87928459Y-35097698D01*
X87604289Y-35270970D01*
X87456568Y-35392203D01*
X87412866Y-35415562D01*
X87363552Y-35420419D01*
X87316133Y-35406035D01*
X87295432Y-35392203D01*
X87147710Y-35270970D01*
X86823540Y-35097698D01*
X86471799Y-34990998D01*
X86197674Y-34964000D01*
X86014326Y-34964000D01*
X85740200Y-34990998D01*
X85388459Y-35097698D01*
X85064289Y-35270970D01*
X84916568Y-35392203D01*
X84872866Y-35415562D01*
X84823552Y-35420419D01*
X84776133Y-35406035D01*
X84755432Y-35392203D01*
X84607710Y-35270970D01*
X84283540Y-35097698D01*
X83931799Y-34990998D01*
X83657674Y-34964000D01*
X83474326Y-34964000D01*
X83200200Y-34990998D01*
X82848459Y-35097698D01*
X82524289Y-35270970D01*
X82376568Y-35392203D01*
X82332866Y-35415562D01*
X82283552Y-35420419D01*
X82236133Y-35406035D01*
X82215432Y-35392203D01*
X82067710Y-35270970D01*
X81743540Y-35097698D01*
X81391799Y-34990998D01*
X81117674Y-34964000D01*
X80934326Y-34964000D01*
X80660200Y-34990998D01*
X80308459Y-35097698D01*
X79984289Y-35270970D01*
X79830282Y-35397362D01*
X79786580Y-35420721D01*
X79737266Y-35425578D01*
X79689847Y-35411194D01*
X79664975Y-35393786D01*
X79588475Y-35325257D01*
X79270712Y-35137303D01*
X79183658Y-35101250D01*
X78994000Y-35232393D01*
X78994000Y-36384934D01*
X79004333Y-36400399D01*
X79014000Y-36449000D01*
X79014000Y-37211000D01*
X79004333Y-37259601D01*
X78976803Y-37300803D01*
X78964813Y-37308813D01*
X78956803Y-37320803D01*
X78915601Y-37348333D01*
X78867000Y-37358000D01*
X78105000Y-37358000D01*
X78056399Y-37348333D01*
X78015197Y-37320803D01*
X78007186Y-37308813D01*
X77995197Y-37300803D01*
X77967667Y-37259601D01*
X77958000Y-37211000D01*
X77958000Y-36449000D01*
X77967667Y-36400399D01*
X77978000Y-36384934D01*
X77978000Y-35232393D01*
X77788341Y-35101250D01*
X77701287Y-35137303D01*
X77383524Y-35325257D01*
X77307025Y-35393786D01*
X77264374Y-35419013D01*
X77215316Y-35425999D01*
X77167319Y-35413679D01*
X77141718Y-35397362D01*
X76987710Y-35270970D01*
X76663540Y-35097698D01*
X76311799Y-34990998D01*
X76037674Y-34964000D01*
X75854326Y-34964000D01*
X75580200Y-34990998D01*
X75228459Y-35097698D01*
X74904289Y-35270970D01*
X74756568Y-35392203D01*
X74712866Y-35415562D01*
X74663552Y-35420419D01*
X74616133Y-35406035D01*
X74595432Y-35392203D01*
X74447710Y-35270970D01*
X74123540Y-35097698D01*
X73771799Y-34990998D01*
X73497674Y-34964000D01*
X73314326Y-34964000D01*
X73040200Y-34990998D01*
X72688459Y-35097698D01*
X72364289Y-35270970D01*
X72216568Y-35392203D01*
X72172866Y-35415562D01*
X72123552Y-35420419D01*
X72076133Y-35406035D01*
X72055432Y-35392203D01*
X71907710Y-35270970D01*
X71583540Y-35097698D01*
X71231799Y-34990998D01*
X70957674Y-34964000D01*
X70774326Y-34964000D01*
X70500200Y-34990998D01*
X70148459Y-35097698D01*
X69824289Y-35270970D01*
X69676568Y-35392203D01*
X69632866Y-35415562D01*
X69583552Y-35420419D01*
X69536133Y-35406035D01*
X69515432Y-35392203D01*
X69367710Y-35270970D01*
X69043540Y-35097698D01*
X68691799Y-34990998D01*
X68417674Y-34964000D01*
X68234326Y-34964000D01*
X67960200Y-34990998D01*
X67608459Y-35097698D01*
X67284289Y-35270970D01*
X67136568Y-35392203D01*
X67092866Y-35415562D01*
X67043552Y-35420419D01*
X66996133Y-35406035D01*
X66975432Y-35392203D01*
X66827710Y-35270970D01*
X66503540Y-35097698D01*
X66151799Y-34990998D01*
X65877674Y-34964000D01*
X65694326Y-34964000D01*
X65420200Y-34990998D01*
X65068459Y-35097698D01*
X64744289Y-35270970D01*
X64596568Y-35392203D01*
X64552866Y-35415562D01*
X64503552Y-35420419D01*
X64456133Y-35406035D01*
X64435432Y-35392203D01*
X64287710Y-35270970D01*
X63963540Y-35097698D01*
X63611799Y-34990998D01*
X63337674Y-34964000D01*
X63154326Y-34964000D01*
X62880200Y-34990998D01*
X62528459Y-35097698D01*
X62204289Y-35270970D01*
X62050282Y-35397362D01*
X62006580Y-35420721D01*
X61957266Y-35425578D01*
X61909847Y-35411194D01*
X61884975Y-35393786D01*
X61808475Y-35325257D01*
X61490712Y-35137303D01*
X61403658Y-35101250D01*
X61214000Y-35232393D01*
X61214000Y-36384934D01*
X61224333Y-36400399D01*
X61234000Y-36449000D01*
X61234000Y-37211000D01*
X61224333Y-37259601D01*
X61196803Y-37300803D01*
X61184813Y-37308813D01*
X61176803Y-37320803D01*
X61135601Y-37348333D01*
X61087000Y-37358000D01*
X60325000Y-37358000D01*
X60276399Y-37348333D01*
X60260934Y-37338000D01*
X59103244Y-37338000D01*
X58979330Y-37522790D01*
X59111607Y-37798304D01*
X59276431Y-38017862D01*
X59297878Y-38062533D01*
X59300598Y-38112011D01*
X59284176Y-38158764D01*
X59273038Y-38174676D01*
X59146970Y-38328289D01*
X58973698Y-38652459D01*
X58866998Y-39004200D01*
X58830971Y-39370000D01*
X57708000Y-39370000D01*
X57708000Y-36137209D01*
X58979330Y-36137209D01*
X59103244Y-36322000D01*
X60198000Y-36322000D01*
X60198000Y-35232393D01*
X60008341Y-35101250D01*
X59921287Y-35137303D01*
X59603524Y-35325257D01*
X59331144Y-35569256D01*
X59111607Y-35861695D01*
X58979330Y-36137209D01*
X57708000Y-36137209D01*
X57708000Y-31750000D01*
X58830971Y-31750000D01*
X58866998Y-32115799D01*
X58973698Y-32467540D01*
X59146970Y-32791710D01*
X59380154Y-33075845D01*
X59664289Y-33309029D01*
X59988459Y-33482301D01*
X60340200Y-33589001D01*
X60614326Y-33616000D01*
X60797674Y-33616000D01*
X61071799Y-33589001D01*
X61423540Y-33482301D01*
X61747710Y-33309029D01*
X61895432Y-33187797D01*
X61939134Y-33164438D01*
X61988448Y-33159581D01*
X62035867Y-33173965D01*
X62056568Y-33187797D01*
X62204289Y-33309029D01*
X62528459Y-33482301D01*
X62880200Y-33589001D01*
X63154326Y-33616000D01*
X63337674Y-33616000D01*
X63611799Y-33589001D01*
X63963540Y-33482301D01*
X64287710Y-33309029D01*
X64435432Y-33187797D01*
X64479134Y-33164438D01*
X64528448Y-33159581D01*
X64575867Y-33173965D01*
X64596568Y-33187797D01*
X64744289Y-33309029D01*
X65068459Y-33482301D01*
X65420200Y-33589001D01*
X65694326Y-33616000D01*
X65877674Y-33616000D01*
X66151799Y-33589001D01*
X66503540Y-33482301D01*
X66827710Y-33309029D01*
X66981718Y-33182638D01*
X67025420Y-33159279D01*
X67074734Y-33154422D01*
X67122153Y-33168806D01*
X67147025Y-33186214D01*
X67223524Y-33254742D01*
X67541287Y-33442696D01*
X67628341Y-33478749D01*
X67818000Y-33347606D01*
X67818000Y-32195065D01*
X67807667Y-32179601D01*
X67798000Y-32131000D01*
X67798000Y-31369000D01*
X67807667Y-31320399D01*
X67818000Y-31304934D01*
X67818000Y-30152393D01*
X67628341Y-30021250D01*
X67541287Y-30057303D01*
X67223524Y-30245257D01*
X67147025Y-30313786D01*
X67104374Y-30339013D01*
X67055316Y-30345999D01*
X67007319Y-30333679D01*
X66981718Y-30317362D01*
X66827710Y-30190970D01*
X66503540Y-30017698D01*
X66151799Y-29910998D01*
X65877674Y-29884000D01*
X65694326Y-29884000D01*
X65420200Y-29910998D01*
X65068459Y-30017698D01*
X64744289Y-30190970D01*
X64596568Y-30312203D01*
X64552866Y-30335562D01*
X64503552Y-30340419D01*
X64456133Y-30326035D01*
X64435432Y-30312203D01*
X64287710Y-30190970D01*
X63963540Y-30017698D01*
X63611799Y-29910998D01*
X63337674Y-29884000D01*
X63154326Y-29884000D01*
X62880200Y-29910998D01*
X62528459Y-30017698D01*
X62204289Y-30190970D01*
X62056568Y-30312203D01*
X62012866Y-30335562D01*
X61963552Y-30340419D01*
X61916133Y-30326035D01*
X61895432Y-30312203D01*
X61747710Y-30190970D01*
X61423540Y-30017698D01*
X61071799Y-29910998D01*
X60797674Y-29884000D01*
X60614326Y-29884000D01*
X60340200Y-29910998D01*
X59988459Y-30017698D01*
X59664289Y-30190970D01*
X59380154Y-30424154D01*
X59146970Y-30708289D01*
X58973698Y-31032459D01*
X58866998Y-31384200D01*
X58830971Y-31750000D01*
X57708000Y-31750000D01*
X57708000Y-26715593D01*
X59352000Y-26715593D01*
X59352000Y-27132406D01*
X59433316Y-27541213D01*
X59592825Y-27926303D01*
X59824393Y-28272868D01*
X60119131Y-28567606D01*
X60465696Y-28799174D01*
X60850786Y-28958683D01*
X61259593Y-29040000D01*
X61676407Y-29040000D01*
X62085213Y-28958683D01*
X62470303Y-28799174D01*
X62816868Y-28567606D01*
X63111606Y-28272868D01*
X63343174Y-27926303D01*
X63477371Y-27602324D01*
X75344658Y-27602324D01*
X75348422Y-27727066D01*
X75561356Y-27940000D01*
X76708000Y-27940000D01*
X76708000Y-26793356D01*
X77724000Y-26793356D01*
X77724000Y-27940000D01*
X78870644Y-27940000D01*
X79092722Y-27717922D01*
X79118262Y-27700856D01*
X79096546Y-27668362D01*
X79086874Y-27619762D01*
X79086932Y-27615921D01*
X79087342Y-27602325D01*
X79067299Y-27398829D01*
X79009203Y-27207313D01*
X78914860Y-27030809D01*
X78787896Y-26876103D01*
X78633190Y-26749139D01*
X78456686Y-26654796D01*
X78265170Y-26596700D01*
X78061675Y-26576658D01*
X77936933Y-26580422D01*
X77724000Y-26793356D01*
X76708000Y-26793356D01*
X76495066Y-26580422D01*
X76370324Y-26576658D01*
X76166829Y-26596700D01*
X75975313Y-26654796D01*
X75798809Y-26749139D01*
X75644103Y-26876103D01*
X75517139Y-27030809D01*
X75422796Y-27207313D01*
X75364700Y-27398829D01*
X75344658Y-27602324D01*
X63477371Y-27602324D01*
X63499293Y-27549399D01*
X63502683Y-27541213D01*
X63584000Y-27132406D01*
X63584000Y-26715593D01*
X63502683Y-26306786D01*
X63343174Y-25921696D01*
X63111606Y-25575131D01*
X62816868Y-25280393D01*
X62787153Y-25260538D01*
X67672000Y-25260538D01*
X67672000Y-25539461D01*
X67726416Y-25813032D01*
X67833158Y-26070730D01*
X67988118Y-26302643D01*
X68185356Y-26499881D01*
X68417269Y-26654841D01*
X68674967Y-26761583D01*
X68948538Y-26816000D01*
X69227462Y-26816000D01*
X69501032Y-26761583D01*
X69758730Y-26654841D01*
X69822242Y-26612404D01*
X69868023Y-26593440D01*
X69892800Y-26591000D01*
X73871200Y-26591000D01*
X73919801Y-26600667D01*
X73941758Y-26612404D01*
X74005269Y-26654841D01*
X74262967Y-26761583D01*
X74536538Y-26816000D01*
X74815462Y-26816000D01*
X75089032Y-26761583D01*
X75346730Y-26654841D01*
X75578643Y-26499881D01*
X75775881Y-26302643D01*
X75930841Y-26070730D01*
X76037583Y-25813032D01*
X76092000Y-25539461D01*
X76092000Y-25343581D01*
X76101667Y-25294980D01*
X76129197Y-25253778D01*
X76170399Y-25226248D01*
X76219000Y-25216581D01*
X76267600Y-25226248D01*
X76294965Y-25237582D01*
X76568538Y-25292000D01*
X76847462Y-25292000D01*
X77121032Y-25237583D01*
X77378730Y-25130841D01*
X77610643Y-24975881D01*
X77807881Y-24778643D01*
X77962841Y-24546730D01*
X78069583Y-24289032D01*
X78093265Y-24169976D01*
X78112228Y-24124196D01*
X78128022Y-24104950D01*
X78677775Y-23555197D01*
X78718977Y-23527667D01*
X78767578Y-23518000D01*
X79929785Y-23518000D01*
X79978386Y-23527667D01*
X80000343Y-23539404D01*
X80101269Y-23606841D01*
X80358967Y-23713583D01*
X80632538Y-23768000D01*
X80911462Y-23768000D01*
X81185032Y-23713583D01*
X81442730Y-23606841D01*
X81674643Y-23451881D01*
X81871881Y-23254643D01*
X82026841Y-23022730D01*
X82133583Y-22765032D01*
X82188000Y-22491461D01*
X82188000Y-22212538D01*
X82133583Y-21938967D01*
X82026841Y-21681269D01*
X81871881Y-21449356D01*
X81674643Y-21252118D01*
X81435834Y-21092550D01*
X81400795Y-21057511D01*
X81381832Y-21011730D01*
X81381832Y-20962177D01*
X81400796Y-20916396D01*
X81435835Y-20881357D01*
X81469526Y-20865423D01*
X81743540Y-20782301D01*
X82067710Y-20609029D01*
X82215432Y-20487797D01*
X82259134Y-20464438D01*
X82308448Y-20459581D01*
X82355867Y-20473965D01*
X82376568Y-20487797D01*
X82524289Y-20609029D01*
X82848459Y-20782301D01*
X83200200Y-20889001D01*
X83474326Y-20916000D01*
X83657674Y-20916000D01*
X83931799Y-20889001D01*
X84283540Y-20782301D01*
X84607710Y-20609029D01*
X84755432Y-20487797D01*
X84799134Y-20464438D01*
X84848448Y-20459581D01*
X84895867Y-20473965D01*
X84916568Y-20487797D01*
X85064289Y-20609029D01*
X85388459Y-20782301D01*
X85740200Y-20889001D01*
X86014326Y-20916000D01*
X86197674Y-20916000D01*
X86471799Y-20889001D01*
X86823540Y-20782301D01*
X87147710Y-20609029D01*
X87431845Y-20375845D01*
X87665029Y-20091710D01*
X87838301Y-19767540D01*
X87945001Y-19415799D01*
X87981028Y-19050000D01*
X87945001Y-18684200D01*
X87838300Y-18332456D01*
X87799501Y-18259867D01*
X87799501Y-18259868D01*
X87770833Y-18206234D01*
X89822470Y-18206234D01*
X89822470Y-19893765D01*
X89842700Y-20099170D01*
X89900796Y-20290686D01*
X89995139Y-20467190D01*
X90122103Y-20621896D01*
X90276809Y-20748860D01*
X90453313Y-20843203D01*
X90644829Y-20901299D01*
X90850234Y-20921530D01*
X92537766Y-20921530D01*
X92743170Y-20901299D01*
X92934686Y-20843203D01*
X93111190Y-20748860D01*
X93188453Y-20685452D01*
X93232154Y-20662093D01*
X93281469Y-20657235D01*
X93328888Y-20671620D01*
X93333677Y-20674314D01*
X93449287Y-20742696D01*
X93536341Y-20778749D01*
X93726000Y-20647606D01*
X93726000Y-19495065D01*
X93715667Y-19479601D01*
X93706000Y-19431000D01*
X93706000Y-18669000D01*
X93715667Y-18620399D01*
X93726000Y-18604934D01*
X93726000Y-17452393D01*
X94742000Y-17452393D01*
X94742000Y-18604934D01*
X94752333Y-18620399D01*
X94762000Y-18669000D01*
X94762000Y-19431000D01*
X94752333Y-19479601D01*
X94742000Y-19495065D01*
X94742000Y-20647606D01*
X94931658Y-20778749D01*
X95018712Y-20742696D01*
X95336475Y-20554742D01*
X95412975Y-20486214D01*
X95455626Y-20460987D01*
X95504684Y-20454001D01*
X95552681Y-20466321D01*
X95578282Y-20482638D01*
X95732289Y-20609029D01*
X96056459Y-20782301D01*
X96408200Y-20889001D01*
X96682326Y-20916000D01*
X96865674Y-20916000D01*
X97139799Y-20889001D01*
X97491540Y-20782301D01*
X97815710Y-20609029D01*
X98099845Y-20375845D01*
X98333029Y-20091710D01*
X98506301Y-19767540D01*
X98613001Y-19415799D01*
X98649028Y-19050000D01*
X98613001Y-18684200D01*
X98506300Y-18332456D01*
X98467501Y-18259867D01*
X98467501Y-18259868D01*
X98438833Y-18206234D01*
X100490470Y-18206234D01*
X100490470Y-19893765D01*
X100510700Y-20099170D01*
X100568796Y-20290686D01*
X100663139Y-20467190D01*
X100790103Y-20621896D01*
X100944809Y-20748860D01*
X101121313Y-20843203D01*
X101312829Y-20901299D01*
X101518234Y-20921530D01*
X103205766Y-20921530D01*
X103411170Y-20901299D01*
X103602686Y-20843203D01*
X103779190Y-20748860D01*
X103856453Y-20685452D01*
X103900154Y-20662093D01*
X103949469Y-20657235D01*
X103996888Y-20671620D01*
X104001677Y-20674314D01*
X104117287Y-20742696D01*
X104204341Y-20778749D01*
X104394000Y-20647606D01*
X104394000Y-19495065D01*
X104383667Y-19479601D01*
X104374000Y-19431000D01*
X104374000Y-18669000D01*
X104383667Y-18620399D01*
X104394000Y-18604934D01*
X104394000Y-17452393D01*
X105410000Y-17452393D01*
X105410000Y-18604934D01*
X105420333Y-18620399D01*
X105430000Y-18669000D01*
X105430000Y-19431000D01*
X105420333Y-19479601D01*
X105410000Y-19495065D01*
X105410000Y-20647606D01*
X105599658Y-20778749D01*
X105686712Y-20742696D01*
X106004475Y-20554742D01*
X106080975Y-20486214D01*
X106123626Y-20460987D01*
X106172684Y-20454001D01*
X106220681Y-20466321D01*
X106246282Y-20482638D01*
X106400289Y-20609029D01*
X106724459Y-20782301D01*
X107076200Y-20889001D01*
X107350326Y-20916000D01*
X107533674Y-20916000D01*
X107807799Y-20889001D01*
X108159540Y-20782301D01*
X108483710Y-20609029D01*
X108767845Y-20375845D01*
X109001029Y-20091710D01*
X109174301Y-19767540D01*
X109281001Y-19415799D01*
X109317028Y-19049999D01*
X109296503Y-18841593D01*
X111168000Y-18841593D01*
X111168000Y-19258406D01*
X111249316Y-19667213D01*
X111408825Y-20052303D01*
X111640393Y-20398868D01*
X111935131Y-20693606D01*
X112281696Y-20925174D01*
X112666786Y-21084683D01*
X113075593Y-21166000D01*
X113492407Y-21166000D01*
X113901213Y-21084683D01*
X114286303Y-20925174D01*
X114632868Y-20693606D01*
X114927606Y-20398868D01*
X115159174Y-20052303D01*
X115318683Y-19667213D01*
X115400000Y-19258406D01*
X115400000Y-18841593D01*
X115318683Y-18432786D01*
X115159174Y-18047696D01*
X114927606Y-17701131D01*
X114632868Y-17406393D01*
X114286303Y-17174825D01*
X113901213Y-17015316D01*
X113492407Y-16934000D01*
X113075593Y-16934000D01*
X112666786Y-17015316D01*
X112281696Y-17174825D01*
X111935131Y-17406393D01*
X111640393Y-17701131D01*
X111408825Y-18047696D01*
X111249316Y-18432786D01*
X111168000Y-18841593D01*
X109296503Y-18841593D01*
X109296497Y-18841532D01*
X109281001Y-18684200D01*
X109174301Y-18332459D01*
X109001029Y-18008289D01*
X108767845Y-17724154D01*
X108483710Y-17490970D01*
X108159540Y-17317698D01*
X107807799Y-17210998D01*
X107533674Y-17184000D01*
X107350326Y-17184000D01*
X107076200Y-17210998D01*
X106724459Y-17317698D01*
X106400289Y-17490970D01*
X106246282Y-17617362D01*
X106202580Y-17640721D01*
X106153266Y-17645578D01*
X106105847Y-17631194D01*
X106080975Y-17613786D01*
X106004475Y-17545257D01*
X105686712Y-17357303D01*
X105599658Y-17321250D01*
X105410000Y-17452393D01*
X104394000Y-17452393D01*
X104204341Y-17321250D01*
X104117287Y-17357303D01*
X104001677Y-17425686D01*
X103954924Y-17442108D01*
X103905446Y-17439388D01*
X103860775Y-17417941D01*
X103856453Y-17414548D01*
X103779190Y-17351139D01*
X103602686Y-17256796D01*
X103411170Y-17198700D01*
X103205766Y-17178470D01*
X101518234Y-17178470D01*
X101312829Y-17198700D01*
X101121313Y-17256796D01*
X100944809Y-17351139D01*
X100790103Y-17478103D01*
X100663139Y-17632809D01*
X100568796Y-17809313D01*
X100510700Y-18000829D01*
X100490470Y-18206234D01*
X98438833Y-18206234D01*
X98333028Y-18008287D01*
X98099845Y-17724154D01*
X97815710Y-17490970D01*
X97491540Y-17317698D01*
X97139799Y-17210998D01*
X96865674Y-17184000D01*
X96682326Y-17184000D01*
X96408200Y-17210998D01*
X96056459Y-17317698D01*
X95732289Y-17490970D01*
X95578282Y-17617362D01*
X95534580Y-17640721D01*
X95485266Y-17645578D01*
X95437847Y-17631194D01*
X95412975Y-17613786D01*
X95336475Y-17545257D01*
X95018712Y-17357303D01*
X94931658Y-17321250D01*
X94742000Y-17452393D01*
X93726000Y-17452393D01*
X93536341Y-17321250D01*
X93449287Y-17357303D01*
X93333677Y-17425686D01*
X93286924Y-17442108D01*
X93237446Y-17439388D01*
X93192775Y-17417941D01*
X93188453Y-17414548D01*
X93111190Y-17351139D01*
X92934686Y-17256796D01*
X92743170Y-17198700D01*
X92537766Y-17178470D01*
X90850234Y-17178470D01*
X90644829Y-17198700D01*
X90453313Y-17256796D01*
X90276809Y-17351139D01*
X90122103Y-17478103D01*
X89995139Y-17632809D01*
X89900796Y-17809313D01*
X89842700Y-18000829D01*
X89822470Y-18206234D01*
X87770833Y-18206234D01*
X87665028Y-18008287D01*
X87431845Y-17724154D01*
X87147710Y-17490970D01*
X86823540Y-17317698D01*
X86471799Y-17210998D01*
X86197674Y-17184000D01*
X86014326Y-17184000D01*
X85740200Y-17210998D01*
X85388459Y-17317698D01*
X85064289Y-17490970D01*
X84916568Y-17612203D01*
X84872866Y-17635562D01*
X84823552Y-17640419D01*
X84776133Y-17626035D01*
X84755432Y-17612203D01*
X84607710Y-17490970D01*
X84283540Y-17317698D01*
X83931799Y-17210998D01*
X83657674Y-17184000D01*
X83474326Y-17184000D01*
X83200200Y-17210998D01*
X82848459Y-17317698D01*
X82524289Y-17490970D01*
X82376568Y-17612203D01*
X82332866Y-17635562D01*
X82283552Y-17640419D01*
X82236133Y-17626035D01*
X82215432Y-17612203D01*
X82067710Y-17490970D01*
X81743540Y-17317698D01*
X81391799Y-17210998D01*
X81117674Y-17184000D01*
X80934326Y-17184000D01*
X80660200Y-17210998D01*
X80308459Y-17317698D01*
X80113197Y-17422068D01*
X80065778Y-17436452D01*
X80016464Y-17431595D01*
X79972762Y-17408236D01*
X79903190Y-17351139D01*
X79726686Y-17256796D01*
X79535170Y-17198700D01*
X79331675Y-17178658D01*
X79206933Y-17182422D01*
X78994000Y-17395356D01*
X78994000Y-18604934D01*
X79004333Y-18620399D01*
X79014000Y-18669000D01*
X79014000Y-19431000D01*
X79004333Y-19479601D01*
X78994000Y-19495065D01*
X78994000Y-20704644D01*
X79206933Y-20917577D01*
X79331675Y-20921341D01*
X79535170Y-20901299D01*
X79726686Y-20843203D01*
X79903190Y-20748860D01*
X79972762Y-20691764D01*
X80016463Y-20668405D01*
X80065778Y-20663547D01*
X80113197Y-20677932D01*
X80313061Y-20784761D01*
X80351366Y-20816197D01*
X80374725Y-20859899D01*
X80379582Y-20909213D01*
X80365198Y-20956632D01*
X80333762Y-20994937D01*
X80301795Y-21014098D01*
X80101269Y-21097158D01*
X80000343Y-21164596D01*
X79954562Y-21183560D01*
X79929785Y-21186000D01*
X78295514Y-21186000D01*
X78283065Y-21185388D01*
X78231999Y-21180358D01*
X78180933Y-21185388D01*
X78180927Y-21185388D01*
X78003424Y-21202870D01*
X77783633Y-21269543D01*
X77581070Y-21377815D01*
X77403523Y-21523523D01*
X77370966Y-21563196D01*
X77362597Y-21572431D01*
X76479050Y-22455978D01*
X76437848Y-22483508D01*
X76414024Y-22490735D01*
X76294967Y-22514416D01*
X76037269Y-22621158D01*
X75805356Y-22776118D01*
X75608118Y-22973356D01*
X75453158Y-23205269D01*
X75346416Y-23462967D01*
X75292000Y-23736538D01*
X75292000Y-23932419D01*
X75282333Y-23981020D01*
X75254803Y-24022222D01*
X75213601Y-24049752D01*
X75165000Y-24059419D01*
X75116400Y-24049752D01*
X75089034Y-24038417D01*
X74815462Y-23984000D01*
X74536538Y-23984000D01*
X74262967Y-24038416D01*
X74005269Y-24145158D01*
X73941758Y-24187596D01*
X73895977Y-24206560D01*
X73871200Y-24209000D01*
X69892800Y-24209000D01*
X69844199Y-24199333D01*
X69822242Y-24187596D01*
X69758730Y-24145158D01*
X69501032Y-24038416D01*
X69227462Y-23984000D01*
X68948538Y-23984000D01*
X68674967Y-24038416D01*
X68417269Y-24145158D01*
X68185356Y-24300118D01*
X67988118Y-24497356D01*
X67833158Y-24729269D01*
X67726416Y-24986967D01*
X67672000Y-25260538D01*
X62787153Y-25260538D01*
X62470303Y-25048825D01*
X62085213Y-24889316D01*
X61676407Y-24808000D01*
X61259593Y-24808000D01*
X60850786Y-24889316D01*
X60465696Y-25048825D01*
X60119131Y-25280393D01*
X59824393Y-25575131D01*
X59592825Y-25921696D01*
X59433316Y-26306786D01*
X59352000Y-26715593D01*
X57708000Y-26715593D01*
X57708000Y-19050000D01*
X58830971Y-19050000D01*
X58866998Y-19415799D01*
X58973698Y-19767540D01*
X59146970Y-20091710D01*
X59380154Y-20375845D01*
X59664289Y-20609029D01*
X59988459Y-20782301D01*
X60340200Y-20889001D01*
X60614326Y-20916000D01*
X60797674Y-20916000D01*
X61071799Y-20889001D01*
X61423540Y-20782301D01*
X61747710Y-20609029D01*
X61895432Y-20487797D01*
X61939134Y-20464438D01*
X61988448Y-20459581D01*
X62035867Y-20473965D01*
X62056568Y-20487797D01*
X62204289Y-20609029D01*
X62528459Y-20782301D01*
X62880200Y-20889001D01*
X63154326Y-20916000D01*
X63337674Y-20916000D01*
X63611799Y-20889001D01*
X63963540Y-20782301D01*
X64287710Y-20609029D01*
X64435432Y-20487797D01*
X64479134Y-20464438D01*
X64528448Y-20459581D01*
X64575867Y-20473965D01*
X64596568Y-20487797D01*
X64744289Y-20609029D01*
X65068459Y-20782301D01*
X65420200Y-20889001D01*
X65694326Y-20916000D01*
X65877674Y-20916000D01*
X66151799Y-20889001D01*
X66503540Y-20782301D01*
X66827710Y-20609029D01*
X66981718Y-20482638D01*
X67025420Y-20459279D01*
X67074734Y-20454422D01*
X67122153Y-20468806D01*
X67147025Y-20486214D01*
X67223524Y-20554742D01*
X67541287Y-20742696D01*
X67628341Y-20778749D01*
X67818000Y-20647606D01*
X67818000Y-19495065D01*
X67807667Y-19479601D01*
X67798000Y-19431000D01*
X67798000Y-18669000D01*
X67807667Y-18620399D01*
X67818000Y-18604934D01*
X67818000Y-17452393D01*
X68834000Y-17452393D01*
X68834000Y-18604934D01*
X68844333Y-18620399D01*
X68854000Y-18669000D01*
X68854000Y-19431000D01*
X68844333Y-19479601D01*
X68834000Y-19495065D01*
X68834000Y-20647606D01*
X69023658Y-20778749D01*
X69110712Y-20742696D01*
X69428475Y-20554742D01*
X69504975Y-20486214D01*
X69547626Y-20460987D01*
X69596684Y-20454001D01*
X69644681Y-20466321D01*
X69670282Y-20482638D01*
X69824289Y-20609029D01*
X70148459Y-20782301D01*
X70500200Y-20889001D01*
X70774326Y-20916000D01*
X70957674Y-20916000D01*
X71231799Y-20889001D01*
X71583540Y-20782301D01*
X71778803Y-20677932D01*
X71826222Y-20663548D01*
X71875536Y-20668405D01*
X71919238Y-20691764D01*
X71988809Y-20748860D01*
X72165313Y-20843203D01*
X72356829Y-20901299D01*
X72562234Y-20921530D01*
X74249766Y-20921530D01*
X74455170Y-20901299D01*
X74646686Y-20843203D01*
X74823190Y-20748860D01*
X74977896Y-20621896D01*
X75104860Y-20467190D01*
X75199203Y-20290686D01*
X75257299Y-20099170D01*
X75277342Y-19895675D01*
X76614658Y-19895675D01*
X76634700Y-20099170D01*
X76692796Y-20290686D01*
X76787139Y-20467190D01*
X76914103Y-20621896D01*
X77068809Y-20748860D01*
X77245313Y-20843203D01*
X77436829Y-20901299D01*
X77640324Y-20921341D01*
X77765066Y-20917577D01*
X77978000Y-20704644D01*
X77978000Y-19558000D01*
X76831356Y-19558000D01*
X76618422Y-19770933D01*
X76614658Y-19895675D01*
X75277342Y-19895675D01*
X75277530Y-19893765D01*
X75277530Y-18206234D01*
X75277342Y-18204324D01*
X76614658Y-18204324D01*
X76618422Y-18329066D01*
X76831356Y-18542000D01*
X77978000Y-18542000D01*
X77978000Y-17395356D01*
X77765066Y-17182422D01*
X77640324Y-17178658D01*
X77436829Y-17198700D01*
X77245313Y-17256796D01*
X77068809Y-17351139D01*
X76914103Y-17478103D01*
X76787139Y-17632809D01*
X76692796Y-17809313D01*
X76634700Y-18000829D01*
X76614658Y-18204324D01*
X75277342Y-18204324D01*
X75257299Y-18000829D01*
X75199203Y-17809313D01*
X75104860Y-17632809D01*
X74977896Y-17478103D01*
X74823190Y-17351139D01*
X74646686Y-17256796D01*
X74455170Y-17198700D01*
X74249766Y-17178470D01*
X72562234Y-17178470D01*
X72356829Y-17198700D01*
X72165313Y-17256796D01*
X71988809Y-17351139D01*
X71919238Y-17408236D01*
X71875537Y-17431595D01*
X71826222Y-17436453D01*
X71778803Y-17422068D01*
X71583540Y-17317698D01*
X71231799Y-17210998D01*
X70957674Y-17184000D01*
X70774326Y-17184000D01*
X70500200Y-17210998D01*
X70148459Y-17317698D01*
X69824289Y-17490970D01*
X69670282Y-17617362D01*
X69626580Y-17640721D01*
X69577266Y-17645578D01*
X69529847Y-17631194D01*
X69504975Y-17613786D01*
X69428475Y-17545257D01*
X69110712Y-17357303D01*
X69023658Y-17321250D01*
X68834000Y-17452393D01*
X67818000Y-17452393D01*
X67628341Y-17321250D01*
X67541287Y-17357303D01*
X67223524Y-17545257D01*
X67147025Y-17613786D01*
X67104374Y-17639013D01*
X67055316Y-17645999D01*
X67007319Y-17633679D01*
X66981718Y-17617362D01*
X66827710Y-17490970D01*
X66503540Y-17317698D01*
X66151799Y-17210998D01*
X65877674Y-17184000D01*
X65694326Y-17184000D01*
X65420200Y-17210998D01*
X65068459Y-17317698D01*
X64744289Y-17490970D01*
X64596568Y-17612203D01*
X64552866Y-17635562D01*
X64503552Y-17640419D01*
X64456133Y-17626035D01*
X64435432Y-17612203D01*
X64287710Y-17490970D01*
X63963540Y-17317698D01*
X63611799Y-17210998D01*
X63337674Y-17184000D01*
X63154326Y-17184000D01*
X62880200Y-17210998D01*
X62528459Y-17317698D01*
X62204289Y-17490970D01*
X62056568Y-17612203D01*
X62012866Y-17635562D01*
X61963552Y-17640419D01*
X61916133Y-17626035D01*
X61895432Y-17612203D01*
X61747710Y-17490970D01*
X61423540Y-17317698D01*
X61071799Y-17210998D01*
X60797674Y-17184000D01*
X60614326Y-17184000D01*
X60340200Y-17210998D01*
X59988459Y-17317698D01*
X59664289Y-17490970D01*
X59380154Y-17724154D01*
X59146970Y-18008289D01*
X58973698Y-18332459D01*
X58866998Y-18684200D01*
X58830971Y-19050000D01*
X57708000Y-19050000D01*
X57708000Y-16179000D01*
X57717667Y-16130399D01*
X57745197Y-16089197D01*
X57786399Y-16061667D01*
X57835000Y-16052000D01*
X116155000Y-16052000D01*
X116203601Y-16061667D01*
G37*
G04 #@! TD.AperFunction*
M02*
