M48
; DRILL file {KiCad 8.0.8} date 2025-04-06T11:29:28+0100
; FORMAT={-:-/ absolute / metric / decimal}
; #@! TF.CreationDate,2025-04-06T11:29:28+01:00
; #@! TF.GenerationSoftware,Kicad,Pcbnew,8.0.8
; #@! TF.FileFunction,Plated,1,2,PTH
FMAT,2
METRIC
; #@! TA.AperFunction,Plated,PTH,ViaDrill
T1C0.400
; #@! TA.AperFunction,Plated,PTH,ComponentDrill
T2C1.000
%
G90
G05
T1
X69.088Y-25.4
X74.676Y-25.4
X76.708Y-23.876
X80.772Y-22.352
X92.456Y-34.036
X94.234Y-23.114
X111.252Y-36.83
X113.03Y-38.608
T2
X60.706Y-19.05
X60.706Y-31.75
X60.706Y-36.83
X60.706Y-39.37
X60.706Y-43.18
X63.246Y-19.05
X63.246Y-31.75
X63.246Y-36.83
X63.246Y-39.37
X63.246Y-43.18
X65.786Y-19.05
X65.786Y-31.75
X65.786Y-36.83
X65.786Y-39.37
X65.786Y-43.18
X68.326Y-19.05
X68.326Y-31.75
X68.326Y-36.83
X68.326Y-39.37
X68.326Y-43.18
X70.866Y-19.05
X70.866Y-31.75
X70.866Y-36.83
X70.866Y-39.37
X70.866Y-43.18
X73.406Y-19.05
X73.406Y-31.75
X73.406Y-36.83
X73.406Y-39.37
X75.946Y-36.83
X75.946Y-39.37
X75.946Y-43.18
X77.216Y-28.448
X77.216Y-30.988
X78.486Y-19.05
X78.486Y-36.83
X78.486Y-39.37
X78.486Y-43.18
X81.026Y-19.05
X81.026Y-25.908
X81.026Y-28.448
X81.026Y-30.988
X81.026Y-36.83
X81.026Y-39.37
X83.566Y-19.05
X83.566Y-36.83
X83.566Y-39.37
X83.566Y-43.18
X84.836Y-25.908
X84.836Y-28.448
X84.836Y-30.988
X86.106Y-19.05
X86.106Y-36.83
X86.106Y-39.37
X86.106Y-43.18
X88.646Y-25.908
X88.646Y-28.448
X88.646Y-30.988
X88.646Y-36.83
X88.646Y-39.37
X88.646Y-43.18
X91.186Y-36.83
X91.186Y-39.37
X91.186Y-43.18
X91.694Y-19.05
X92.456Y-25.908
X92.456Y-28.448
X92.456Y-30.988
X93.726Y-36.83
X93.726Y-39.37
X93.726Y-43.18
X94.234Y-19.05
X96.266Y-25.908
X96.266Y-28.448
X96.266Y-30.988
X96.266Y-36.83
X96.266Y-39.37
X96.266Y-43.18
X96.774Y-19.05
X98.806Y-36.83
X98.806Y-39.37
X99.568Y-25.908
X99.568Y-28.448
X99.568Y-30.988
X101.346Y-36.83
X101.346Y-39.37
X101.346Y-43.18
X102.362Y-19.05
X103.886Y-24.384
X103.886Y-26.924
X103.886Y-29.464
X103.886Y-33.528
X103.886Y-36.83
X103.886Y-39.37
X103.886Y-43.18
X104.902Y-19.05
X106.426Y-33.528
X106.426Y-36.83
X106.426Y-39.37
X106.426Y-43.18
X107.442Y-19.05
X107.696Y-24.384
X107.696Y-26.924
X107.696Y-29.464
X108.966Y-33.528
X108.966Y-36.83
X108.966Y-39.37
X111.506Y-24.384
X111.506Y-26.924
X111.506Y-29.464
X111.506Y-33.528
X114.046Y-33.528
M30
